<svg id="Layer_1" data-name="Layer 1" xmlns="http://www.w3.org/2000/svg" xmlns:xlink="http://www.w3.org/1999/xlink" viewBox="0 0 200 200"><defs><style>.cls-1,.cls-2{fill-rule:evenodd;}.cls-1{fill:url(#linear-gradient);}.cls-2{fill:#fff;}</style><linearGradient id="linear-gradient" x1="-431.33713" y1="-941.22011" x2="-459.45013" y2="-910.21511" gradientTransform="matrix(5, 0, 0, -5, 2328, -4527.45007)" gradientUnits="userSpaceOnUse"><stop offset="0" stop-color="#823af3"/><stop offset="0.36" stop-color="#4b66e1"/><stop offset="0.906" stop-color="#01f1c4"/></linearGradient></defs><path class="cls-1" d="M200,100A100,100,0,1,1,100,0,100.00446,100.00446,0,0,1,200,100Z"/><path class="cls-2" d="M125.97,114.81c-4.175,4.575-10.035,6.89-12.78,6.89-3.175,0-4.91-1.945-5.265-4.87a11.87062,11.87062,0,0,1,.12-3.365c1.05-6.55,3.46-10.62,3.31-11.86-.045-.355-.245-.53-.505-.53-2.03,0-9.15,7.35-10.23,12.215l-.84,3.895a5.795,5.795,0,0,1-5.09,4.51,1.51883,1.51883,0,0,1-1.67-1.415,4.26534,4.26534,0,0,1,.105-1.33l.395-2.05c-3.84,2.87-7.98,4.81-9.92,4.81a4.39281,4.39281,0,0,1-4.665-3.545,8.20319,8.20319,0,0,1-6.53,3.545,8.74561,8.74561,0,0,1-7.64-5.17,36.23128,36.23128,0,0,1-7.48,6.495c-4.345,2.75-9.18,4.96-14.91,4.96a18.82919,18.82919,0,0,1-12.265-5.13c-3.685-3.45-5.63-8.59-6.205-13.28C22.095,94.8,31.095,75.415,45.04,66.92A19.63543,19.63543,0,0,1,55.08,64a12.217,12.217,0,0,1,12.4,10.52c.63,5.16-1.43,9.62-7.155,12.505-2.92,1.48-4.37,1.41-4.825.705a1.42864,1.42864,0,0,1,.455-1.755c5.38-4.495,5.48-8.185,4.85-13.385-.41-3.345-2.61-5.49-5.08-5.49C45.15,67.1,29.98,90.825,32.09,108.085c.825,6.73,4.95,14.52,13.41,14.52a19.37225,19.37225,0,0,0,8.47-2.125c4.64-2.37,7.265-4.25,9.9-7.32-.65-7.98,6.2-18,16.39-18,4.41,0,8.06,1.77,8.49,5.31.54,4.425-3.23,5.31-4.64,5.31-1.235,0-3.215-.355-3.355-1.505-.15-1.24,2.67-.53,2.32-3.365-.215-1.77-2.055-2.39-3.815-2.39-6.345,0-9.85,8.85-9.175,14.345.305,2.48,1.575,4.955,3.87,4.955,1.85,0,4.52-2.655,5.545-6.55a5.83048,5.83048,0,0,1,5.015-4.425,1.55733,1.55733,0,0,1,1.76,1.415,4.19579,4.19579,0,0,1-.105,1.33c-.21,1.15-1.095,4.98-1.05,5.77A1.58972,1.58972,0,0,0,86.75,117c.95,0,4.45-1.89,7.69-4.79,1.015-5.255,2.27-11.755,2.37-12.27.395-2.13,1.16-4.325,5.48-4.325a1.55267,1.55267,0,0,1,1.685,1.505,4.20513,4.20513,0,0,1-.105,1.33l-1.21,5.465c3.79-5.05,9.68-8.76,13.21-8.76a2.62077,2.62077,0,0,1,2.85,2.39,10.3177,10.3177,0,0,1-.735,4.07,106.37765,106.37765,0,0,0-3.6,13.1,1.83042,1.83042,0,0,0,1.865,2.38c1.385,0,5.83-1.695,9.425-6.44-.025-.67-.035-1.35-.035-2.04a30.87222,30.87222,0,0,1,.97-8.935c.705-2.305,3.615-4.51,5.55-4.51a1.50689,1.50689,0,0,1,1.675,1.59A3.50588,3.50588,0,0,1,133.57,98a34.45823,34.45823,0,0,0-2.025,11.155,34.10106,34.10106,0,0,0,.885,6.99c.09.355.17.71.525.71.615,0,4.76-4.07,7.755-9.03-2.65-1.685-4.145-4.78-4.145-8.59,0-6.37,3.79-9.65,7.49-9.65,2.91,0,5.55,2.125,5.55,6.37a19.95333,19.95333,0,0,1-2.55,8.59s.615.09.88.09a6.60066,6.60066,0,0,0,5.03-2.215,5.55632,5.55632,0,0,1,1.24-1.12,16.09413,16.09413,0,0,1,12.35-6.14c4.32,0,8.05,1.685,8.48,5.225a4.55323,4.55323,0,0,1-4.63,5.4c-1.32,0-3.305-.355-3.445-1.505s2.755-.53,2.42-3.27c-.215-1.77-2.065-2.48-3.83-2.48-5.91,0-9.97,7.88-9.19,14.25.31,2.57,1.495,5.05,3.79,5.05,1.85,0,4.615-2.66,5.635-6.55.655-2.57,3.16-4.425,5.01-4.425a1.62889,1.62889,0,0,1,1.77,1.505c.065.53-.15,1.685-1.135,5.84a13.12269,13.12269,0,0,0-.33,4.515,8.19348,8.19348,0,0,0,2.58,5.225,1.94056,1.94056,0,0,1,.66,1.065,1.21836,1.21836,0,0,1-1.335,1.33,1.72287,1.72287,0,0,1-.905-.175c-4.54-1.86-6.425-4.955-6.955-7.88a8.34449,8.34449,0,0,1-6.45,3.45c-4.055,0-8.015-3.545-8.575-8.145a14.29653,14.29653,0,0,1,.615-5.92,9.80568,9.80568,0,0,1-5.005,1.58,8.31207,8.31207,0,0,1-1.495-.09c-3.965,5.75-8.11,9.735-11.285,11.51a7.82083,7.82083,0,0,1-3.435,1.065,2.03059,2.03059,0,0,1-1.85-.795,16.64866,16.64866,0,0,1-1.695-6.125Zm14.365-18.855a10.327,10.327,0,0,0,2.82,6.73,14.58655,14.58655,0,0,0,.97-5.05c0-3.19-1.235-4.605-2.205-4.605C140.775,93.03,140.335,94.63,140.335,95.955Z"/></svg>