<svg id="Layer_1" data-name="Layer 1" xmlns="http://www.w3.org/2000/svg" xmlns:xlink="http://www.w3.org/1999/xlink" viewBox="0 0 443 442.99951"><defs><style>.cls-1{fill:none;stroke:#f5f5f5;stroke-miterlimit:10;opacity:0.5;}.cls-2{fill:url(#linear-gradient);}</style><linearGradient id="linear-gradient" x1="11.94365" y1="11.94347" x2="431.05635" y2="431.05617" gradientUnits="userSpaceOnUse"><stop offset="0.00288" stop-color="#4169e1"/><stop offset="1" stop-color="#214ed3"/></linearGradient></defs><rect class="cls-1" x="0.50024" y="0.49976" width="441.99951" height="442" rx="27" transform="translate(0.00024 442.99976) rotate(-90)"/><path class="cls-2" d="M415.5,5.49982H27.5a22,22,0,0,0-22,22v388a22,22,0,0,0,22,22h388a22,22,0,0,0,22-22v-388A22,22,0,0,0,415.5,5.49982Zm-194,324.18426,72-90,72,162Zm-144,72v-288l72-72v72l216-72Z"/></svg>