<svg id="Layer_1" data-name="Layer 1" xmlns="http://www.w3.org/2000/svg" viewBox="0 0 984.8042 685.43752"><defs><style>.cls-1{fill:#fc6503;}.cls-2{fill:#fefdfd;}.cls-3{fill:#fb6504;}</style></defs><path class="cls-1" d="M477.09257,399.05123q-28.23129-12.32632-56.4605-24.65208c3.29869-3.94642,6.53642-7.94434,9.9013-11.8322a226.47048,226.47048,0,0,0,53.21109-113.98106c1.11218-21.54067,2.69568-43.07419,3.02356-64.6268.08807-5.78977-3.64584-11.63769-5.62526-17.45891-18.65971-21.30995-47.83109-27.40808-79.27693-17.18667-31.82059,10.34325-56.109,30.87265-77.33716,55.77108C318.85152,120.47557,383.03779,32.41218,468.08475,8.126,579.45709-23.67767,692.69013,40.69374,721.0909,151.95646c28.30531,110.889-40.15091,223.37081-152.79146,247.69085-23.26718,5.02361-48.38332,1.4838-72.64027,1.8908,4.51731-3.255,9.0548-6.47317,13.5335-9.7711,29.4525-21.688,46.22483-50.31,47.05484-87.32984.46131-20.574-10.27837-29.562-30.70787-27.20114C509.206,279.12359,479.174,300.3719,474.518,326.33623c4.70188-4.14466,7.93036-7.17317,11.34988-9.968,7.932-6.483,15.46717-13.62619,24.06983-19.06882,10.25529-6.48819,19.1537-2.12992,25.50179,6.986,6.28278,9.0222,2.57044,15.32233-5.78749,21.4473-4.81464,3.52834-9.42106,9.74191-10.56944,15.46007C513.86967,367.1498,496.343,383.60227,477.09257,399.05123Zm4.65407-300.1439c.03513-21.514-16.07048-38.63087-36.58476-38.88187-22.211-.27176-36.741,16.49558-37.20378,42.93244-.30238,17.27381,18.4288,34.19772,37.42256,33.81188C465.2972,136.36518,481.71338,119.2735,481.74664,98.90733ZM527.2614,254.59139c-.21255,8.63488,5.11377,14.64529,14.20313,15.13474,9.76943.5261,17.77908-6.73189,17.27306-16.42227-.4809-9.20895-4.76-15.10392-15.08044-15.50112C532.24307,237.36338,526.98563,242.49531,527.2614,254.59139Z"/><path class="cls-2" d="M483.74447,248.58589A226.47058,226.47058,0,0,1,430.53337,362.567c-3.36488,3.88786-6.60261,7.88578-9.9013,11.8322-44.13862,42.91833-96.16224,73.07515-153.50292,94.508-2.81793,1.05325-6.51427-.2435-9.80156-.44588,1.81034-2.00318,3.38407-4.30255,5.466-5.96569,39.16487-31.287,80.28033-60.47154,109.88594-102.03325,3.69961-5.19369,6.85145-10.77757,10.25709-16.18073,5.50058-13.22309,12.97684-26.00345,16.06085-39.76793,5.25331-23.4465,15.17863-42.08237,36.75269-54.45468,5.67794-3.25619,10.27234-11.52673,11.81018-18.30141,4.95623-21.834-30.88632-57.12868-57.19037-45.25384-25.32782,11.43407-46.17255,27.83154-63.932,48.73324-5.41194,5.89865-10.49742,12.15629-16.39569,17.5202-2.37646,2.16113-6.53337,2.36449-9.88,3.45887q-1.23851-1.9852-2.477-3.97039,13.42182-23.58126,26.84349-47.16179c21.228-24.89776,45.51644-45.42716,77.337-55.77041,31.44584-10.22141,60.61722-4.12328,79.277,17.18653.93108,20.01207,1.96844,40.02015,2.73751,60.03857C484.1622,233.87513,483.80832,241.23608,483.74447,248.58589Z"/><path class="cls-3" d="M326.438,235.237c17.75945-20.9017,38.60418-37.29917,63.932-48.73324,26.30405-11.87484,62.1466,23.41985,57.19037,45.25384-1.53784,6.77468-6.13224,15.04522-11.81018,18.30141-21.57406,12.37231-31.49938,31.00818-36.75269,54.45468-3.084,13.76448-10.56027,26.54484-16.06085,39.76793-28.61147-27.74183-45.99079-61.57727-54.419-100.27456C327.87836,241.072,327.13367,238.15984,326.438,235.237Z"/><path class="cls-2" d="M477.09255,399.05123c19.25045-15.449,36.77712-31.90143,41.99-57.85839,1.14838-5.71816,5.7548-11.93173,10.56944-15.46007,8.35793-6.125,12.07027-12.4251,5.78749-21.4473-6.34809-9.116-15.2465-13.47424-25.50179-6.986-8.60266,5.44263-16.13779,12.58587-24.06983,19.06882-3.41952,2.79482-6.648,5.82333-11.34988,9.968,4.656-25.96433,34.688-47.21264,51.02165-49.1002,20.4295-2.36085,31.16918,6.62712,30.70787,27.20114-.83,37.01984-17.60234,65.64188-47.05484,87.32984-4.4787,3.29793-9.01619,6.51608-13.5335,9.7711q-16.07292,6.39219-32.1318,12.78434-1.19838-.97659-2.39675-1.95314Q469.11158,405.71023,477.09255,399.05123Z"/><path class="cls-2" d="M463.52737,414.32245q-3.25931,1.53593-6.51854,3.07181-.527-1.01692-1.05394-2.03382,2.58788-1.49559,5.17575-2.99113Q462.329,413.34584,463.52737,414.32245Z"/><path class="cls-2" d="M481.74664,98.90733c-.03326,20.36617-16.44944,37.45785-36.366,37.86245-18.99376.38584-37.72494-16.53807-37.42256-33.81188.46274-26.43686,14.99276-43.2042,37.20378-42.93244C465.67616,60.27646,481.78177,77.39332,481.74664,98.90733Z"/><path class="cls-2" d="M527.2614,254.59139c-.27577-12.09608,4.98167-17.228,16.39575-16.78865,10.32049.3972,14.59954,6.29217,15.08044,15.50112.506,9.69038-7.50363,16.94837-17.27306,16.42227C532.37517,269.23668,527.04885,263.22627,527.2614,254.59139Z"/><path class="cls-2" d="M483.74447,248.58589c.06385-7.34981.41773-14.71076.13586-22.04728-.76907-20.01842-1.80643-40.0265-2.73753-60.03857,1.97938,5.82136,5.71329,11.66928,5.62522,17.459C486.44014,205.5117,484.85664,227.04522,483.74447,248.58589Z"/><path class="cls-2" d="M2.42236,497.085h70.124l.666,21.07422H70.24512q-2.18043-9.93165-5.541-12.92872-3.36108-2.99853-14.13965-2.998H43.66113v63.46289q0,7.16748,2.24024,8.88379,2.23974,1.7168,9.81006,2.25879v2.30078H19.55957v-2.30078q7.87134-.60205,9.81006-2.5918,1.93725-1.98926,1.938-10.00391V502.23244H24.34375q-10.29565,0-14.019,2.96777-3.72436,2.96631-5.60157,12.959H1.6958Z"/><path class="cls-2" d="M77.75439,576.83791q7.26636-.78369,9.083-2.68164,1.81714-1.89991,1.8169-9.91407V510.52834q0-6.66064-2.02881-8.65918-2.02954-1.99806-8.8711-2.48243V497.085H112.1499v2.30175q-6.80493.48487-8.85254,2.48243-2.04784,1.998-2.04736,8.65918v24.16211h37.666V510.52834q0-6.66064-1.99854-8.65918-1.998-1.99806-8.90186-2.48243V497.085h34.396v2.30175q-6.84375.48487-8.87158,2.48243-2.02955,1.998-2.02832,8.65918v55.167q0,6.74561,2.02832,8.64258,2.02807,1.897,8.87158,2.5v2.30078h-34.396v-2.30078q7.32642-.72365,9.11377-2.65137,1.78564-1.9292,1.78663-9.94434V540.14064H101.25v25.55469q0,6.74561,2.04736,8.67285,2.04712,1.92774,8.85254,2.46973v2.30078H77.75439Z"/><path class="cls-2" d="M166.71045,576.83791q6.843-.72365,8.87158-2.43946,2.02807-1.7168,2.02881-8.70312v-55.167q0-6.59913-1.99854-8.62891-1.998-2.02881-8.90185-2.5127V497.085H232.5957l.42383,17.74316h-3.14892q-1.57545-8.19726-4.72315-10.6084-3.14941-2.40966-14.04932-2.41113H194.21436q-2.73341,0-3.37012.87793a6.00572,6.00572,0,0,0-.6377,3.30078v27.67383h19.13575q7.93212,0,10.11279-2.34961,2.17968-2.34961,3.51221-9.51953H225.874v28.64355h-2.90673q-1.3938-7.207-3.57276-9.53808-2.18042-2.33057-10.05224-2.33106H190.20654v30.70117q0,3.6958,2.334,4.36036,2.335.668,13.98.666,12.613,0,18.61719-2.75488,6.00366-2.75538,10.78857-13.35254h3.45166l-5.63184,20.95215H166.71045Z"/><path class="cls-2" d="M304.8999,497.085v2.12011a25.003,25.003,0,0,0-6.34424.61426,3.8993,3.8993,0,0,0-2.96533,3.999,13.10857,13.10857,0,0,0,1.05957,4.30567q1.05909,2.76855,3.9458,9.18848l19.41309,43.1748,17.6206-46.73828q1.16676-3.09962,1.77295-5.25293a13.61065,13.61065,0,0,0,.606-3.50781,4.85732,4.85732,0,0,0-3.085-4.92285,18.81441,18.81441,0,0,0-5.98438-.86036V497.085h25.36915v2.12011a11.47066,11.47066,0,0,0-5.81348,2.11914q-2.84692,2.3628-5.63135,9.50879L317.398,580.59181h-1.86572l-30.65088-68.166q-3.876-8.67187-6.207-10.79493-2.332-2.124-6.8125-2.42578V497.085Z"/><path class="cls-2" d="M360.85352,576.83791q6.843-.72365,8.87158-2.43946,2.02808-1.7168,2.02881-8.70312v-55.167q0-6.59913-1.99854-8.62891-1.998-2.02881-8.90185-2.5127V497.085h65.88525l.42383,17.74316h-3.14893q-1.57544-8.19726-4.72314-10.6084-3.14941-2.40966-14.04932-2.41113H388.35742q-2.73339,0-3.37012.87793a6.00574,6.00574,0,0,0-.63769,3.30078v27.67383h19.13574q7.93214,0,10.11279-2.34961,2.17969-2.34961,3.51221-9.51953h2.90674v28.64355h-2.90674q-1.3938-7.207-3.57275-9.53808-2.18043-2.33057-10.05225-2.33106H384.34961v30.70117q0,3.6958,2.334,4.36036,2.335.668,13.98.666,12.613,0,18.61719-2.75488,6.00366-2.75538,10.78858-13.35254H433.521l-5.63184,20.95215H360.85352Z"/><path class="cls-2" d="M436.60889,576.83791q6.843-.72365,8.87158-2.43946,2.02734-1.7168,2.0293-8.70312v-55.167q0-6.59913-1.998-8.62891-2.001-2.02881-8.90283-2.5127V497.085h35.00244v2.30175q-6.84375.36328-9.17578,2.24024-2.332,1.87793-2.33008,8.05371v59.58691a6.356,6.356,0,0,0,.69726,3.24024q.69727,1.18066,3.06055,1.4834,1.39454.18164,2.94141.24218,1.54688.06153,5.78906.06055,16.55274,0,22.37354-2.72461,5.82128-2.7246,11.27734-13.92773h3.1543l-6.06446,21.49707H436.60889Z"/><path class="cls-2" d="M512.80029,579.13869v-2.30078a10.077,10.077,0,0,0,7.17578-3.59961q2.39209-3.06006,8.19922-16.74512l25.83692-60.86133h2.46972l30.89942,70.30762q3.08935,6.98585,4.93554,8.64062,1.84718,1.65675,6.207,2.25782v2.30078H566.98682v-2.30078q5.436-.4834,7.00879-1.17579,1.57323-.69286,1.57421-3.40527a14.98946,14.98946,0,0,0-.60644-3.19336,34.57267,34.57267,0,0,0-1.69531-4.82129l-4.96485-11.92968H535.61963q-4.83105,12.17138-5.77051,14.85351a13.77126,13.77126,0,0,0-.93848,4.24805,4.38091,4.38091,0,0,0,2.542,4.33887,20.18668,20.18668,0,0,0,5.92187,1.085v2.30078Zm53.41114-31.85254-14.21289-34.15332-14.27735,34.15332Z"/><path class="cls-2" d="M601.92725,576.83791q7.69043-.78663,9.87109-3.4795Q613.978,570.666,613.978,560.8633V510.52052q0-6.71631-2.11914-8.74414-2.1211-2.02734-9.62891-2.38965V497.085h24.45117l28.48047,61.77539L682.94873,497.085h24.64941v2.30175q-6.90379.48487-8.90234,2.51075-1.998,2.02734-1.998,8.623v55.123q0,6.77783,1.998,8.68359t8.90234,2.51075v2.30078H672.89893v-2.30078q7.50879-.605,9.35644-2.69336,1.84571-2.08595,1.84668-9.9541v-55.668l-31.76172,70.61621H650.645l-31.2168-67.71094V560.8633q0,10.166,2.9668,13.251,1.938,1.998,8.66016,2.72364v2.30078H601.92725Z"/><path class="cls-2" d="M712.19971,576.83791q7.69042-.78663,9.87109-3.4795,2.1797-2.69238,2.17969-12.49511V510.52052q0-6.71631-2.11914-8.74414-2.12109-2.02734-9.62891-2.38965V497.085h24.45117l28.48047,61.77539L793.22119,497.085h24.64942v2.30175q-6.90381.48487-8.90235,2.51075-1.998,2.02734-1.99805,8.623v55.123q0,6.77783,1.99805,8.68359t8.90235,2.51075v2.30078H783.17139v-2.30078q7.50879-.605,9.35644-2.69336,1.8457-2.08595,1.84668-9.9541v-55.668l-31.76172,70.61621h-1.69531l-31.2168-67.71094V560.8633q0,10.166,2.9668,13.251,1.938,1.998,8.66016,2.72364v2.30078H712.19971Z"/><path class="cls-2" d="M822.90771,579.13869v-2.30078a10.077,10.077,0,0,0,7.17579-3.59961q2.39208-3.06006,8.19921-16.74512l25.83692-60.86133h2.46973l30.89941,70.30762q3.08935,6.98585,4.93555,8.64062,1.84716,1.65675,6.207,2.25782v2.30078H877.09424v-2.30078q5.436-.4834,7.00879-1.17579,1.57325-.69286,1.57422-3.40527a14.98968,14.98968,0,0,0-.60645-3.19336,34.57267,34.57267,0,0,0-1.69531-4.82129l-4.96485-11.92968H845.72705Q840.896,564.4839,839.95654,567.166a13.77149,13.77149,0,0,0-.93847,4.24805,4.38091,4.38091,0,0,0,2.542,4.33887,20.18675,20.18675,0,0,0,5.92187,1.085v2.30078Zm53.41114-31.85254L862.106,513.13283l-14.27735,34.15332Z"/><path class="cls-2" d="M912.03467,576.83791q6.84228-.72365,8.87207-2.43946,2.02734-1.7168,2.02832-8.70312v-55.167q0-6.59913-1.99805-8.62891-1.99951-2.02881-8.90234-2.5127V497.085h35.00195v2.30175q-6.84375.36328-9.1748,2.24024-2.332,1.87793-2.33106,8.05371v59.58691a6.36594,6.36594,0,0,0,.69727,3.24024q.69726,1.18066,3.06152,1.4834,1.39454.18164,2.94141.24218,1.5454.06153,5.78906.06055,16.55274,0,22.373-2.72461,5.81982-2.7246,11.27734-13.92773h3.15332l-6.06348,21.49707H912.03467Z"/><path class="cls-2" d="M4.606,649.65236q4.88819-.3501,6.33593-1.458,1.44581-1.10889,1.44678-5.73828V606.82814q0-4.41943-1.44678-5.69043-1.44726-1.27-6.33593-1.50586v-1.48633H28.30615v1.48633q-4.8889.23438-6.33545,1.50586-1.448,1.27149-1.44726,5.69043v35.62793q0,4.62891,1.44726,5.73828,1.44581,1.10889,6.33545,1.458v1.48633H4.606Z"/><path class="cls-2" d="M30.88721,649.65236q4.96655-.50684,6.375-2.24707,1.4077-1.73877,1.40771-8.06934V604.04787l-1.09472-1.29a8.8373,8.8373,0,0,0-2.99219-2.5586,11.59744,11.59744,0,0,0-3.6958-.56738v-1.48633h13.667l30.91748,38.32227V609.8506q0-6.56543-1.95557-8.54785-1.29053-1.28173-5.71-1.6709v-1.48633H86.61768v1.48633q-4.57545.47022-6.10108,2.22949-1.5249,1.75929-1.5249,8.05664v42.15918H77.62256L42.18994,608.15822v31.17969q0,6.564,1.916,8.55664,1.2517,1.28905,5.59277,1.75781v1.48633H30.88721Z"/><path class="cls-2" d="M89.39453,598.14552h45.28809l.43017,13.61035h-1.916q-1.40845-6.41309-3.57862-8.3496-2.17089-1.93653-9.13183-1.93653h-4.4585v40.98633q0,4.62891,1.44678,5.73828,1.44652,1.10889,6.33594,1.458v1.48633H100.4624v-1.48633q5.08374-.38819,6.33545-1.67383,1.25171-1.2832,1.25147-6.46094V601.46974h-4.49756q-6.64893,0-9.05371,1.917-2.40528,1.916-3.61768,8.36914H88.92529Z"/><path class="cls-2" d="M137.65527,649.65236q4.41943-.46582,5.7295-1.5752,1.31029-1.10888,1.31-5.62109V606.82814q0-4.2627-1.29052-5.57324-1.29053-1.30958-5.749-1.62305v-1.48633h42.55078l.27393,11.459h-2.03369q-1.01733-5.294-3.05078-6.85156-2.03394-1.55567-9.07324-1.55665H155.41846q-1.76588,0-2.17676.56739a3.87549,3.87549,0,0,0-.41211,2.13086v17.873H165.188q5.12329,0,6.53125-1.51757,1.40844-1.51758,2.26855-6.14747h1.877V632.6006h-1.877q-.90014-4.65381-2.30761-6.15918-1.40772-1.50585-6.49219-1.50586h-12.3584v19.82813q0,2.38623,1.50781,2.8164,1.50733.43066,9.02832.42969,8.146,0,12.02393-1.7793,3.87744-1.77978,6.96728-8.624h2.2295l-3.63721,13.53223H137.65527Z"/><path class="cls-2" d="M186.58057,649.65236q4.61426-.42774,5.749-1.79,1.13379-1.3623,1.13428-6.34473V606.82814q0-4.22461-1.271-5.53418-1.27149-1.30957-5.6123-1.66211v-1.48633h22.1748a32.67535,32.67535,0,0,1,11.53711,1.75782q8.76049,3.31934,8.76074,12.22363,0,5.9751-3.8916,9.17773-3.89136,3.20216-10.57861,4.21778l16.5039,20.32812a11.08495,11.08495,0,0,0,3.0503,2.71582,9.97961,9.97961,0,0,0,3.91113,1.08594v1.48633h-12.8999L205.11328,626.461l-3.51465.19532V642.4424q0,4.44434,1.34912,5.63183,1.34913,1.188,5.88623,1.57813v1.48633H186.58057ZM213.957,621.88478q6.37426-2.61474,6.375-9.83691,0-6.94776-5.71-9.48535a20.07361,20.07361,0,0,0-8.0957-1.36622q-3.40284,0-4.165.48829-.76319.48779-.7627,2.2832v19.71582Q210.24121,623.37159,213.957,621.88478Z"/><path class="cls-2" d="M240.00391,649.65236q4.96655-.50684,6.375-2.24707,1.40771-1.73877,1.40771-8.06934V604.04787l-1.09473-1.29a8.83729,8.83729,0,0,0-2.99218-2.5586,11.59749,11.59749,0,0,0-3.6958-.56738v-1.48633h13.667l30.91748,38.32227V609.8506q0-6.56543-1.95557-8.54785-1.29052-1.28173-5.71-1.6709v-1.48633h18.81153v1.48633q-4.57545.47022-6.10108,2.22949-1.5249,1.75929-1.5249,8.05664v42.15918h-1.36914l-35.43262-43.91894v31.17969q0,6.564,1.916,8.55664,1.25171,1.28905,5.59277,1.75781v1.48633H240.00391Z"/><path class="cls-2" d="M298.12744,651.13869v-1.48633a6.50657,6.50657,0,0,0,4.63428-2.32422q1.54467-1.97607,5.2959-10.81445l16.686-39.30664h1.59473l19.95605,45.40722q1.99439,4.51173,3.1875,5.58008a7.594,7.594,0,0,0,4.00879,1.458v1.48633H333.12256v-1.48633a18.03374,18.03374,0,0,0,4.52685-.75879q1.01588-.44677,1.01661-2.19922a9.68144,9.68144,0,0,0-.39112-2.0625,22.48241,22.48241,0,0,0-1.09521-3.11426l-3.20655-7.7041H312.86475q-3.12012,7.86036-3.72608,9.59278a8.88256,8.88256,0,0,0-.60644,2.74316,2.82987,2.82987,0,0,0,1.6416,2.80273,13.05134,13.05134,0,0,0,3.82471.7002v1.48633Zm34.49463-20.57129-9.17871-22.05762-9.22119,22.05762Z"/><path class="cls-2" d="M347.47559,598.14552h45.28808l.43018,13.61035h-1.916q-1.40844-6.41309-3.57861-8.3496-2.17091-1.93653-9.13184-1.93653h-4.45849v40.98633q0,4.62891,1.44677,5.73828,1.44654,1.10889,6.33594,1.458v1.48633H358.54346v-1.48633q5.08374-.38819,6.33545-1.67383,1.2517-1.2832,1.25146-6.46094V601.46974h-4.49756q-6.64892,0-9.05371,1.917-2.40526,1.916-3.61767,8.36914h-1.95508Z"/><path class="cls-2" d="M396.12744,649.65236q4.88819-.3501,6.33594-1.458,1.44581-1.10889,1.44678-5.73828V606.82814q0-4.41943-1.44678-5.69043-1.44726-1.27-6.33594-1.50586v-1.48633h23.7002v1.48633q-4.88892.23438-6.33545,1.50586-1.448,1.27149-1.44727,5.69043v35.62793q0,4.62891,1.44727,5.73828,1.44579,1.10889,6.33545,1.458v1.48633h-23.7002Z"/><path class="cls-2" d="M431.95117,604.09084a26.89363,26.89363,0,0,1,36.41016.03906q8.01855,7.70508,8.01758,20.53222,0,13.02247-8.291,20.72754a25.47022,25.47022,0,0,1-17.95117,6.88282,25.01184,25.01184,0,0,1-18.69385-7.626q-7.54835-7.78272-7.54785-19.98438Q423.895,611.8345,431.95117,604.09084Zm5.98926,39.24511a15.25676,15.25676,0,0,0,12.21582,6.043,15.42268,15.42268,0,0,0,12.11914-5.88574q5.03028-5.88575,5.03125-18.83106,0-13.10155-5.0918-18.92871-5.08885-5.82714-12.05859-5.82812a15.27323,15.27323,0,0,0-12.19629,6.043q-4.99146,6.04248-4.9917,18.71386Q432.96826,637.29494,437.94043,643.336Z"/><path class="cls-2" d="M480.251,649.65236q4.96581-.50684,6.375-2.24707,1.4077-1.73877,1.4082-8.06934V604.04787l-1.0957-1.29a8.83178,8.83178,0,0,0-2.99121-2.5586,11.601,11.601,0,0,0-3.69629-.56738v-1.48633h13.66748l30.918,38.32227V609.8506q0-6.56543-1.95606-8.54785-1.29052-1.28173-5.71-1.6709v-1.48633h18.81152v1.48633q-4.57617.47022-6.10058,2.22949-1.52637,1.75929-1.52539,8.05664v42.15918h-1.36914l-35.43311-43.91894v31.17969q0,6.564,1.9165,8.55664,1.251,1.28905,5.59278,1.75781v1.48633H480.251Z"/><path class="cls-2" d="M538.37549,651.13869v-1.48633a6.50672,6.50672,0,0,0,4.63476-2.32422q1.54395-1.97607,5.29493-10.81445l16.68652-39.30664h1.59473l19.95605,45.40722q1.99512,4.51173,3.1875,5.58008a7.59571,7.59571,0,0,0,4.00879,1.458v1.48633H573.37061v-1.48633a18.03931,18.03931,0,0,0,4.52734-.75879q1.01514-.44677,1.01562-2.19922a9.70362,9.70362,0,0,0-.39062-2.0625,22.36143,22.36143,0,0,0-1.0957-3.11426l-3.20606-7.7041h-21.1084q-3.12012,7.86036-3.72656,9.59278a8.88982,8.88982,0,0,0-.60547,2.74316,2.83057,2.83057,0,0,0,1.64063,2.80273,13.05554,13.05554,0,0,0,3.82519.7002v1.48633Zm34.49512-20.57129-9.17969-22.05762-9.22071,22.05762Z"/><path class="cls-2" d="M595.936,649.65236q4.41942-.46582,5.72949-1.5752,1.30956-1.10888,1.31054-5.62109V606.82814q0-4.2627-1.291-5.57324-1.29053-1.30958-5.749-1.62305v-1.48633H618.5415v1.48633q-4.42089.23438-5.92578,1.44727-1.50585,1.21289-1.50488,5.20117v38.4834a4.11365,4.11365,0,0,0,.4502,2.09277,2.52524,2.52524,0,0,0,1.97753.958q.89941.11718,1.89942.15625.99756.03955,3.73828.03906,10.69042,0,14.44922-1.75976,3.75879-1.75929,7.2832-8.99512h2.03613l-3.915,13.88379H595.936Z"/><path class="cls-2" d="M666.21533,635.02541A28.87524,28.87524,0,0,0,670.98,643.6299a14.92941,14.92941,0,0,0,11.832,5.59277,9.76788,9.76788,0,0,0,6.61914-2.4248,8.48536,8.48536,0,0,0,2.792-6.7666,9.45267,9.45267,0,0,0-2.80957-6.80469,49.77075,49.77075,0,0,0-7.72949-5.51465l-6.83105-4.2627a24.51617,24.51617,0,0,1-4.92188-3.95019,12.2581,12.2581,0,0,1-3.40234-8.36914A13.68326,13.68326,0,0,1,670.55713,601.04q4.02685-4.02831,10.67676-4.02832a20.51108,20.51108,0,0,1,6.58984,1.34961,28.05243,28.05243,0,0,0,4.39941,1.34864,2.51764,2.51764,0,0,0,2.05372-.70411,5.08852,5.08852,0,0,0,.87988-1.99414h1.64258l1.75976,17.05176h-1.917q-1.95556-7.70508-6.27637-10.75488a14.79576,14.79576,0,0,0-8.5459-3.05078,8.96108,8.96108,0,0,0-5.72949,1.93554,6.47717,6.47717,0,0,0-2.44433,5.37793,7.84894,7.84894,0,0,0,1.874,5.2793,24.08524,24.08524,0,0,0,5.82031,4.6543l7.03321,4.34082q6.60351,4.06786,9.31347,7.46973a12.88182,12.88182,0,0,1,2.6709,8.13476,13.49993,13.49993,0,0,1-4.75195,10.52051,17.59409,17.59409,0,0,1-12.14356,4.22363,23.60658,23.60658,0,0,1-7.76269-1.40723,29.26418,29.26418,0,0,0-4.63477-1.4082,1.98837,1.98837,0,0,0-1.89648.86035,5.39727,5.39727,0,0,0-.64551,1.83789h-1.75977l-2.38574-17.05175Z"/><path class="cls-2" d="M744.15967,598.49806a43.83927,43.83927,0,0,0,5.123,1.29,4.04322,4.04322,0,0,0,2.15137-.625,3.273,3.273,0,0,0,1.40821-1.95605h1.68164l.74316,17.99023h-1.83887a25.94117,25.94117,0,0,0-4.18457-8.64258,16.074,16.074,0,0,0-13.25781-6.17968,16.8403,16.8403,0,0,0-13.74707,6.64843q-5.33789,6.64893-5.33789,18.30274,0,10.7168,5.6123,17.11035a18.0885,18.0885,0,0,0,14.21582,6.39453,22.83062,22.83062,0,0,0,11.459-2.97168,34.40576,34.40576,0,0,0,6.60937-5.085l1.48633,1.48633a26.83946,26.83946,0,0,1-6.60937,5.90527,26.55693,26.55693,0,0,1-14.58789,4.30274q-12.90675,0-20.49317-8.252-7.00048-7.62744-7.001-19.04687,0-11.69238,7.3916-19.63282,7.78271-8.3291,20.25879-8.33007A32.77636,32.77636,0,0,1,744.15967,598.49806Z"/><path class="cls-2" d="M760.312,649.65236q4.6919-.50536,5.86621-1.73145,1.17335-1.22607,1.17285-6.40332V606.82814q0-4.30224-1.30957-5.59277-1.311-1.29053-5.72949-1.60352v-1.48633h22.21387v1.48633q-4.396.31348-5.71777,1.60352-1.32276,1.29053-1.32227,5.59277v15.60449H799.812V606.82814q0-4.30224-1.291-5.59277-1.29054-1.29053-5.749-1.60352v-1.48633h22.21387v1.48633q-4.41944.31348-5.72949,1.60352-1.311,1.29053-1.30957,5.59277v35.62793q0,4.35791,1.30957,5.582,1.311,1.22607,5.72949,1.61426v1.48633H792.772v-1.48633q4.73145-.46582,5.88574-1.71191,1.15431-1.24659,1.1543-6.42286V625.95216H775.48584v16.50391q0,4.35791,1.32227,5.60156,1.32274,1.24512,5.71777,1.59473v1.48633H760.312Z"/><path class="cls-2" d="M827.30615,604.09084a26.89363,26.89363,0,0,1,36.41016.03906q8.0171,7.70508,8.01758,20.53222,0,13.02247-8.291,20.72754a25.47189,25.47189,0,0,1-17.95117,6.88282,25.01067,25.01067,0,0,1-18.69434-7.626q-7.54833-7.78272-7.54785-19.98438Q819.24951,611.8345,827.30615,604.09084Zm5.98926,39.24511a15.25407,15.25407,0,0,0,12.21582,6.043,15.4194,15.4194,0,0,0,12.11816-5.88574q5.03028-5.88575,5.03125-18.83106,0-13.10155-5.09082-18.92871-5.08886-5.82714-12.05859-5.82812a15.27323,15.27323,0,0,0-12.19629,6.043q-4.99218,6.04248-4.99219,18.71386Q828.32275,637.29494,833.29541,643.336Z"/><path class="cls-2" d="M885.14893,604.09084a26.89362,26.89362,0,0,1,36.41015.03906q8.0171,7.70508,8.01758,20.53222,0,13.02247-8.291,20.72754a25.47189,25.47189,0,0,1-17.95117,6.88282,25.01063,25.01063,0,0,1-18.69433-7.626q-7.54835-7.78272-7.54785-19.98438Q877.09229,611.8345,885.14893,604.09084Zm5.98925,39.24511a15.25408,15.25408,0,0,0,12.21582,6.043,15.41942,15.41942,0,0,0,12.11817-5.88574q5.03027-5.88575,5.03125-18.83106,0-13.10155-5.09082-18.92871-5.08887-5.82714-12.0586-5.82812a15.27323,15.27323,0,0,0-12.19629,6.043q-4.99218,6.04248-4.99218,18.71386Q886.16553,637.29494,891.13818,643.336Z"/><path class="cls-2" d="M933.44775,649.65236q4.41944-.46582,5.7295-1.5752,1.30956-1.10888,1.31054-5.62109V606.82814q0-4.2627-1.291-5.57324-1.29053-1.30958-5.749-1.62305v-1.48633h22.60547v1.48633q-4.42089.23438-5.92578,1.44727-1.50585,1.21289-1.50488,5.20117v38.4834a4.11376,4.11376,0,0,0,.45019,2.09277,2.52528,2.52528,0,0,0,1.97754.958q.89941.11718,1.89942.15625.99756.03955,3.73828.03906,10.69042,0,14.44922-1.75976,3.75879-1.75929,7.2832-8.99512h2.03613l-3.915,13.88379H933.44775Z"/></svg>