<svg id="OBJECTS" xmlns="http://www.w3.org/2000/svg" xmlns:xlink="http://www.w3.org/1999/xlink" viewBox="0 0 542.45 387.4"><defs><style>.cls-1,.cls-15,.cls-18,.cls-2,.cls-20,.cls-21,.cls-24,.cls-28,.cls-3,.cls-35,.cls-6,.cls-9{fill:none;}.cls-1,.cls-2,.cls-3,.cls-6{stroke:#c0ccd8;}.cls-1,.cls-15,.cls-18,.cls-20,.cls-21,.cls-24,.cls-28,.cls-3,.cls-35,.cls-9{stroke-miterlimit:10;}.cls-2,.cls-22,.cls-6{stroke-linejoin:round;}.cls-3{stroke-width:3px;}.cls-4{fill:#f76652;}.cls-5{fill:#c0ccd8;}.cls-6{stroke-linecap:round;}.cls-7{fill:#475577;}.cls-8{fill:#717a91;}.cls-9{stroke:#544943;}.cls-28,.cls-9{stroke-width:1.5px;}.cls-10,.cls-30{opacity:0.45;}.cls-11,.cls-30{fill:#8e9db2;}.cls-12{fill:#ffcbbb;}.cls-13,.cls-22{fill:#e6e8ef;}.cls-14{fill:#b9b5b2;}.cls-15,.cls-22{stroke:#846a6a;}.cls-16{fill:#173789;}.cls-17{fill:#fca32d;}.cls-18{stroke:#ce680d;}.cls-19{fill:#ffb548;}.cls-20,.cls-21{stroke:#ed841b;}.cls-21{stroke-dasharray:3 2;}.cls-23{fill:#fff;}.cls-24{stroke:#ef977f;}.cls-25{fill:#8ebca2;}.cls-26{fill:#a2ccb6;}.cls-27{fill:#597f6e;}.cls-28{stroke:#c6d2e0;}.cls-29{fill:#c6d2e0;}.cls-31{opacity:0.65;}.cls-32{opacity:0.55;}.cls-33{fill:url(#linear-gradient);}.cls-34{fill:#e8eaef;}.cls-35{stroke:#8e9db2;stroke-width:2px;}</style><linearGradient id="linear-gradient" x1="201.64" y1="199.19" x2="201.64" y2="171.58" gradientTransform="matrix(-1, 0, 0, 1, 542.45, 0)" gradientUnits="userSpaceOnUse"><stop offset="0" stop-color="#fff" stop-opacity="0.1"/><stop offset="1" stop-color="#fff" stop-opacity="0.4"/></linearGradient></defs><rect class="cls-1" x="261.29" y="22.33" width="123.75" height="74.75" rx="3.21" transform="translate(646.33 119.41) rotate(180)"/><line class="cls-1" x1="385.04" y1="35.87" x2="261.29" y2="35.87"/><circle class="cls-1" cx="377.05" cy="29.18" r="1.98"/><path class="cls-1" d="M366.93,29.18a2,2,0,1,0,2-2A2,2,0,0,0,366.93,29.18Z"/><path class="cls-1" d="M358.79,29.18a2,2,0,1,0,2-2A2,2,0,0,0,358.79,29.18Z"/><rect class="cls-2" x="415.58" y="65.4" width="39.5" height="39.5" rx="5.12"/><circle class="cls-3" cx="435.33" cy="85.15" r="11.31"/><line class="cls-3" x1="427.69" y1="77.16" x2="443.66" y2="93.13"/><path class="cls-2" d="M153.69,95.91l8.2-8.49H288a10.69,10.69,0,0,0,10.69-10.68V11.18A10.69,10.69,0,0,0,288,.5H161.32a10.68,10.68,0,0,0-10.68,10.68v83.5A1.77,1.77,0,0,0,153.69,95.91Z"/><path class="cls-4" d="M201.32,58.11H195.9v9.54H182.76V58.11H163.11V48.34L183.6,18.39h12.3V48.17h5.42Zm-18.56-9.94V42.45c0-1.08,0-2.53.11-4.37a26.15,26.15,0,0,1,.19-2.88h-.37a35.09,35.09,0,0,1-2.6,4.86l-5.45,8.11Z"/><path class="cls-4" d="M242.37,43.09q0,13.06-4.38,19.15t-13.41,6.08q-8.84,0-13.31-6.35t-4.48-18.88q0-13.14,4.38-19.27t13.41-6.14q8.79,0,13.29,6.39T242.37,43.09Zm-22.34,0q0,8.35,1.05,11.49t3.5,3.13q2.49,0,3.52-3.23t1-11.39q0-8.19-1-11.47t-3.5-3.29q-2.46,0-3.5,3.17T220,43.09Z"/><path class="cls-4" d="M286.18,58.11h-5.42v9.54H267.62V58.11H248V48.34l20.49-29.95h12.3V48.17h5.42Zm-18.56-9.94V42.45c0-1.08,0-2.53.11-4.37a26.15,26.15,0,0,1,.19-2.88h-.37a36.2,36.2,0,0,1-2.6,4.86l-5.45,8.11Z"/><rect class="cls-2" x="0.5" y="180.41" width="39.5" height="39.5" rx="5.12"/><path class="cls-5" d="M7.52,211.25a1.26,1.26,0,0,0,.47.08H32.51a1.42,1.42,0,0,0,1.24-.72,1.43,1.43,0,0,0,0-1.43L21.5,188A1.44,1.44,0,0,0,19,188L6.75,209.18a1.43,1.43,0,0,0,0,1.44A1.41,1.41,0,0,0,7.52,211.25Zm24.31-1.74H8.67l11.59-20.06Z"/><path class="cls-5" d="M20.25,205.29h0a.86.86,0,0,0,.87-.82l.5-8.36a1.36,1.36,0,0,0-1.36-1.42h0a1.35,1.35,0,0,0-1.36,1.42l.49,8.35A.86.86,0,0,0,20.25,205.29Z"/><path class="cls-5" d="M19.37,207.31a.89.89,0,1,0,.88-.88A.87.87,0,0,0,19.37,207.31Z"/><path class="cls-6" d="M537.49,149.33a2.23,2.23,0,1,0,2.23-2.23A2.22,2.22,0,0,0,537.49,149.33Z"/><path class="cls-6" d="M163.11,268.14a2.23,2.23,0,1,0,2.23-2.23A2.23,2.23,0,0,0,163.11,268.14Z"/><path class="cls-6" d="M10,85.15a2.23,2.23,0,1,0,2.23-2.23A2.23,2.23,0,0,0,10,85.15Z"/><path class="cls-6" d="M130.27,16.23A2.23,2.23,0,1,0,132.5,14,2.23,2.23,0,0,0,130.27,16.23Z"/><line class="cls-6" x1="14.45" y1="158.03" x2="14.45" y2="164.93"/><line class="cls-6" x1="11" y1="161.48" x2="17.9" y2="161.48"/><line class="cls-6" x1="194.83" y1="290.96" x2="194.83" y2="297.86"/><line class="cls-6" x1="191.38" y1="294.41" x2="198.28" y2="294.41"/><line class="cls-6" x1="340.77" y1="3.5" x2="340.77" y2="10.4"/><line class="cls-6" x1="337.32" y1="6.95" x2="344.22" y2="6.95"/><line class="cls-6" x1="495.24" y1="70.2" x2="495.24" y2="77.1"/><line class="cls-6" x1="491.79" y1="73.65" x2="498.69" y2="73.65"/><line class="cls-6" x1="506.47" y1="229.07" x2="506.47" y2="235.97"/><line class="cls-6" x1="503.02" y1="232.52" x2="509.92" y2="232.52"/><line class="cls-6" x1="115.32" y1="42.57" x2="115.32" y2="49.47"/><line class="cls-6" x1="111.87" y1="46.02" x2="118.77" y2="46.02"/><path class="cls-1" d="M455.13,189.78h69a2.17,2.17,0,0,0,2.18-2.18h0a2.17,2.17,0,0,0-2.18-2.18h-69a2.18,2.18,0,0,0-2.19,2.18h0A2.18,2.18,0,0,0,455.13,189.78Z"/><path class="cls-1" d="M48.57,134.64h69.05a2.18,2.18,0,0,0,2.18-2.18h0a2.18,2.18,0,0,0-2.18-2.18H48.57a2.18,2.18,0,0,0-2.19,2.18h0A2.18,2.18,0,0,0,48.57,134.64Z"/><path class="cls-5" d="M38.46,149.33H64a1.09,1.09,0,0,0,1.09-1.1h0A1.09,1.09,0,0,0,64,147.14H38.46a1.09,1.09,0,0,0-1.09,1.09h0A1.09,1.09,0,0,0,38.46,149.33Z"/><path class="cls-5" d="M106,97.29h25.53a1.09,1.09,0,0,0,1.09-1.09h0a1.09,1.09,0,0,0-1.09-1.09H106a1.09,1.09,0,0,0-1.09,1.09h0A1.09,1.09,0,0,0,106,97.29Z"/><path class="cls-5" d="M480.79,170.48h19.53a1.09,1.09,0,0,0,1.09-1.09h0a1.09,1.09,0,0,0-1.09-1.09H480.79a1.09,1.09,0,0,0-1.09,1.09h0A1.09,1.09,0,0,0,480.79,170.48Z"/><rect class="cls-2" x="61.84" y="45.57" width="28.54" height="28.54" rx="3.7"/><path class="cls-5" d="M72.07,58.63l.5,2.45H69.84v2.18H73l.81,4.29h2.33l-.83-4.29h3l.81,4.29h2.27l-.78-4.29H83.1V61.08H80.18l-.5-2.45h2.66V56.42h-3l-.82-4.3H76.16l.81,4.3h-3l-.82-4.3H70.83l.83,4.3H69.12v2.21Zm5.81,2.45h-3l-.5-2.45h3Z"/><path class="cls-7" d="M316.43,271.54l20.05-131.49h90.3L405.13,279.39a18.88,18.88,0,0,1-19.05,16.09H234.25l-1.12-12.77h70.12A13.07,13.07,0,0,0,316.43,271.54Z"/><path class="cls-8" d="M401.89,271.54,421.2,144.92a5.7,5.7,0,0,1,5.75-4.87h.18A7,7,0,0,1,434,147.9L413.56,279.39a18.89,18.89,0,0,1-19.06,16.09H296.71l-1.12-12.77h93.12A13.05,13.05,0,0,0,401.89,271.54Z"/><line class="cls-9" x1="340.77" y1="295.48" x2="340.77" y2="367.25"/><path class="cls-9" d="M381,373.59h0a6.34,6.34,0,0,0-6.35-6.34H306.87a6.34,6.34,0,0,0-6.34,6.34h0"/><path class="cls-9" d="M347.71,373.59h0a6.34,6.34,0,0,0-6.34-6.34"/><path class="cls-8" d="M374.6,380a6.41,6.41,0,1,0,6.41-6.4A6.41,6.41,0,0,0,374.6,380Z"/><g class="cls-10"><path class="cls-11" d="M378.65,380a2.36,2.36,0,1,0,2.36-2.35A2.36,2.36,0,0,0,378.65,380Z"/></g><path class="cls-8" d="M341.3,380a6.41,6.41,0,1,0,6.41-6.4A6.41,6.41,0,0,0,341.3,380Z"/><g class="cls-10"><path class="cls-11" d="M345.35,380a2.36,2.36,0,1,0,2.36-2.35A2.36,2.36,0,0,0,345.35,380Z"/></g><path class="cls-8" d="M294.13,380a6.4,6.4,0,1,0,6.4-6.4A6.41,6.41,0,0,0,294.13,380Z"/><g class="cls-10"><path class="cls-11" d="M298.18,380a2.35,2.35,0,1,0,2.35-2.35A2.36,2.36,0,0,0,298.18,380Z"/></g><path class="cls-12" d="M270.19,154.16,247.31,120l-7.09,1.48c5.41,18.25,9,25.47,9,25.47"/><path class="cls-12" d="M243.86,127.11l-3.64-5.66s-6.79-1.57-9.26-2.82a10.23,10.23,0,0,1-4.8-5.38c-.53-1.45-.3-5.69.32-5.76,1.46-.16,4.37,5.28,5.73,5.6s5.79,0,8.22.31a8,8,0,0,1,5.82,4.37l3.74,6.78"/><polyline class="cls-13" points="255.24 129.98 251.22 124.16 240.82 128.82 244.12 137.67"/><path class="cls-14" d="M338.74,117.79s-16.95-7.79-31.88,5.49-25,25.61-30.5,29.6L253.87,127l-12.56,5.89c3.31,18.74,12.61,48.61,35.35,51.69,24.61,3.33,60.7-27,60.7-27"/><line class="cls-15" x1="283.66" y1="161.48" x2="276.36" y2="152.88"/><path class="cls-16" d="M247.7,375.58l1.9,7.31a2.8,2.8,0,0,1-2.71,3.51H224.75a2.41,2.41,0,0,1-2.41-2.42h0a2.41,2.41,0,0,1,1.68-2.29l15.13-6.11"/><path class="cls-12" d="M260.47,261.44C264,298.59,247.7,375.58,247.7,375.58s-3.87,4.68-8.55,0c0,0-3.92-73.4-8.06-106.41"/><path class="cls-17" d="M313.28,217.93l-25.41,13.32v.26s-51.85-3.48-59.69,15c-12.28,29-14.37,123.27-14.37,123.27h37.95s14.12-79.19,18.95-84,24.74-4.47,61.36-4.47c41.13,0,21.05-53,5.74-57.58"/><path class="cls-18" d="M249.13,369.81s11.28-81.71,19.57-87.71c10.12-7.31,57.91-2.53,57.91-2.53"/><path class="cls-16" d="M327.28,375.58l1.9,7.31a2.8,2.8,0,0,1-2.71,3.51H304.33a2.41,2.41,0,0,1-2.41-2.42h0a2.41,2.41,0,0,1,1.68-2.29l15.13-6.11"/><path class="cls-12" d="M323.6,261.44c3.53,37.15,3.68,114.14,3.68,114.14s-3.87,4.68-8.55,0c0,0-13.32-73.4-17.46-106.41"/><path class="cls-19" d="M358.1,229.59s-66.65,1.08-75.37,21.27c-10.73,24.84,6.95,119,6.95,119h40.17v-84.2a3,3,0,0,1,2.91-3.05c5.57.15,18,.15,33.74.15,41.13,0,21.05-64,5.74-68.56"/><path class="cls-18" d="M358.1,229.59s-66.65,1.08-75.37,21.27c-2.91,6.73-4.42,18.19-3.64,31.85"/><path class="cls-20" d="M324.25,369.81s-.4-84.52,1.54-89c2.69-6.27,11.9-3.19,33.27-3.19,41.13,0,24.37-58.88,9.06-63.43"/><path class="cls-20" d="M383.7,239.88s-21.11.51-24.31-2.68,0-17.71,0-17.71"/><path class="cls-21" d="M384.22,242.72s-24.11.51-27.76-2.7,0-17.72,0-17.72"/><path class="cls-14" d="M388.29,141.61s5.06,89.9-2.6,89.9-92.82-.26-97.82-.26,6.69-76.88,23.51-93.12c0,0,24.95-27.07,35.95-24.48S388.29,141.61,388.29,141.61Z"/><line class="cls-15" x1="293.28" y1="182.5" x2="303.85" y2="139.15"/><path class="cls-12" d="M431.38,157.89l22.88-34.19,7.09,1.48c-5.41,18.25-9,25.47-9,25.47"/><path class="cls-12" d="M457.71,130.84l3.64-5.66s6.8-1.57,9.26-2.83a10.21,10.21,0,0,0,4.8-5.37c.53-1.45.3-5.7-.32-5.76-1.46-.16-4.37,5.28-5.73,5.6s-5.79,0-8.22.3a8,8,0,0,0-5.82,4.38l-3.74,6.78"/><polyline class="cls-13" points="446.33 133.71 450.35 127.89 460.75 132.55 457.45 141.4"/><path class="cls-14" d="M356.82,118.31s16.75-11.91,34,2.72c16.12,13.63,26.86,41.14,30.47,41.14,2.5,0,18-19.78,27.26-31.89l11,5.89c-6.94,21.19-22.07,57.24-44.72,57.24-17.76,0-54.24-41.61-54.24-41.61"/><line class="cls-15" x1="389.75" y1="180.1" x2="362.76" y2="157.59"/><polyline class="cls-22" points="355.21 120.43 339.11 137.67 337.01 117.74"/><path class="cls-12" d="M342.28,103,337.76,113s-1.83,5.68,5.72,8.26a12.6,12.6,0,0,0,13.34-2.9L358,102.74"/><path class="cls-23" d="M357.26,112.64s-6,7.46-13.78,8.57l5.68,8.42C353.76,127,359.39,117,359.39,117Z"/><path class="cls-23" d="M338.23,111.58a20.18,20.18,0,0,0,5.25,9.63L337,126.1c-1.49-3.66-1.32-9.36-1.32-9.36Z"/><path class="cls-12" d="M335.58,87s-4.28,16.37,2.14,20.5,17.57-2.15,18.22-4.21,3.56-19.52-.63-20.83C347.87,80.13,337.76,80,335.58,87Z"/><path class="cls-16" d="M335.71,92.31a.84.84,0,1,0,1.63.38.83.83,0,0,0-.62-1A.85.85,0,0,0,335.71,92.31Z"/><path class="cls-16" d="M337.14,87.44c-.28,0-1.54.17-1.27.79.12.27.56.27.8.25a2.14,2.14,0,0,1,.76,0,.87.87,0,0,0-.16.26c-.08.18.54.2.61.2a3.42,3.42,0,0,1,2.11.39A2.78,2.78,0,0,0,337.14,87.44Z"/><path class="cls-16" d="M346,94.58a.84.84,0,1,1-.79-.88A.84.84,0,0,1,346,94.58Z"/><path class="cls-16" d="M348.47,91.27c.6.33,1.1.77,1,1.27s-.5.29-.75.1a4.36,4.36,0,0,0-1.36-.73.94.94,0,0,1,.33.75,3.56,3.56,0,0,1-3.09-3.06,5.6,5.6,0,0,0,1.17.81C346.62,90.81,347.59,90.8,348.47,91.27Z"/><path class="cls-24" d="M339.87,93.29s-2.28,5.74-1.46,6.24,3.67.43,3.67.43"/><path class="cls-24" d="M339.78,108.45a13.09,13.09,0,0,0,12.21-2"/><path class="cls-24" d="M343.48,104.61s-.58-2.53-4.74-2.53"/><path class="cls-16" d="M332,78.22a3.48,3.48,0,0,1,.72-2.17,3.37,3.37,0,0,1,2.49-.79A15.05,15.05,0,0,1,344,78.07l-2.09-1.82c-.55-.48-1.79-1.24-1.19-2.13s2-.34,2.77-.35c3.58,0,7,1.23,10.33,2.49a27.08,27.08,0,0,1,4.73,2.19A9,9,0,0,1,362,82.24a10.81,10.81,0,0,1,.74,4.48,54.86,54.86,0,0,1-.88,8.17c-.47,3-1.18,8.78-5.15,9.13a3.21,3.21,0,0,1-2.23-.34,2.79,2.79,0,0,1-.93-2,10.26,10.26,0,0,1,.24-3.7c-.75.41-1.45,1.08-2.28,1a.8.8,0,0,1-.66-.45,1.18,1.18,0,0,1,0-.53c.31-2.83.48-5.64.66-8.48q-6.09-1.29-12.25-2.22c-1.82-.27-3.75-.57-5.16-1.75C332.08,83.81,331.74,80.84,332,78.22Z"/><path class="cls-12" d="M352.93,99.07c.68-1.67,1.86-3.67,3.7-2.54a3.65,3.65,0,0,1,1.27,2.08c.84,2.74-1.13,7-3.82,6.59-1.32-.19-2.05-1.75-2.58-3"/><path class="cls-25" d="M107.78,277.72a33.15,33.15,0,0,0-10.29-23.87A32.74,32.74,0,0,0,86.36,247c-2.32-.86-13.45-1.7-13.45-1.7s1.3,8.49,3.51,12.77c5.17,10,15.39,18.37,31.36,19.65"/><path class="cls-26" d="M75.05,303.06a27.08,27.08,0,0,0-34.52-6.34c-.18.1-.38.23-.43.43a.81.81,0,0,0,.28.65,25.17,25.17,0,0,0,20.92,8.14,90.79,90.79,0,0,0,13.75-2.88"/><path class="cls-25" d="M66.11,289.52c0-7.77-2.59-14.74-7.15-19.3a21.44,21.44,0,0,0-18-5.86.93.93,0,0,0-.66.28,1.22,1.22,0,0,0-.21.89c.39,9.35,5.08,17.09,12.23,20.2a71.38,71.38,0,0,0,13.78,3.79"/><path class="cls-26" d="M54.05,275.62A65.73,65.73,0,0,0,43,262.16,27.72,27.72,0,0,0,37.35,258c-6.69-3.6-14.94-2.48-22.13-.05,2.86,5.43,6.59,10.75,12.08,13.5A33,33,0,0,0,35,273.87c5.26,1.17,13.67,1.06,19,1.75"/><path class="cls-25" d="M57.88,262.66c13.38-7,15.36-21.63,15.69-27,.22-3.39,0-7.16-2.83-9.6-16.58,5.84-20.81,17.06-12.86,36.64"/><path class="cls-25" d="M115.54,260.55c-1-7.12-2-14.77,1.25-21.2a25.48,25.48,0,0,1,4.61-6.18c4.35-4.48,10-8.18,16.29-8.19a28.48,28.48,0,0,1-19.34,31.82"/><path class="cls-26" d="M76.62,307.12a28.91,28.91,0,0,0,17.65-38.26c-.14-.32-.31-.68-.64-.79a1.25,1.25,0,0,0-.94.23c-11.54,6.64-19.44,25.94-16.07,38.82"/><path class="cls-26" d="M108,267.79a28.29,28.29,0,0,0-13-34c-2.35-1.3-4.9-2.28-7-4a66.32,66.32,0,0,0-1.42,9.51,28,28,0,0,0,.61,9.45c2.17,7.91,9.46,13.28,16.78,17"/><path class="cls-26" d="M117.66,266.59c12,1.46,26.82-3.39,33.24-14.71-20.55-10.45-33.24,5.53-33.24,14.71"/><path class="cls-26" d="M110.65,293.41c2.69-9.23,9.79-16.8,18.33-19.57a26.23,26.23,0,0,1,25.2,5.47,1.3,1.3,0,0,1,.57,1,1.37,1.37,0,0,1-.28.64c-4.6,6.64-11.92,10.56-19.42,12.21s-15.23,1.26-22.86.69"/><path class="cls-27" d="M125.9,244A49,49,0,0,0,115,260a129.92,129.92,0,0,0-6.66,19.78c-3.8,14.4-5.91,29.21-7.43,44-.87,8.42-1.65,16.88-2,25.34,0,.28.39.27.42,0,.85-7.4,1.35-14.85,2.07-22.26s1.56-14.89,2.69-22.3c1.1-7.25,2.46-14.47,4.2-21.6a155,155,0,0,1,6.22-20.23c2.7-6.82,6.34-13.39,11.61-18.57.13-.13-.07-.33-.2-.21Z"/><path class="cls-27" d="M104.43,301.4a35,35,0,0,1,6.69-7.38,43.4,43.4,0,0,1,8.58-5.28,73.73,73.73,0,0,1,20.69-6.55,111.84,111.84,0,0,1,12.4-1,.18.18,0,0,0,0-.36,51.47,51.47,0,0,0-11,.52,72.22,72.22,0,0,0-11,2.38,73.12,73.12,0,0,0-10.4,4,48.08,48.08,0,0,0-9,5.26,30.16,30.16,0,0,0-7.45,8.19c-.17.27.25.5.43.25Z"/><path class="cls-27" d="M107.86,283.6c.32-2.89.46-5.81.56-8.72a65.17,65.17,0,0,0-.19-8.27,44.23,44.23,0,0,0-4-14.83,26.5,26.5,0,0,0-4.63-7.13c-.13-.14-.38,0-.27.2a51.05,51.05,0,0,1,4,6.37,40.69,40.69,0,0,1,2.76,7.17,45.44,45.44,0,0,1,1.56,7.66,63.12,63.12,0,0,1,.3,8c0,3.18-.29,6.36-.27,9.53a.11.11,0,1,0,.22,0Z"/><path class="cls-27" d="M135.53,255.64c-3.59.26-6.92,2.16-9.82,4.14a91.58,91.58,0,0,0-10.11,8.32c-1.7,1.55-3.44,3.09-5.06,4.72-.15.15.07.36.22.23,1.52-1.24,2.92-2.63,4.36-4s3.13-2.89,4.74-4.29a51.31,51.31,0,0,1,10.08-7.24,16,16,0,0,1,5.59-1.82.05.05,0,0,0,0-.1Z"/><path class="cls-27" d="M81.68,324.68A66.59,66.59,0,0,0,77.23,308a80.49,80.49,0,0,0-8-15.28,82.68,82.68,0,0,0-24.66-24,77.38,77.38,0,0,0-8.59-4.66,54.83,54.83,0,0,0-9.07-3.42.24.24,0,0,0-.13.47c2.73,1,5.47,2,8.13,3.17a75.58,75.58,0,0,1,7.64,3.95,80.72,80.72,0,0,1,13.73,10.23,82.37,82.37,0,0,1,19.68,27.72,87,87,0,0,1,5.4,18.52c0,.2.39.16.37-.05Z"/><path class="cls-27" d="M64.7,237.14c-5.7,11.19-9,24.52-6.43,37a31.7,31.7,0,0,0,3.82,10.27c.17.29.59,0,.45-.27a40.27,40.27,0,0,1-4.38-18.66,60.51,60.51,0,0,1,3.14-18.76,73.79,73.79,0,0,1,3.75-9.39c.12-.24-.23-.45-.35-.21Z"/><path class="cls-5" d="M55.9,315v11.72c0,46.45,12.23,59.67,12.23,59.67H106s12.23-13.22,12.23-59.67V315Z"/><line class="cls-28" x1="462.58" y1="386.4" x2="430.46" y2="232.41"/><line class="cls-28" x1="398.35" y1="386.4" x2="430.46" y2="232.41"/><line class="cls-28" x1="138.21" y1="386.4" x2="106.09" y2="232.41"/><line class="cls-28" x1="73.97" y1="386.4" x2="106.09" y2="232.41"/><rect class="cls-29" x="77.92" y="223.19" width="383.62" height="9.21" transform="translate(539.46 455.6) rotate(180)"/><path class="cls-7" d="M96.41,205.63H232a3.88,3.88,0,0,0,3.83-4.56l-15.58-87.62a5.8,5.8,0,0,0-5.72-4.79H78.93a3.88,3.88,0,0,0-3.83,4.56l15.58,87.62A5.82,5.82,0,0,0,96.41,205.63Z"/><path class="cls-5" d="M93.26,205.63H228.82a3.88,3.88,0,0,0,3.83-4.56l-15.58-87.62a5.8,5.8,0,0,0-5.72-4.79H75.78A3.88,3.88,0,0,0,72,113.22l15.58,87.62A5.82,5.82,0,0,0,93.26,205.63Z"/><path class="cls-30" d="M118.2,205.63h78.3a2.25,2.25,0,0,0,2.21-2.63l-9-50.61a3.36,3.36,0,0,0-3.31-2.77H108.11a2.24,2.24,0,0,0-2.21,2.64l9,50.6A3.36,3.36,0,0,0,118.2,205.63Z"/><path class="cls-29" d="M116.32,205.63h78.3a2.24,2.24,0,0,0,2.21-2.63l-9-50.61a3.37,3.37,0,0,0-3.31-2.77h-78.3a2.25,2.25,0,0,0-2.21,2.64l9,50.6A3.35,3.35,0,0,0,116.32,205.63Z"/><rect class="cls-11" x="133.68" y="175.87" width="31.78" height="29.76" transform="translate(299.14 381.51) rotate(180)"/><path class="cls-7" d="M135.5,175.87h30v8.55l-8.18,33.94h-31.8Zm7.69,33.44c3.56,0,7.33-4.16,8.41-9.28s-.93-9.28-4.49-9.28-7.32,4.16-8.41,9.28S139.63,209.31,143.19,209.31Z"/><path class="cls-7" d="M183,218.36H111.8v4.83h76A4.84,4.84,0,0,0,183,218.36Z"/><rect class="cls-5" x="111.8" y="218.36" width="56.91" height="4.83" transform="translate(280.5 441.56) rotate(180)"/><path class="cls-5" d="M133.66,175.87h31.8l-10,42.49h-31.8Zm7.8,33.44c3.57,0,7.33-4.16,8.41-9.28s-.92-9.28-4.48-9.28-7.33,4.16-8.41,9.28S137.9,209.31,141.46,209.31Z"/><g class="cls-31"><polygon class="cls-11" points="207.91 117.28 209.79 127.88 207.91 127.88 206.03 117.28 207.91 117.28"/><polygon class="cls-11" points="202.46 117.28 204.34 127.88 202.46 127.88 200.58 117.28 202.46 117.28"/><polygon class="cls-11" points="197.01 117.28 198.89 127.88 197.01 127.88 195.13 117.28 197.01 117.28"/><polygon class="cls-11" points="191.56 117.28 193.44 127.88 191.56 127.88 189.68 117.28 191.56 117.28"/><polygon class="cls-11" points="186.11 117.28 187.99 127.88 186.11 127.88 184.23 117.28 186.11 117.28"/></g><g class="cls-31"><polygon class="cls-11" points="136.38 117.28 138.26 127.88 136.38 127.88 134.5 117.28 136.38 117.28"/><polygon class="cls-11" points="130.65 117.28 132.54 127.88 130.65 127.88 128.77 117.28 130.65 117.28"/><polygon class="cls-11" points="124.93 117.28 126.81 127.88 124.93 127.88 123.04 117.28 124.93 117.28"/><polygon class="cls-11" points="119.2 117.28 121.08 127.88 119.2 127.88 117.32 117.28 119.2 117.28"/><polygon class="cls-11" points="113.47 117.28 115.36 127.88 113.47 127.88 111.59 117.28 113.47 117.28"/><polygon class="cls-11" points="107.75 117.28 109.63 127.88 107.75 127.88 105.86 117.28 107.75 117.28"/><polygon class="cls-11" points="102.02 117.28 103.9 127.88 102.02 127.88 100.14 117.28 102.02 117.28"/><polygon class="cls-11" points="96.29 117.28 98.17 127.88 96.29 127.88 94.41 117.28 96.29 117.28"/><polygon class="cls-11" points="90.56 117.28 92.45 127.88 90.56 127.88 88.68 117.28 90.56 117.28"/><polygon class="cls-11" points="84.84 117.28 86.72 127.88 84.84 127.88 82.95 117.28 84.84 117.28"/></g><g class="cls-32"><path class="cls-33" d="M353.48,199.19a2.31,2.31,0,0,1-1.24-.67c-.75-1,.48-2.12,1.28-2.63,1-.66,2.44-.88,2.94-2.14.56-1.43-.41-3-1.58-3.78a16.27,16.27,0,0,0-3.26-1.4,6.25,6.25,0,0,1-3.21-2.37c-.91-1.44-.72-3.31-.84-4.94-.47-6.38-7-9.54-12.49-9.67-2.75-.07-6.94.92-8.77,3a5.43,5.43,0,0,0-1.25,2.5,4.48,4.48,0,0,0,1.22,3.84,42,42,0,0,0,3.27,2.68c1.06,1,.3,2.06.55,3.26s1.16,1.9,2.32,2.54c2.43,1.36,5.3,1.7,8,2.44a6.39,6.39,0,0,1,2.33,1,12.79,12.79,0,0,1,2,2.64,8.31,8.31,0,0,0,5,3.2"/></g><path class="cls-34" d="M338.19,215.25h5.21v-2.48h-5.21a3,3,0,0,1-3-3.05v-4.28a3,3,0,0,1,3-3.05h5.21v-2.48h-5.21a5.54,5.54,0,0,0-5.53,5.53v4.28A5.54,5.54,0,0,0,338.19,215.25Z"/><path class="cls-34" d="M345.62,196.38h8.79a6.12,6.12,0,0,1,6.12,6.12V221.8a0,0,0,0,1,0,0h-21a0,0,0,0,1,0,0V202.51A6.12,6.12,0,0,1,345.62,196.38Z" transform="translate(700.03 418.18) rotate(180)"/><path class="cls-29" d="M363.94,218.25s-.21,4.94-7.9,4.94H344c-7.69,0-7.9-4.94-7.9-4.94Z"/><rect class="cls-7" x="194.9" y="221.22" width="111.28" height="1.98"/><rect class="cls-7" x="294.4" y="219.62" width="7.97" height="1.59"/><rect class="cls-7" x="282.33" y="219.62" width="7.97" height="1.59"/><rect class="cls-7" x="270.26" y="219.62" width="7.97" height="1.59"/><rect class="cls-7" x="258.19" y="219.62" width="7.97" height="1.59"/><rect class="cls-7" x="246.12" y="219.62" width="7.97" height="1.59"/><rect class="cls-7" x="234.04" y="219.62" width="7.97" height="1.59"/><rect class="cls-7" x="221.97" y="219.62" width="7.97" height="1.59"/><rect class="cls-7" x="209.9" y="219.62" width="7.97" height="1.59"/><rect class="cls-7" x="197.83" y="219.62" width="7.97" height="1.59"/><rect class="cls-5" x="193.44" y="221.22" width="111.28" height="1.98"/><rect class="cls-5" x="292.94" y="219.62" width="7.97" height="1.59"/><rect class="cls-5" x="280.87" y="219.62" width="7.97" height="1.59"/><rect class="cls-5" x="268.8" y="219.62" width="7.97" height="1.59"/><rect class="cls-5" x="256.73" y="219.62" width="7.97" height="1.59"/><rect class="cls-5" x="244.66" y="219.62" width="7.97" height="1.59"/><rect class="cls-5" x="232.59" y="219.62" width="7.97" height="1.59"/><rect class="cls-5" x="220.52" y="219.62" width="7.97" height="1.59"/><rect class="cls-5" x="208.45" y="219.62" width="7.97" height="1.59"/><rect class="cls-5" x="196.37" y="219.62" width="7.97" height="1.59"/><path class="cls-25" d="M463.07,297.84a24.27,24.27,0,0,1,13.66-28.12c2.1-.94,4.36-1.59,6.27-2.89a54.17,54.17,0,0,1,.51,8.25,23.75,23.75,0,0,1-1.22,8c-2.44,6.61-9.07,10.67-15.61,13.29"/><path class="cls-27" d="M462.5,315.56c.46-4.86.25-9.77.62-14.64a38.8,38.8,0,0,1,1-6.69,38.1,38.1,0,0,1,2.86-7.65,40.41,40.41,0,0,1,5.26-7.69.17.17,0,0,0-.24-.24,23.75,23.75,0,0,0-5,6.61A38.9,38.9,0,0,0,463.8,293c-1.34,4.58-1.41,9.52-1.5,14.26-.05,2.76-.1,5.54,0,8.31,0,.15.21.14.23,0Z"/><path class="cls-25" d="M478.62,332.33a28,28,0,0,1,21.59-23.84c2.07-.47,11.65,0,11.65,0s-2,7.1-4.39,10.5c-5.49,7.94-15.11,14-28.85,13.32"/><path class="cls-26" d="M487,307.89a53.07,53.07,0,0,1,2.5-13.52,22,22,0,0,1,2.21-5c3.16-5,9.07-7.37,14.76-8.4.07,4.84-.48,9.94-3.14,13.92a25.75,25.75,0,0,1-4.28,4.63c-3.08,2.8-8.74,5.9-12.05,8.4"/><path class="cls-26" d="M454.68,291.16c.89-6.12,1.72-12.69-1.07-18.21a21.52,21.52,0,0,0-4-5.3c-3.74-3.85-8.63-7-14-7a24.66,24.66,0,0,0,3.22,16.76c3,5,10.27,12,15.8,13.79"/><path class="cls-26" d="M464.51,326.7A21.35,21.35,0,0,1,439,308.83a.86.86,0,0,1,.12-.74.88.88,0,0,1,.68-.2c9.83-.05,22,9.34,24.67,18.81"/><path class="cls-26" d="M484.74,304.58c-8.1-4.56-13.31-13.69-13.46-23.62,5.85-.32,10.25,3.28,12.8,6.38,3.54,4.32,3.84,11.9.66,17.24"/><path class="cls-26" d="M478.85,320.61a17.89,17.89,0,0,0-16.51-24.56.77.77,0,0,0-.66.22.66.66,0,0,0-.1.41c-.23,5,2,9.83,5.1,13.7s7.18,6.89,11.24,9.78"/><path class="cls-27" d="M445.6,277.13a44,44,0,0,1,9.21,14.16,115.51,115.51,0,0,1,5.53,17,252.56,252.56,0,0,1,6.23,37.57c.72,7.12,1.17,14.28,2,21.38,0,.27.44.29.43,0-.24-6.46-.83-12.94-1.46-19.38s-1.36-12.64-2.32-18.92-2.17-12.74-3.74-19A122.63,122.63,0,0,0,456,292.61c-2.41-5.81-5.57-11.36-10.21-15.68a.14.14,0,0,0-.2.2Z"/><path class="cls-27" d="M479.34,329.24a13.12,13.12,0,0,0,.21-3.43,34.9,34.9,0,0,0-.3-3.82,32.44,32.44,0,0,0-.67-3.67,9.64,9.64,0,0,0-1.13-3.23c-.09-.13-.37-.1-.35.09a30.58,30.58,0,0,0,.81,3.13q.43,1.81.69,3.66a36.48,36.48,0,0,1,.32,3.75c0,1.15-.07,2.3-.06,3.46a.24.24,0,0,0,.48.06Z"/><path class="cls-27" d="M478.12,287.9a19.09,19.09,0,0,1,4.69,8.29,31.87,31.87,0,0,1,.55,17.69.16.16,0,0,0,.31.08,25.72,25.72,0,0,0,.8-11.67,29.51,29.51,0,0,0-3.19-10.45,14.59,14.59,0,0,0-3.09-4,.05.05,0,0,0-.07.08Z"/><path class="cls-27" d="M476.21,357.36c.24-4.23.36-8.45.79-12.67a127.56,127.56,0,0,1,2.07-13.32A91.48,91.48,0,0,1,488.16,306a68.9,68.9,0,0,1,4-6.38c1.48-2.07,3.14-4,4.74-5.95.19-.24-.11-.56-.34-.34a36.44,36.44,0,0,0-4.29,5.06,64,64,0,0,0-3.72,5.65,78,78,0,0,0-5.77,12.27,111.67,111.67,0,0,0-6.12,26.52,99.14,99.14,0,0,0-.83,14.51.19.19,0,0,0,.38,0Z"/><path class="cls-5" d="M442.74,337.7v8c0,31.69,10.51,40.71,10.51,40.71h32.53s10.51-9,10.51-40.71v-8Z"/><line class="cls-35" x1="514.15" y1="386.4" x2="3.71" y2="386.4"/></svg>