<svg id="abstract" xmlns="http://www.w3.org/2000/svg" xmlns:xlink="http://www.w3.org/1999/xlink" viewBox="0 0 2548.25519 2000"><defs><style>.cls-1{fill:none;}.cls-2{clip-path:url(#clip-path);}.cls-3{fill:#f5f5f5;opacity:0.1;}</style><clipPath id="clip-path"><rect class="cls-1" width="2548.25519" height="2000"/></clipPath></defs><g class="cls-2"><path class="cls-3" d="M57.2978,922.5562c-.4536,0-.8989-.0019-1.352-.0058-35.2642-.2984-72.0674-16.9195-96.0474-43.3765-19.1592-21.1387-28.4526-46.7739-26.168-72.1836l10.9561.9854c-2.0064,22.3134,6.2905,44.9751,23.3623,63.8105,21.9834,24.2544,55.6992,39.4912,87.9897,39.7647.417.0039.8379.0053,1.2549.0053,48.3809.0015,99.0532-23.6855,154.8692-72.3799,12.7456-11.1196,25.3696-22.979,37.5781-34.4482,31.1636-29.2764,63.3882-59.5498,101.3252-81.1216,72.4936-41.2207,157.7861-46.9541,240.27-52.4985,25.4292-1.7095,51.7241-3.4766,77.0977-6.2666,49.9477-5.4927,215.9052-33.0586,254.3574-157.1773,22.5908-72.9218-9.9053-150.3525-41.1441-202.4677-14.7226-24.5611-31.5932-48.5059-47.9082-71.6626-24.9077-35.3531-50.6635-71.9092-69.622-111.7779-14.7315-30.9785-25.6294-64.4458-36.1685-96.811C708.747-34.0199,690.6108-89.7153,651.0781-133.6576c-83.8291-93.18119-228.0327-94.11529-371.3774-81.24519l-.9834-10.956c63.6225-5.71191,137.809-10.19091,205.644-.0947,76.5117,11.3877,133.7202,39.1713,174.8945,84.93889,41.0923,45.6763,60.4405,105.0928,79.1514,162.55373,10.4311,32.03267,21.2173,65.15627,35.6431,95.49317,18.5566,39.0225,44.038,75.1895,68.6806,110.166,16.4297,23.3193,33.4195,47.4331,48.3506,72.3428,32.3921,54.0381,66.0098,134.5757,42.2163,211.3779-15.1128,48.7837-50.0713,88.4492-103.9048,117.895-55.5908,30.4078-117.5605,42.3213-159.7573,46.961-25.6055,2.8159-52.0185,4.5913-77.562,6.3086-81.2495,5.4609-165.2651,11.1089-235.5703,51.0854-36.7984,20.9238-68.5371,50.7407-99.2315,79.5762-12.2807,11.5376-24.9795,23.4678-37.8779,34.7202C161.4922,897.9791,108.4467,922.5538,57.2978,922.5562Z"/><path class="cls-3" d="M842.3193,2177.6324a231.40951,231.40951,0,0,1-30.73-2.0381l1.459-10.9023c119.7515,16.0205,225.6597-71.166,278.1309-124.5664,28.4204-28.9248,55.166-60.6299,81.0312-91.2911,42.3272-50.1748,86.0952-102.0585,138.6079-143.4882,19.6348-15.4912,40.7261-29.6993,61.1226-43.4395,34.6933-23.3721,70.5674-47.54,99.3721-78.2558,57.0156-60.8028,83.8418-143.4688,109.7841-223.4131,4.2984-13.2471,8.7437-26.9453,13.2422-40.2744,19.3277-57.2657,39.2432-100.8956,62.6753-137.3096,30.3853-47.2178,65.4419-80.0352,107.1734-100.3262,36.3359-17.667,76.6084-24.6289,115.5542-31.3613,21.3623-3.6934,43.4521-7.5117,64.5214-13.0498,55.4112-14.5664,117.7539-51.3936,126.5454-111.0674,5.5455-37.6338-13.0068-80.458-48.416-111.7632-32.7363-28.9429-74.0122-46.0503-113.9292-62.5942-274.6757-113.8443-542.3423-210.1177-797.2851-138.6939-50.8013,14.2315-100.731,35.3428-149.0161,55.7588-73.0635,30.8931-148.6143,62.8374-228.8394,71.6563-45.6377,5.0166-92.6142,2.5044-138.0454.0761-68.1328-3.6421-138.5854-7.4082-203.105,14.9605-53.478,18.542-99.8086,54.0825-144.6142,88.4521-20.8775,16.0157-42.4654,32.5762-64.6368,47.3428-27.2402,18.1436-70.0087,41.8066-119.0669,51.5059-46.8198,9.2597-88.1611,3.6582-122.8759-16.6426l5.5527-9.4961c88.1719,51.5635,198.5606-13.3867,230.2925-34.5225,21.8652-14.5625,43.3052-31.0097,64.0395-46.915,45.4991-34.9024,92.5469-70.9932,147.7056-90.1177,66.5571-23.0757,138.103-19.25,207.2959-15.5517,44.9893,2.4052,91.5117,4.8925,136.2559-.0264,78.6254-8.6426,153.4228-40.2686,225.7573-70.853,48.602-20.5503,98.8589-41.7998,150.333-56.2198,120.6865-33.8105,253.8833-33.2363,407.1997,1.7525,135.1694,30.8486,270.3696,84.7778,397.2646,137.3716,40.7515,16.8901,82.8902,34.3554,117.0035,64.5151,17.7475,15.6904,32.021,34.6235,41.2778,54.7524,10.1992,22.1788,13.9116,45.2959,10.7349,66.8555-9.5728,64.9736-75.8233,104.6426-134.6319,120.1025-21.5263,5.6583-43.8525,9.5176-65.4438,13.25-38.1914,6.6026-77.6831,13.4288-112.6182,30.4151-92.416,44.9355-137.9931,153.5049-164.2358,231.2607-4.4785,13.2686-8.9136,26.9356-13.2022,40.1524-26.3154,81.0937-53.5263,164.9472-112.2231,227.542-29.6533,31.6211-66.0508,56.1416-101.25,79.8545-20.228,13.6269-41.145,27.7177-60.4551,42.9521-51.6377,40.7393-95.04,92.1895-137.0132,141.9453-25.998,30.8184-52.8804,62.6856-81.5932,91.9072-42.1397,42.8868-86.2881,75.9014-131.2183,98.129C925.2251,2167.0279,883.146,2177.6314,842.3193,2177.6324Z"/><path class="cls-3" d="M2394.0385,839.8204q-34.81335,0-71.3139-3.3164c-93.771-8.5362-197.3018-33.4107-316.5073-76.0449-40.2403-14.3916-81.085-29.9927-120.5855-45.0801-158.6064-60.5801-322.6123-123.2227-492.9663-125.4492-15.5855-.2046-31.6094.0849-47.1069.3642-53.8999.9741-109.6353,1.9761-160.9497-17.0801-51.6705-19.1875-95.6011-58.1464-127.0425-112.6645-28.2383-48.9634-45.2051-108.9483-47.7749-168.9048-3.8257-89.2456,17.4375-180.9311,63.1992-272.50927,39.9243-79.89693,97.0005-157.28463,169.6431-230.01412,80.2002-80.2964,171.9585-150.1392,260.6953-217.6822,59.0488-44.9458,120.1079-91.4218,177.1567-140.5234l7.1758,8.3369c-57.2993,49.3174-118.4922,95.895-177.6704,140.9395-88.4453,67.3208-179.9014,136.934-259.5747,216.7026C1160.5971-113.1782,1011.3271,70.6158,1020.7812,291.1734c4.5415,105.9507,58.1436,231.061,167.6568,271.7285,49.3647,18.3321,104.0424,17.3457,156.9228,16.3941,15.582-.2808,31.6968-.5689,47.4482-.3653,172.3091,2.2525,337.2437,65.2495,496.7476,126.1724,39.4463,15.0664,80.2358,30.646,120.3648,44.9985,264.0918,94.4532,461.28659,103.9932,620.58539,30.0235l4.6328,9.9765c-46.8706,21.7642-98.26219,36.5557-152.7471,43.9629A656.83069,656.83069,0,0,1,2394.0385,839.8204Z"/><path class="cls-3" d="M1281.8769,2056.1519l-7.3652-8.1699,192.1352-173.2041c47.7022-43.0019,101.7691-91.7412,131.8428-153.1885,21.815-44.5722,30.7129-94.9267,39.3174-143.624,3.478-19.6826,7.0747-40.0361,11.481-59.8232,19.8481-89.128,57.351-148.8223,111.4663-177.4229,36.4838-19.2822,78.1977-22.8271,118.5371-26.2549,35.1308-2.9853,71.4575-6.0713,103.5952-19.6621,59.6865-25.2402,95.4346-79.5039,133.2817-136.9521,22.107-33.5567,44.9658-68.2549,73.0806-96.7119,30.9263-31.3038,70.35692-56.92,117.1958-76.1377,39.6069-16.251,85.5684-28.3428,136.6064-35.9395,248.64989-37.0078,503.18508,34.7149,727.75248,97.9951l-2.9834,10.5879c-223.50388-62.9814-476.82959-134.3686-723.14938-97.7021-108.898,16.208-192.20121,52.8564-247.5967,108.9267-27.3511,27.6846-49.9068,61.9219-71.7197,95.0323-37.083,56.289-75.4288,114.4951-138.1836,141.0322-33.7481,14.2715-70.9605,17.4345-106.9478,20.4922-41.0498,3.4882-79.8232,6.7822-114.3291,25.0185-51.1338,27.0264-86.7534,84.252-105.8686,170.0889-4.354,19.5498-7.9288,39.7812-11.3858,59.3476-8.7378,49.4473-17.7729,100.5782-40.27,146.545-31.0088,63.3564-85.9146,112.8535-134.3574,156.5224Z"/><path class="cls-3" d="M877.5869,2047.0142l-6.8838-1.2715a3.28554,3.28554,0,0,0-1.0703-2.7656,3.5428,3.5428,0,0,0-2.3106-1.1152c-.2431.0234-.4926.0478-.7358.0713l-.9517-6.9287a8.96574,8.96574,0,0,1,1.2906-.1377c87.7622-8.7676,152.1015-66.3506,203.4917-121.5811,17.7949-19.124,35.1372-39.416,51.9087-59.04,37.8706-44.3125,77.0302-90.1338,124.2841-125.9434,18.4937-14.0156,38.4859-26.6924,57.8199-38.9512,34.895-22.1259,70.978-45.0058,98.5385-76.1376,46.4585-52.4776,63.711-119.6231,81.9766-190.711,11.709-45.5703,23.8164-92.6914,44.3618-135.1103a350.09238,350.09238,0,0,1,164.3096-162.5918c8.1684-3.8506,16.8081-7.6045,25.1636-11.2344,40.061-17.4053,81.4853-35.4033,97.0849-73.8106,16.3355-40.2177-5.5283-86.2099-32.7558-111.9228-31.0235-29.2998-73.565-45.1621-111.0992-59.1572-125.4819-46.7867-267.706-99.8155-410.229-79.5454-61.0459,8.6821-120.0898,30.8774-177.1899,52.3413-27.8696,10.4765-56.6885,21.31-85.4732,30.4829a878.22693,878.22693,0,0,1-267.289,41.6318q-22.8801.00075-45.8208-1.1836c-19.2818-.9946-38.9478-2.6421-57.9663-4.2344-59.523-4.9848-121.0718-10.1386-179.3482,4.0127-64.6919,15.7105-121.7573,54.3189-176.9433,91.6568-56.2461,38.0547-114.4063,77.4043-181.1114,93.0732q-3.706.87015-7.456,1.7598c-49.9986,11.8242-106.668,25.2275-154.4121,4.5254l2.7846-6.4219c45.6109,19.7725,101.0782,6.6572,150.0162-4.916q3.75435-.8877,7.4668-1.7617c65.4501-15.375,123.0678-54.3575,178.789-92.0567,55.7002-37.6845,113.2969-76.6528,179.2144-92.6606,59.3808-14.4199,121.5049-9.2178,181.584-4.1865,18.9638,1.5878,38.5732,3.2299,57.7426,4.2192a871.62488,871.62488,0,0,0,310.6241-40.127c28.6137-9.1186,57.3476-19.9204,85.1357-30.3657,57.4526-21.5972,116.8618-43.9292,178.6675-52.7192,63.3657-9.0127,132.0835-4.4556,210.0815,13.9292,66.8819,15.7656,131.7671,39.2124,203.5786,65.9878,38.1568,14.227,81.4048,30.3525,113.46,60.6264a134.45057,134.45057,0,0,1,35.4023,55.524c7.2417,22.5615,6.9068,44.7353-.9677,64.123-16.6748,41.0537-59.4317,59.6309-100.7808,77.5957-8.3071,3.6094-16.8965,7.3408-24.9678,11.1465a341.04312,341.04312,0,0,0-160.9951,159.3105c-20.2397,41.7891-32.2588,88.5655-43.8818,133.8018-17.668,68.7627-35.938,139.8672-83.5152,193.6094-28.2172,31.873-64.7251,55.0215-100.0312,77.4082-19.2129,12.1826-39.0796,24.7793-57.3408,38.6181-46.6509,35.3545-85.5611,80.8829-123.1905,124.9131-16.8188,19.6797-34.2099,40.0283-52.1049,59.2617-50.5308,54.3057-113.4673,110.8575-198.9507,122.7071A9.74637,9.74637,0,0,1,877.5869,2047.0142Z"/><path class="cls-3" d="M679.6211,2054.3902l-.8496-6.9482c97.666-11.9424,198.8676-61.9639,300.7939-148.6729,49.8247-42.3857,96.5034-89.918,141.6455-135.8848,33.5195-34.1328,68.1797-69.4267,103.939-102.4316q7.55115-6.96825,15.2212-13.9365c43.4194-39.6006,88.3169-80.5479,109.684-134.668,12.3272-31.2236,16.1089-65.539,19.7662-98.7236,1.8081-16.4043,3.6772-33.3662,6.5542-49.8623a399.08909,399.08909,0,0,1,111.3066-213.127c7.1406-7.0761,14.8403-14.331,22.2861-21.3467,43.2315-40.7363,87.9351-82.8603,80.8482-137.3935-4.8145-37.0449-36.1231-71.3023-83.7515-91.6382-77.4404-33.0644-171.0391-30.7642-294.5596,7.2388-26.1538,8.0469-52.5981,17.1494-78.1718,25.9531-69.0249,23.7607-140.3999,48.3301-214.2369,55.0225-55.0717,4.9931-111.1645-.0303-165.4096-4.8887-59.7456-5.3525-121.5259-10.8867-181.5816-2.8897-109.5205,14.5782-208.0986,72.6651-303.4316,128.8389-12.4731,7.3496-25.3711,14.9502-38.0425,22.3018-46.0542,26.7197-107.2598,60.2382-172.312,82.4433-66.9443,22.8496-127.5405,30.3955-185.2505,23.0742l.8809-6.9443c124.9702,15.8613,248.6548-43.9902,353.1689-104.6279,12.6509-7.3399,25.5386-14.9336,38.0015-22.2774,95.9341-56.5293,195.1343-114.9824,306.0615-129.748,60.8286-8.0977,123.0029-2.5283,183.1299,2.8564,53.9365,4.8311,109.7095,9.8223,164.1533,4.8907,72.9922-6.6163,143.9595-31.0459,212.5903-54.6709,25.6275-8.8218,52.1275-17.9439,78.3916-26.0245,56.2925-17.3193,105.5777-27.0507,150.6714-29.75,55.5074-3.3222,105.5367,4.3365,148.6958,22.7642,49.9312,21.3189,82.8072,57.645,87.9439,97.1733,3.3906,26.0918-4.0147,51.7764-22.6397,78.5215-16.2099,23.2774-38.6489,44.4209-60.3491,64.8682-7.7558,7.3086-15.0815,14.2109-22.1592,21.2256a392.03086,392.03086,0,0,0-109.3388,209.3574c-2.8384,16.2783-4.6958,33.1299-6.4917,49.4258-3.7076,33.6435-7.5415,68.4316-20.2134,100.5273-21.9629,55.628-67.4693,97.1319-111.4776,137.2696q-7.63545,6.96375-15.1904,13.9091c-35.6333,32.8877-70.2324,68.1192-103.6924,102.1914-45.25,46.0772-92.0405,93.7227-142.104,136.3125-47.6411,40.5284-95.4448,73.4053-142.084,97.7188C787.6196,2030.1783,732.9814,2047.8658,679.6211,2054.3902Z"/><path class="cls-3" d="M459.667,2165.5572l-4.1788-5.6152L792.54,1909.1285c74.2456-55.249,151.0186-112.3799,208.436-187.041,14.233-18.5069,27.6446-38.5625,40.6148-57.9571,32.9639-49.2929,67.0503-100.2646,118.187-131.4775,13.1323-8.0156,27.4917-14.7969,41.3789-21.3555,30.7891-14.54,59.8706-28.2734,78.0488-54.6679,17.7666-25.7979,20.8081-58.7129,23.7495-90.544.6846-7.4062,1.3921-15.0644,2.2745-22.497a394.58508,394.58508,0,0,1,103.0981-221.6407q2.66535-2.8461,5.4106-5.7519c29.4708-31.2637,62.8741-66.6983,50.9112-105.0996-10.4785-33.6368-50.7129-46.5762-73.7637-51.2959-102.687-21.0215-205.8125,16.5127-305.5395,52.8125-95.001,34.58-193.2403,70.3369-292.7666,57.039-9.7847-1.3066-19.7481-3.1064-29.3833-4.8457-28.9522-5.2285-58.8902-10.6357-86.9815-3.1133-15.1172,4.0479-29.3296,11.8155-43.0737,19.3272-12.8071,7-26.0503,14.2373-40.3037,18.71-27.3994,8.5957-56.4019,6.4619-84.4478,4.3974-19.2124-1.416-39.0791-2.8779-58.1655-.8496-54.25,5.7607-101.0352,38.7588-146.2793,70.6709-8.5142,6.0059-17.3184,12.2148-25.9932,18.1113A812.2835,812.2835,0,0,1-50.4082,1321.8668l-1.0869-6.9151a805.24517,805.24517,0,0,0,325.5117-128.6806c8.6245-5.8623,17.4038-12.0547,25.8935-18.042,45.9751-32.4278,93.5156-65.959,149.5747-71.9121,19.7139-2.0928,39.8985-.6075,59.4185.8291,28.6523,2.1103,55.7143,4.0996,81.8384-4.0957,13.5966-4.2657,26.5322-11.336,39.042-18.1729,14.1064-7.709,28.6928-15.6816,44.6206-19.9463,29.6035-7.9267,60.3261-2.3789,90.0361,2.9864,9.5576,1.7255,19.4404,3.5097,29.0664,4.7968,97.8267,13.0664,195.2397-22.3886,289.4448-56.6797,50.2466-18.289,102.2032-37.2011,153.5723-48.497,57.8144-12.7149,108.7656-14.2168,155.7661-4.5948,24.563,5.0293,67.4941,19,79.043,56.0713,5.9165,18.9922,2.5346,38.7569-10.3384,60.4219-10.9839,18.4863-27.5483,36.0576-42.1626,51.5615q-2.7312,2.89755-5.395,5.7354a387.53159,387.53159,0,0,0-101.2564,217.6816c-.8716,7.3408-1.5752,14.9531-2.2553,22.3145-3.024,32.7265-6.1509,66.5674-24.9551,93.8711-19.2481,27.9472-50.5518,42.7304-80.8242,57.0273-13.7207,6.4795-27.9082,13.1797-40.7212,21-49.8218,30.4102-83.4722,80.7305-116.0157,129.3936-13.0332,19.4892-26.5097,39.6425-40.8842,58.334-58.0088,75.4296-135.1778,132.8544-209.8062,188.3886Z"/><path class="cls-3" d="M252.7588,2085.2174l-.9717-6.9317c118.9077-16.6719,233.2427-77.3564,313.6885-166.4912,13.8667-15.3652,27.1279-31.9228,39.9521-47.9355,27.2251-33.9942,55.3765-69.1455,91.1821-95.2803,26.5459-19.376,56.96-33.5166,86.3726-47.1924,36.917-17.165,75.0908-34.9141,104.8359-62.9424,19.8579-18.7119,35.8399-41.9453,51.2954-64.4131,19.3262-28.0957,39.3106-57.1474,67.1695-77.9111,20.686-15.417,45.6777-26.4678,69.8462-37.1543,43.4228-19.2002,84.437-37.3369,100.1826-78.3262,7.893-20.5488,7.2129-43.6367,6.5547-65.9648-.6787-23.0186-1.3799-46.8213,7.0175-68.6817,5.7662-15.0117,15.6236-28.9492,25.1568-42.4277,16.4433-23.25,31.9751-45.2109,25.7617-70.2734-3.249-13.1045-11.5859-23.1289-24.7803-29.7959-21.8159-11.0225-54.415-11.0117-81.1176.0283-31.6895,13.1016-60.5752,34.9121-88.5098,56.0039-42.2183,31.876-85.874,64.8389-139.1748,66.9883-30.9844,1.2422-61.1455-8.4434-90.3194-17.8164-30.5639-9.8203-62.1694-19.9746-93.8764-16.9307-23.9727,2.3008-47.2466,12.1221-69.7539,21.6201-28.4009,11.9854-57.7666,24.3741-89.0332,21.9414-17.9366-1.3974-34.9585-7.6513-51.4199-13.6992-13.5455-4.9765-27.5518-10.1221-41.7774-12.3994-60.9307-9.7471-114.9912,30.3428-167.2725,69.1172-6.916,5.1289-14.0678,10.4336-21.0273,15.4551-113.4282,81.8379-252.8931,126.6972-392.7939,126.2734l.0205-7q.9375.003,1.8755.0029c137.7739,0,275.0693-44.3398,386.8022-124.9531,6.9224-4.9951,14.0552-10.2851,20.9531-15.4014,53.4448-39.6367,108.7022-80.622,172.5489-70.4062,14.8959,2.3848,29.2265,7.6494,43.0849,12.7412,16.0156,5.8838,32.5762,11.9678,49.5498,13.291,29.5669,2.3008,56.8667-9.2168,85.7676-21.4121,22.9927-9.7021,46.7681-19.7353,71.8066-22.1396,33.1421-3.1797,65.4468,7.1972,96.6866,17.2353,28.5922,9.1856,58.1533,18.6836,87.896,17.4863,51.1127-2.0615,91.9765-32.915,135.2392-65.581,28.2861-21.3574,57.5352-43.4414,90.0527-56.8858,28.4766-11.7753,63.4195-11.6972,86.9498.1934,14.8823,7.5195,24.7089,19.4004,28.4169,34.3584,6.9849,28.1738-10.2109,52.4873-26.8408,76-9.2842,13.127-18.8847,26.7022-24.3374,40.8955-7.8935,20.5488-7.2129,43.6377-6.5547,65.9658.6783,23.0186,1.3794,46.8203-7.0175,68.6807-16.7886,43.7051-61.066,63.2842-103.8858,82.2187-23.8144,10.5293-48.4394,21.418-68.4941,36.3653-26.9307,20.0713-46.5816,48.6377-65.5855,76.2646-15.6635,22.7705-31.8608,46.3174-52.2617,65.5401-30.5688,28.8056-69.2642,46.7968-106.6855,64.1963-29.107,13.5332-59.2046,27.5273-85.1968,46.499-35.0518,25.5849-62.9072,60.3662-89.8452,94.001-12.8877,16.0927-26.2144,32.7324-40.2198,48.25a525.10679,525.10679,0,0,1-144.2485,112.0791A525.11036,525.11036,0,0,1,252.7588,2085.2174Z"/><path class="cls-3" d="M20.2949,2065.3414l-5.1519-4.7383c48.4698-52.6914,120.437-68.7334,190.0347-84.248,54.9111-12.2403,111.6919-24.8975,157.6436-55.294,33.8393-22.3848,61.0004-53.9922,87.267-84.5596,17.1026-19.9023,34.7872-40.4824,54.3023-58.5781,44.0771-40.873,98.0054-69.6416,150.1577-97.4629,39.9551-21.3154,81.2705-43.3554,117.8462-70.6787a449.76261,449.76261,0,0,0,140.3667-174.75c6.938-15.3603,12.8003-31.6982,8.751-47.1084-6.1944-23.5742-32.2383-37.5517-77.4073-41.5439a1627.91319,1627.91319,0,0,0-369.145,9.4804c-22.9199,3.2188-49.4052,7.3975-73.6782,16.2862-39.5698,14.4931-73.6953,41.3037-106.6973,67.2324-16.3281,12.8281-33.2124,26.0937-50.6562,37.8174-51.9609,34.9218-113.3096,57.9922-177.4141,66.7158-64.1035,8.7217-129.3872,2.8857-188.79-16.8818l2.2099-6.6426c118.4766,39.4267,256.4551,20.6494,360.0899-49.002,17.228-11.5781,34.0083-24.7617,50.2363-37.5117,33.4312-26.2656,68.001-53.4258,108.6143-68.2998,24.917-9.125,51.8359-13.377,75.1118-16.6455a1634.95594,1634.95594,0,0,1,370.7349-9.5215c48.4223,4.2803,76.5366,20.0049,83.5615,46.7373,4.603,17.5195-1.6734,35.2344-9.1416,51.7686A456.78292,456.78292,0,0,1,776.584,1615.3892c-37.0015,27.6416-78.5552,49.8096-118.7408,71.2471-51.7592,27.6113-105.2807,56.1641-148.6928,96.4199-19.2242,17.8262-36.7774,38.253-53.7525,58.0078-26.5791,30.9297-54.063,62.9141-88.7143,85.835-47.0298,31.1103-104.4517,43.9102-159.9829,56.2891C135.0014,1999.1705,67.2783,2014.2672,20.2949,2065.3414Z"/><path class="cls-3" d="M-69.1314,1954.7261l-5.98-3.6386c12.8848-21.1748,32.8882-38.5117,59.4541-51.5283,21.4532-10.5108,46.7461-18.2168,77.3233-23.5577,11.936-2.0839,24.1933-3.8505,36.0473-5.5595,39.6041-5.708,80.5567-11.6114,115.9136-30.3233,35.7373-18.9131,63.8047-49.876,90.9483-79.8203,10.2636-11.3223,20.8764-23.0303,31.788-33.9687a476.26937,476.26937,0,0,1,229.5274-127.1182c5.0532-1.1553,10.2129-2.249,15.2031-3.3057,19.272-4.083,39.2002-8.3056,56.8838-17.0107,19.314-9.5078,40.792-28.7168,43.1484-54.1182,1.6548-17.8359-6.7939-31.6025-14.1728-40.0117-14.0596-16.0225-36.209-26.4814-57.8047-27.2978-36.3286-1.3643-69.7505,15.6679-106.5561,36.3877q-9.7743,5.50335-19.5528,11.0283c-87.1465,49.1972-177.2593,100.0693-274.3408,129.6797-54.9434,16.7587-109.0415,25.2529-160.8096,25.2539-.4682,0-.9321-.001-1.4004-.002-58.0854-.1728-111.5307-11.1738-158.8515-32.6982l2.8984-6.3711c87.8721,39.9687,200.1401,42.498,316.1211,7.122,96.3486-29.3867,186.1231-80.0673,272.9414-129.08q9.78375-5.52255,19.5606-11.0323c37.747-21.2509,72.0854-38.7539,110.2544-37.2822,23.4516.8858,47.5161,12.2569,62.8017,29.6748,11.8814,13.5401,17.3731,29.1963,15.8809,45.2754-2.6236,28.2783-26.0127,49.4072-47.0264,59.752-18.4683,9.0918-38.832,13.4052-58.5244,17.5781-4.9634,1.0517-10.0952,2.1387-15.0933,3.2822-84.563,19.3457-164.8716,63.8223-226.1323,125.2373-10.7935,10.8203-21.3496,22.4658-31.5576,33.7276-27.5493,30.3916-56.0366,61.8173-92.8604,81.3056-36.4306,19.2803-77.9941,25.2705-118.1894,31.0645-11.8032,1.7011-24.0083,3.4599-35.8418,5.5273C-3.607,1894.5074-46.7852,1918.0035-69.1314,1954.7261Z"/><path class="cls-3" d="M-66.7891,1821.8345l-1.083-6.916,210.3765-32.9394c11.5014-1.8008,23.205-4.2735,28.8774-12.8145,5.5776-8.3984,2.8208-19.9433-2.7852-27.0058-5.5498-6.9922-14.4785-12.1358-26.5385-15.2862-32.0865-8.3838-66.0005.3516-98.7974,8.7998-4.7392,1.2207-9.6406,2.4834-14.4365,3.667-32.9673,8.1348-80.8291,16.0039-115.7085-9.4931l4.1308-5.6504c32.5152,23.7685,78.2945,16.1465,109.9004,8.3467,4.7618-1.1749,9.6451-2.4327,14.3677-3.6495,33.6611-8.6699,68.4683-17.6347,102.313-8.7939,13.5601,3.543,23.7383,9.501,30.252,17.708,8.3696,10.5449,9.6875,25.3613,3.1333,35.2305-7.2447,10.9082-21.1553,13.9043-33.6255,15.8574Z"/><path class="cls-3" d="M66.7988,853.1768c-14.8872.0005-29.2271-4.0918-41.3325-13.4858C12.4355,829.5792,2.8886,814.463-6.3433,799.8453c-14.064-22.2691-27.3545-43.3057-50.6279-42.3882l-.2744-6.9941c27.3242-1.0611,42.3159,22.6772,56.8208,45.6445,8.9096,14.1069,18.1225,28.6948,30.1821,38.0532,31.8286,24.6978,81.2705,8.5313,110.6816-21.3686,16.4297-16.7032,29.314-37.0435,41.774-56.7144,10.1167-15.9717,20.5781-32.4868,32.9907-47.2266,28.0356-33.2915,65.6577-58.2768,115.0161-76.3837,38.2837-14.0445,82.3769-23.5904,138.7632-30.0411,14.5317-1.663,29.4233-3.164,43.8247-4.6157,77.6274-7.8247,157.8974-15.916,226.2016-53.268,35.8057-19.5796,65.4673-57.4654,49.9136-89.1119-4.3857-8.9233-11.6606-15.8379-19.3623-23.1587-5.8711-5.58-11.9419-11.3501-16.7251-18.163-17.2241-24.5362-14.0552-54.9703-10.9902-84.4024,1.8257-17.5332,3.7134-35.6636,1.3359-52.4712-5.5566-39.2754-32.6128-68.5063-61.2578-99.4531-19.9258-21.5269-40.5303-43.7866-53.5078-69.9248-13.3687-26.9258-18.1265-57.0327-22.728-86.14893-1.958-12.39207-3.9834-25.20707-6.6431-37.54447-6.3149-29.2924-23.416-80.8715-66.9985-97.1987l2.456-6.5547c46.6983,17.4942,64.7696,71.5894,71.3853,102.2778,2.7007,12.5284,4.7412,25.4405,6.7148,37.92778,4.5186,28.59472,9.1914,58.16312,22.083,84.12792,12.5298,25.2359,32.7862,47.1196,52.3755,68.2832,28.1157,30.375,57.1885,61.7842,63.0513,103.2276,2.498,17.6582.5649,36.2231-1.3042,54.1767-3.0664,29.4478-5.9629,57.2622,9.7573,79.6553,4.3818,6.2417,10.1958,11.7676,15.8179,17.1113,7.8091,7.4224,15.8843,15.0977,20.8222,25.1445,8.4849,17.2632,6.2823,36.7945-6.3696,56.4815-10.3579,16.1182-27.2949,31.3755-46.4678,41.8599-69.5488,38.0327-150.5366,46.1962-228.8584,54.0913-14.3779,1.4492-29.2456,2.9477-43.7304,4.6054-83.2891,9.5288-186.8863,29.959-249.2207,103.979-12.1074,14.3775-22.4395,30.689-32.4317,46.4634-12.6567,19.981-25.7441,40.6426-42.6972,57.8779C124.8169,838.6568,94.8393,853.1759,66.7988,853.1768Z"/><path class="cls-3" d="M53.6425,732.1661c-27.5117,0-51.2397-20.5015-74.3125-40.4346-22.6206-19.543-46.0117-39.7514-73.3076-42.06l.5899-6.9751c29.562,2.5004,53.8276,23.4643,77.2939,43.7382,27.2271,23.5215,52.9419,45.7398,83.8511,36.6573,29.8286-8.7661,40.7212-39.7964,52.2534-72.6485,4.9507-14.102,10.0693-28.6845,16.8311-41.4101,13.7861-25.9463,36.4936-46.544,67.4922-61.2207,26.2661-12.4366,57.9135-20.1563,91.5209-22.3242,27.4605-1.7715,55.3863-.5977,82.3926.5371,33.3887,1.4033,67.9141,2.8549,101.44-1.3204,35.9419-4.476,62.2734-15.1108,80.4995-32.5126,19.1225-18.2574,31.3769-51.8101,16.4214-78.0303-5.4234-9.5078-13.5957-16.9053-22.2476-24.7373-8.8227-7.9864-17.9463-16.2451-23.9101-26.9727-12.7066-22.8554-8.1182-49.5434-3.6807-75.3525.4492-2.6128.8955-5.2105,1.3198-7.7857C547.6513,160.6231,508.3481,32.7012,425.5185-54.5302l5.0762-4.8203c41.4966,43.7016,73.104,98.2876,91.4062,157.8564,18.3018,59.5684,22.7959,122.4844,12.9961,181.9468-.4272,2.5908-.8764,5.2041-1.3286,7.833-4.2314,24.6138-8.6074,50.0659,2.9004,70.7652,5.4014,9.7163,13.7022,17.2294,22.4898,25.1845,8.6787,7.856,17.6528,15.9795,23.6298,26.459,16.7164,29.3071,3.3736,66.4722-17.6674,86.5615-19.3521,18.4761-46.9815,29.7271-84.4683,34.3955-34.1025,4.2461-68.9243,2.7828-102.5991,1.3682-26.8237-1.1279-54.5601-2.2925-81.648-.5459-34.5151,2.2266-118.5434,14.4639-153.2822,79.8438-6.5132,12.2587-11.5435,26.5874-16.4077,40.4443-11.6089,33.0713-23.6133,67.2685-56.8848,77.0459A56.75549,56.75549,0,0,1,53.6425,732.1661Z"/><path class="cls-3" d="M33.1284,563.8697q-2.0259,0-4.0576-.0605c-29.2652-.8726-56.8789-11.1231-77.7554-28.8628l4.5332-5.334c40.6011,34.5019,105.7651,36.4443,148.3516,4.4238,16.791-12.6255,30.9555-30.1523,44.6538-47.102,22.9077-28.3443,46.5947-57.6539,82.853-63.625,24.0874-3.9668,47.5542,3.8569,70.2485,11.4233,10.503,3.5019,21.3633,7.1226,32.0674,9.4844,21.8106,4.8139,47.5801.1548,62.6646-11.3282,9.1689-6.9794,14.0962-15.8364,14.6455-26.3252,1.0752-20.5224-14.9522-35.0512-31.9209-50.4331-13.708-12.4262-27.8828-25.2758-34.0757-42.2793-10.6577-29.2612,5.3584-57.228,20.8467-84.2744,6.9194-12.082,14.0737-24.5757,18.7265-36.9814,18.2447-48.6441-2.4746-101.8438-27.9477-135.4107-29.7603-39.21578-71.521-66.914-111.9063-93.6997l3.8692-5.8335c40.872,27.1084,83.1352,55.14018,113.6133,95.3018,33.9414,44.7256,45.0253,99.1748,28.9257,142.1001-4.851,12.9355-12.1489,25.6787-19.2065,38.0024-15.3706,26.8404-29.8892,52.1924-20.3438,78.3999,5.6001,15.376,19.1226,27.6343,32.2002,39.4888,17.4327,15.8027,35.4585,32.1431,34.2095,55.9854-.6523,12.4599-6.668,23.3623-17.3955,31.5288-16.8677,12.8408-44.3594,17.9013-68.4136,12.5942-11.0615-2.4409-22.0986-6.1211-32.7724-9.6797-22.8936-7.6328-44.5181-14.8447-66.897-11.1567-33.6279,5.5376-55.4463,32.5351-78.5464,61.1181-13.9658,17.2808-28.4072,35.1499-45.8911,48.2964C87.5254,555.3321,60.9306,563.8697,33.1284,563.8697Z"/><path class="cls-3" d="M11.9687,430.7247a57.38981,57.38981,0,0,1-35.706-12.5484c-8.649-7.1538-13.688-16.2592-14.5728-26.3325l6.9736-.6123c.9053,10.3164,7.0586,17.4136,12.0606,21.5513a50.03976,50.03976,0,0,0,35.7392,10.7178c21.9112-2.2227,40.7461-15.5298,59.7085-30.1499l1.209-.9322c18.4278-14.2153,37.4829-28.915,60.669-33.2275,8.9985-1.6738,18.2373-1.6611,27.1797-1.6499,12.3369.0122,23.9956.0317,34.8437-4.0503,19.6563-7.3965,32.2764-26.6582,44.5225-47.4346,25.2915-42.9077,48.1113-92.143,25.5981-131.9858-7.959-14.086-20.3896-24.3945-33.5498-35.3086-8.3896-6.9575-17.0644-14.1514-24.4634-22.4146C173.1899,72.8009,174.4282,9.1964,179.0381-52.2192l6.9804.5244c-4.497,59.9107-5.7783,121.8755,31.377,163.3726,7.0522,7.876,15.5239,14.9014,23.7168,21.6958,13.0688,10.8384,26.583,22.0454,35.1762,37.2534,24.2642,42.9424.6436,94.355-25.6626,138.9839-12.9067,21.8975-26.2968,42.2315-48.0874,50.4317-12.0444,4.5317-24.8969,4.5117-37.3183,4.4985-8.6187-.0093-17.5308-.023-25.8902,1.5317-21.5268,4.0044-39.9028,18.1797-57.6738,31.8882l-1.2099.9336c-19.0074,14.6543-39.5498,29.1631-63.2769,31.5698A51.52664,51.52664,0,0,1,11.9687,430.7247Z"/><path class="cls-3" d="M64.8789,327.796a118.24473,118.24473,0,0,1-33.6382-5.1162c-8.0337-2.4327-16.0835-5.4175-23.8682-8.3042-20.4057-7.5674-39.6845-14.7217-60.1787-13.5142l-.4092-6.9883c21.9629-1.2886,42.8369,6.4541,63.0215,13.939,7.6865,2.8501,15.6338,5.7973,23.4634,8.1684,25.5244,7.729,61.0952,8.4942,77.3394-14.7876,10.3442-14.8266,10.728-36.145,1.1738-65.1733-.9785-2.9727-2.0005-5.959-3.0269-8.9575-6.8408-19.9873-13.914-40.6553-9.769-61.6792,2.1421-10.8623,7.1889-20.9429,12.0698-30.6919,6.5859-13.1548,12.8066-25.5801,11.96-39.168-1.0586-16.9795-13.5586-31.4887-22.8692-40.9253A234.69114,234.69114,0,0,0,7.9731-2.8686l2.2207-6.6387a241.73759,241.73759,0,0,1,94.937,59.189c10.1001,10.2373,23.6675,26.082,24.8721,45.4058.9639,15.4702-5.9756,29.332-12.687,42.7373-4.6719,9.3315-9.5029,18.9809-11.461,28.9126-3.7822,19.1802,2.9825,38.9443,9.524,58.0581,1.0351,3.0244,2.0659,6.0371,3.0532,9.0356,10.29,31.2652,9.6089,54.6094-2.082,71.3667C104.7319,321.8502,84.9057,327.7955,64.8789,327.796Z"/><path class="cls-3" d="M2400.8232,767.4722q-17.68725,0-35.3755-1.3559c-89.48-6.8872-182.4697-37.6543-284.2837-94.0596-16.893-9.3584-33.875-19.3203-50.2968-28.9546-50.7276-29.7588-103.1822-60.5307-160.0152-77.5766-49.7241-14.9136-102.7002-19.2701-153.9321-23.4834-15.8389-1.3023-32.2168-2.649-48.2676-4.2881a1215.045,1215.045,0,0,1-287.6865-65.4175c-60.1206-21.6343-133.647-54.8267-168.8726-120.0195-26.3232-48.7154-28.3862-112.2891-5.6601-174.42,21.3437-58.3535,60.5249-108,96.0366-148.86861,183.8052-211.53168,423.5669-363.04,655.4346-509.56058l3.7392,5.918c-231.4399,146.25-470.7597,297.479-653.8896,508.23339-35.0933,40.3872-73.7935,89.3975-94.7466,146.6821-22.0381,60.25-20.1265,121.7349,5.2441,168.688,34.0987,63.107,106.1358,95.5484,165.0845,116.7603a1208.0395,1208.0395,0,0,0,286.0273,65.0405c15.9825,1.6318,32.3252,2.9761,48.1304,4.2759,51.5923,4.2422,104.9409,8.6294,155.3692,23.7544,57.6386,17.2876,110.4619,48.2759,161.5459,78.2441,16.3857,9.6123,33.3295,19.5523,50.1474,28.8692,100.916,55.9077,192.9722,86.395,281.4287,93.2031,106.21439,8.1743,207.95849-20.8921,279.1416-79.7476l4.461,5.3946c-37.57771,31.0698-82.53961,53.8632-133.63671,67.748A442.062,442.062,0,0,1,2400.8232,767.4722Z"/><path class="cls-3" d="M2387.1533,682.2188c-49.6777,0-97.4951-12.2832-138.7173-36.1303-27.1367-15.6988-51.7661-35.9459-75.5845-55.5259-28.0068-23.0235-56.9673-46.8306-89.7783-62.9068-65.9814-32.3276-138.6045-31.5224-215.4975-30.6704-52.0972.5777-105.9712,1.1748-157.0396-9.685a326.936,326.936,0,0,1-114.5859-48.6475c-35.4214-24.0386-64.9322-55.0298-85.3423-89.6245a252.75625,252.75625,0,0,1-34.6089-119.4102c-1.4985-43.3735,8.3105-84.8921,28.3667-120.0664,34.0225-59.6689,93.9702-99.2925,146.8603-134.2519l441.856-292.05419,3.8594,5.8398L1655.0859-18.8603c-52.2368,34.52736-111.4443,73.6616-144.6392,131.8794-39.0966,68.5679-36.6665,159.811,6.1905,232.4527,39.4707,66.9023,112.501,117.3627,195.355,134.9819,50.311,10.6987,103.789,10.1055,155.5058,9.5322,74.3277-.8218,151.1792-1.6763,218.6553,31.3838,33.5449,16.4355,62.8262,40.5068,91.1435,63.7856,23.6006,19.4009,48.0044,39.4624,74.64409,54.8736,116.98051,67.6748,279.4082,35.7544,362.08151-71.1533l5.53709,4.2822c-40.7368,52.6787-101.9824,89.3174-172.45459,103.166A311.04509,311.04509,0,0,1,2387.1533,682.2188Z"/><path class="cls-3" d="M2389.5805,562.5294a177.2486,177.2486,0,0,1-27.4643-2.1343c-43.5689-6.8193-81.8364-30.2168-118.8433-52.8438-24.9912-15.2797-50.8335-31.08-78.0942-41.6547-52.9917-20.5557-111.5537-21.6285-168.1875-22.6656-26.6719-.4887-54.252-.9936-81.0694-3.5044-45.7866-4.2866-89.8842-17.7382-124.1699-37.8764-40.6245-23.8618-67.0005-56.7617-76.2768-95.1436-9.3848-38.8286-1.8404-82.5776,23.7426-137.6797a573.90967,573.90967,0,0,1,92.8282-140.40671A624.732,624.732,0,0,1,2113.3081-151.4135a573.94183,573.94183,0,0,1,166.3745-25.50679l.0185,7c-224.8139.5879-439.4658,137.9848-534.1347,341.895-24.8804,53.5898-32.2803,95.8794-23.2876,133.0874,19.9873,82.6972,117.1577,120.4731,194.2954,127.6948,26.5561,2.4863,54.0024,2.9893,80.5454,3.4751,57.2451,1.0488,116.4394,2.1328,170.5903,23.1382,27.8462,10.8017,53.96,26.7681,79.2144,42.209,36.4219,22.269,74.084,45.2964,116.2739,51.8999,90.541,14.1728,174.80709-48.9341,246.6812-109.1973l4.49749,5.3643c-36.3559,30.4824-75.7607,61.6924-117.563,83.4716C2459.02049,552.8082,2423.684,562.5294,2389.5805,562.5294Z"/><path class="cls-3" d="M2447.8305,453.2174c-2.8696,0-5.7544-.1001-8.6733-.3052-34.5166-2.4199-65.043-19.874-94.5635-36.7534-16.8794-9.6514-34.333-19.6309-52.3198-26.6744-41.62061-16.2978-87.7417-17.559-132.3447-18.7793-18.6582-.5102-37.9522-1.0375-56.7486-2.6489-24.937-2.1382-61.7407-8.2627-95.4599-25.2983-32.3658-16.3521-54.5616-38.961-65.9707-67.1987-8.2202-20.3457-10.3213-43.8169-6.0757-67.876a168.525,168.525,0,0,1,26.2446-64.0103c25.7984-38.3969,63.7783-66.4355,100.978-91.0151a1294.6658,1294.6658,0,0,1,235.7437-122.98l2.582,6.5068a1287.64028,1287.64028,0,0,0-234.4663,122.313c-36.5928,24.1787-73.916,51.7051-99.0268,89.0796-27.0166,40.21-34.4844,88.2451-19.4893,125.3599,28.2598,69.9429,118.1865,84.9424,155.5381,88.1445,18.5937,1.5943,37.7837,2.1187,56.3423,2.6265,45.2041,1.2363,91.94675,2.5146,134.706,19.2583,18.4639,7.2304,36.1436,17.3393,53.2417,27.1157,30.1651,17.2476,58.6577,33.5391,91.5782,35.8477,67.97069,4.7656,122.59079-50.9751,171.497-111.9209l5.46,4.3808C2568.56049,398.2593,2514.92279,453.2174,2447.8305,453.2174Z"/><path class="cls-3" d="M2468.354,326.1285c-36.315,0-72.32519-10.1372-106.57029-20.8721q-4.8465-1.519-9.7051-3.0576c-39.5269-12.4853-80.398-25.3896-121.77-24.0801-6.8135.2168-13.7364.7207-21.0655,1.2539-32.7021,2.3819-66.52,4.8423-87.8564-19.0825-19.396-21.7485-15.5542-54.9995-3.7759-76.6899,12.8838-23.7261,35.0015-41.0601,54.5147-56.3531L2459.25879-97.7895l4.3183,5.5098L2176.4438,132.7569c-18.979,14.8735-40.4897,31.7319-52.6816,54.1841-10.6465,19.6069-14.2964,49.4653,2.8491,68.6899,19.0415,21.3506,51.1099,19.0176,82.1235,16.7603,7.0772-.5152,14.3951-1.0479,21.3511-1.2686,42.564-1.3559,84.0142,11.7398,124.1011,24.4009q4.8516,1.533,9.6904,3.0532c42.417,13.2969,87.543,25.668,131.93209,18.3833,40.9478-6.7207,85.689-36.9184,91.9746-81.6318l6.9317.9746c-3.1006,22.0581-14.936,42.3149-34.2256,58.5801a133.3385,133.3385,0,0,1-63.5469,28.9844A176.21675,176.21675,0,0,1,2468.354,326.1285Z"/><path class="cls-3" d="M2414.8261,203.9986c-11.9731,0-25.6469-1.3403-38.0224-7.0693-16.69-7.7256-27.8609-22.8433-28.4595-38.5137-.9951-26.0488,23.1724-42.3813,44.4946-56.791,2.0586-1.3911,4.0913-2.7652,6.0718-4.1284,31.7568-21.8565,56.6821-52.8296,80.78709-82.78275,4.9756-6.18265,10.1206-12.57615,15.2422-18.78515,28.6362-34.7163,64.2344-72.2227,111.1416-87.1773l2.126,6.669c-45.1773,14.4038-79.8794,51.0322-107.8672,84.9624-5.0947,6.1768-10.2266,12.55322-15.1895,18.71972-24.4199,30.34518-49.67179,61.72368-82.27139,84.16068-1.9966,1.374-4.0459,2.7588-6.1211,4.1616-19.8111,13.3887-42.2657,28.5635-41.419,50.7236.499,13.0684,10.0786,25.7969,24.4048,32.4287,14.3316,6.6348,31.0435,6.795,44.0044,6.1973a271.28782,271.28782,0,0,0,164.73629-65.9575l4.5918,5.2832a278.314,278.314,0,0,1-169.00489,67.6665C2421.1533,203.9014,2418.0503,203.9986,2414.8261,203.9986Z"/><path class="cls-3" d="M1351.2187,2168.814l-4.0703-5.6953c84.2002-60.1836,171.2671-122.416,242.7183-199.7275,79.6401-86.1719,128.3623-181.1006,140.8994-274.5215,1.7466-13.0176,3.0722-26.8672,4.354-40.2598,6.0293-63.0039,12.2641-128.1533,63.0752-162.2949,35.5161-23.8652,79.2793-21.6601,121.6011-19.5303,28.7753,1.4512,58.5302,2.9473,85.8071-3.5908,52.6108-12.6123,98.6933-54.8711,140.8804-129.1894,7.1572-12.6084,14.1543-25.7295,20.9209-38.419,24.434-45.8203,49.7006-93.2012,88.67036-128.541,56.65284-51.374,142.09474-75.2744,234.42043-65.5498,84.6782,8.9121,166.25581,43.6416,236.0727,75.4941l-2.9052,6.3692c-69.315-31.624-150.2691-66.0996-233.8999-74.9024-90.34769-9.5088-173.80769,13.7364-228.98588,63.7745-38.06831,34.5224-63.043,81.3564-87.19581,126.6494-6.7881,12.7295-13.8071,25.8925-21.0098,38.58-43.1972,76.0977-90.7373,119.4522-145.3364,132.5411-28.2554,6.7744-58.522,5.2509-87.791,3.7754-43.0747-2.168-83.7607-4.2178-117.3447,18.3496-48.0625,32.2949-54.1367,95.7675-60.0113,157.1513-1.288,13.458-2.6201,27.3741-4.3847,40.5244-12.729,94.8565-62.0728,191.1055-142.6963,278.3418C1523.0698,2045.981,1435.706,2108.4254,1351.2187,2168.814Z"/><path class="cls-3" d="M1624.8559,2136.5406l-4.5439-5.3242c100.2324-85.5332,171.872-203.3184,201.7207-331.6602,1.7739-7.6269,3.4399-15.4502,5.0513-23.0166,5.3486-25.1142,10.8793-51.084,21.3979-75.0879,15.9038-36.2959,42.1455-62.0429,71.9961-70.6406,28.8618-8.3144,58.7197-.9219,87.5937,6.2246,26.899,6.6582,54.7115,13.542,81.0083,7.2783,28.5269-6.7939,55.0835-29.6914,74.7774-64.4746,9.5996-16.9541,17.2129-35.3799,24.5757-53.1992,5.7124-13.8232,11.6186-28.1182,18.4521-41.7568,39.2295-78.2979,113.0132-139.085,197.3711-162.6065,84.35739-23.5224,178.94829-9.6816,253.03219,37.0215l-3.7334,5.9219c-72.4389-45.667-164.9326-59.1973-247.41889-36.2012-82.4863,23-154.6333,82.4395-192.9922,159-6.7197,13.4111-12.5771,27.586-18.2412,41.2949-7.4443,18.0157-15.1416,36.6446-24.9536,53.9746-20.6636,36.4942-48.8071,60.585-79.2471,67.836-27.9487,6.6572-56.6015-.4356-84.312-7.294-29.2676-7.2431-56.9136-14.0849-83.9746-6.2929-27.8452,8.0205-52.4561,32.3398-67.5225,66.7226-10.2319,23.3506-15.687,48.9658-20.9629,73.7373-1.6176,7.5977-3.291,15.4541-5.0791,23.1446C1798.6655,1930.9302,1726.2187,2050.0435,1624.8559,2136.5406Z"/><path class="cls-3" d="M1769.7138,2124.9273l-3.3437-6.1504c59.1147-32.1357,84.082-100.3554,108.2275-166.3281q2.4624-6.72945,4.9097-13.373c35.2363-95.3575,83.3286-148.4024,142.9404-157.6622,14.8418-2.3056,30.1201-1.7099,44.895-1.1357,20.8843.8096,40.6089,1.5791,59.2632-5.1045,41.9546-15.0322,60.5957-60.0576,78.6236-103.6006,4.9668-11.997,10.103-24.4023,15.6264-35.8877,37.876-78.7588,114.834-137.3174,200.8408-152.8222,86.00639-15.5078,178.56789,12.4912,241.56349,73.0664l-4.8515,5.0449c-61.40529-59.0459-151.6338-86.334-235.46979-71.2227-83.8374,15.1143-158.854,72.1953-195.7744,148.9668-5.4389,11.3096-10.5376,23.6241-15.4678,35.5323-18.6108,44.9521-37.8549,91.4345-82.7294,107.5127-19.9312,7.1416-41.2637,6.3134-61.8965,5.5097-14.4419-.5625-29.3765-1.1435-43.5489,1.0586-56.914,8.8399-103.1582,60.374-137.4482,153.1699q-2.4492,6.6285-4.9023,13.3526c-12.0108,32.8164-24.4297,66.75-41.5152,96.8027C1820.1401,2085.984,1797.2622,2109.9508,1769.7138,2124.9273Z"/><path class="cls-3" d="M1898.228,2120.3677l-5.5254-4.2988c23.4941-30.2031,48.8081-61.8779,77.2124-88.001,32.3931-29.7919,64.6812-48.5498,98.7095-57.3457,13.3213-3.4433,27.1914-5.375,40.605-7.2421,22.6308-3.1514,44.0063-6.128,63.6001-15.711,45.3169-22.1631,65.0053-69.5752,85.85005-119.7715,9.00684-21.6894,18.31985-44.1172,29.85745-64.1279a245.176,245.176,0,0,1,376.71869-58.0156l-4.73139,5.1582c-51.77-47.4785-127.05811-70.3281-196.48541-59.6387-69.42619,10.6914-134.351,55.1377-169.43749,115.9922-11.311,19.6182-20.5361,41.833-29.457,63.3164-20.4258,49.1875-41.5474,100.0508-89.2397,123.376-20.5972,10.0732-43.5313,13.2666-65.71,16.3545-13.2183,1.8408-26.8862,3.7441-39.8184,7.0869C1999.8403,1995.733,1948.6972,2055.483,1898.228,2120.3677Z"/><path class="cls-3" d="M2188.5693,2113.2369l-6.9238-1.0313c7.1035-47.6865,44.4721-88.3984,114.2412-124.4619,6.8296-3.5302,13.8833-7.0693,20.7046-10.4912,44.5005-22.3262,90.5156-45.4131,116.9687-86.4629,5.9917-9.2988,11.0528-19.6875,15.9468-29.7334,9.75389-20.0205,19.83979-40.7226,37.96919-54.5127,23.4585-17.8427,59.0181-21.1943,92.8033-8.7461,30.1943,11.125,55.1342,31.6016,79.2529,51.4034l-4.4419,5.4101c-23.66989-19.4336-48.1455-39.5283-77.231-50.2451-24.7363-9.1143-60.35789-11.8643-86.146,7.75-16.8037,12.7812-26.08589,31.834-35.91349,52.0068-4.9839,10.2305-10.1382,20.8086-16.356,30.458-27.4888,42.6582-74.373,66.1807-119.7134,88.9287-6.8027,3.4131-13.8374,6.9424-20.6298,10.4532C2231.4731,2028.9195,2195.3178,2067.9342,2188.5693,2113.2369Z"/></g></svg>