<svg id="Layer_1" data-name="Layer 1" xmlns="http://www.w3.org/2000/svg" viewBox="0 0 999.99991 260.28832"><defs><style>.cls-1{fill:#fa0f00;}</style></defs><path id="path2" class="cls-1" d="M431.7864,173.54759l-10.77648,33.233a2.42418,2.42418,0,0,1-2.46824,1.80709H392.38281c-1.56467,0-2.02749-.90356-1.78505-2.20378L435.53282,76.69151A41.62946,41.62946,0,0,0,437.7366,62.984a1.49859,1.49859,0,0,1,1.34429-1.56469h35.94363c1.12391,0,1.56467.22039,1.80711,1.34431l50.99546,143.79658c.44076,1.12391.22038,2.02747-1.124,2.02747h-29.156a2.20378,2.20378,0,0,1-2.49027-1.56467l-11.45964-33.4754Zm43.59077-28.09818C470.96961,130.618,461.89,103.44539,457.63674,87.49h-.22037c-3.61419,15.05181-11.70208,39.668-17.63022,57.95939Z"/><path id="path4" class="cls-1" d="M531.41925,153.75765c0-32.13109,24.04323-59.08331,65.16575-59.08331,1.785,0,4.03292.22038,7.4047.44076V50.86322a1.41041,1.41041,0,0,1,1.56467-1.56468h28.31855c1.12395,0,1.34429.44075,1.34429,1.34431V183.42051a124.90659,124.90659,0,0,0,.90354,16.39613c0,1.12392-.22034,1.58672-1.56471,2.02747a112.85573,112.85573,0,0,1-44.27392,8.99142c-33.255,0-58.86294-18.86436-58.86294-57.07788ZM603.9897,121.869a23.20592,23.20592,0,0,0-8.30827-1.12393c-17.29967,0-32.13109,10.55611-32.13109,31.44793,0,22.23614,12.804,31.91071,29.88326,31.91071a31.69027,31.69027,0,0,0,10.5561-1.34431Z"/><path id="path6" class="cls-1" d="M763.8959,152.193c0,35.26046-22.91928,58.64256-55.27078,58.64256-38.4339,0-55.49112-28.9797-55.49112-57.95939,0-31.91071,21.33261-58.20179,55.932-58.20179,36.18606,0,54.83,27.19464,54.83,57.51863Zm-79.0936.22037c0,19.834,9.21181,32.35149,24.24155,32.35149,13.04637,0,22.91928-11.21724,22.91928-31.88869,0-17.63022-7.18432-32.13109-24.24155-32.13109C694.69723,120.74505,684.8023,132.42508,684.8023,152.41334Z"/><path id="path8" class="cls-1" d="M811.12288,49.29854c1.785,0,2.20377.22037,2.20377,1.78507v46.059A72.57077,72.57077,0,0,1,832.191,94.67434c33.05672,0,53.92649,23.36006,53.92649,53.46368,0,42.02608-33.255,62.69751-67.39152,62.69751a117.04272,117.04272,0,0,1-35.26043-5.17888,2.60048,2.60048,0,0,1-1.34429-2.20378V50.86322c0-1.12392.44075-1.56468,1.56471-1.56468Zm15.42643,71.88727a45.15535,45.15535,0,0,0-13.22266,1.8071v61.00061a35.50171,35.50171,0,0,0,8.30828.88151c17.07932,0,32.57184-10.33572,32.57184-33.69578.044-20.56126-11.85634-29.99343-27.5913-29.99343Z"/><path id="path10" class="cls-1" d="M930.08285,160.964c1.124,12.80395,10.11534,23.36005,32.13108,23.36005a69.22078,69.22078,0,0,0,27.63536-5.17888c.68319-.44073,1.34429-.22037,1.34429,1.12394v21.35463c0,1.56467-.44076,2.20377-1.56471,2.6886-8.99139,4.27534-18.86437,6.61133-34.37892,6.61133-42.24643,0-57.05583-28.9797-57.05583-56.83545,0-31.00718,19.08472-59.32573,54.36725-59.32573,33.91613,0,47.40326,26.29108,47.40326,48.48314a71.34081,71.34081,0,0,1-1.124,15.05181,1.93928,1.93928,0,0,1-1.80707,1.80709,209.90857,209.90857,0,0,1-23.1397.90356Zm29.22208-21.79537a72.2167,72.2167,0,0,0,11.21728-.46279v-1.5647A18.26938,18.26938,0,0,0,951.771,119.36673q-.16677.00447-.33353.012c-14.1483,0-20.23069,10.57813-21.575,19.834Z"/><polygon id="polygon12" class="cls-1" points="294.116 260.288 185.404 0 294.116 0 294.116 260.288"/><polygon id="polygon14" class="cls-1" points="0 260.288 108.801 0 0 0 0 260.288"/><polygon id="polygon16" class="cls-1" points="147.102 95.93 216.367 260.288 170.969 260.288 150.254 207.949 99.567 207.949 147.102 95.93"/></svg>