<?xml version="1.0" encoding="UTF-8"?><svg id="OBJECTS" xmlns="http://www.w3.org/2000/svg" viewBox="0 0 388.34 282.6"><defs><style>.cls-1,.cls-2,.cls-3,.cls-4,.cls-5,.cls-6{stroke-width:.72px;}.cls-1,.cls-2,.cls-3,.cls-5{stroke:#2a1e17;}.cls-1,.cls-2,.cls-3,.cls-5,.cls-6{stroke-linecap:round;stroke-linejoin:round;}.cls-1,.cls-6{fill:none;}.cls-7{fill:#f9f9f8;}.cls-8{fill:#afcd5c;}.cls-9{fill:#9fca78;}.cls-10,.cls-3{fill:#fff;}.cls-2,.cls-11{fill:#f9f8f6;}.cls-12{fill:#fbcac4;}.cls-4{stroke:#ffe179;stroke-miterlimit:10;}.cls-4,.cls-13{fill:#ffe179;}.cls-5,.cls-14{fill:#2a1e17;}.cls-15{fill:#ded7d0;}.cls-6{stroke:#fff;}.cls-16{fill:#ff835c;}.cls-17{fill:#ff3d43;}.cls-18{fill:#7ca4ff;}</style></defs><line class="cls-1" x1="224.55" y1="279.51" x2="249.21" y2="279.51"/><line class="cls-1" x1="227.17" y1="282.24" x2="242.8" y2="282.24"/><path class="cls-1" d="M74.97,95.98s-33.45,20.52-13.11,21.59c14.65.77,44.72-10.02,64-6.94s-52.43,74.02-15.42,74.02,85.04-67.17,93.29-46.26c0,0-25.17,91.49,4.19,76.49,29.36-15,115.53-138.22,152-121.34,31.44,14.55-25.76,147.65,28.05,84.81"/><rect class="cls-7" x="145.87" width="24.11" height="16.54" rx="1.47" ry="1.47"/><path class="cls-9" d="M149.65,14.73h9.3c.31,0,.47-.38.24-.6l-4.25-4.12c-.36-.35-.92-.35-1.28,0l-4.25,4.12c-.22.22-.07.6.24.6Z"/><path class="cls-9" d="M158.32,12.1l2.46,2.46h7.14v-4.42c0-.09-.04-.18-.1-.25l-3.52-3.52c-.37-.37-.97-.36-1.33.03-1.25,1.37-3.95,4.34-4.68,5.23-.11.14-.1.34.03.47Z"/><circle class="cls-13" cx="153.38" cy="5.3" r="1.82"/><rect class="cls-13" x="47.36" y="211.65" width="33.43" height="13.62" rx="2.08" ry="2.08"/><line class="cls-1" x1="67.41" y1="219.95" x2="76.51" y2="219.95"/><line class="cls-1" x1="67.41" y1="217.26" x2="76.51" y2="217.26"/><rect class="cls-11" x="52.33" y="216.77" width="12.47" height="3.64" rx="1.82" ry="1.82"/><rect class="cls-7" x="267.12" y="236.2" width="29.62" height="20.33" rx="1.81" ry="1.81"/><path class="cls-9" d="M271.77,254.3h11.42c.38,0,.57-.47.3-.74l-5.22-5.06c-.44-.42-1.13-.42-1.57,0l-5.22,5.06c-.28.27-.09.74.3.74Z"/><path class="cls-9" d="M282.42,251.07l3.03,3.03h8.78v-5.43c0-.11-.05-.22-.13-.3l-4.33-4.33c-.46-.46-1.2-.44-1.63.04-1.54,1.69-4.85,5.33-5.75,6.43-.14.17-.12.42.03.57Z"/><circle class="cls-13" cx="276.35" cy="242.71" r="2.23"/><path class="cls-13" d="M252.73,158.64l-1.75,14.45-11.23,92.59s-8.05,13.18-10.25,13.91-11.42-13.18-11.42-13.18c0,0,.77-17.94,4.69-58.43,1.21-12.54,3.72-27.92,5.01-36.2,2.09-13.45,2.76-16.07,2.76-16.07l22.19,2.93Z"/><path class="cls-10" d="M239.75,265.68s-8.05,13.18-10.25,13.91-11.42-13.18-11.42-13.18l3.94,2.06c.62.33,1.36.37,2.02.13l4.73-1.74,4.44,1.48c.66.22,1.37.16,1.98-.18l4.56-2.48Z"/><path class="cls-15" d="M252.73,158.64l-1.75,14.45s-5.55,1.11-12.49.65c-5.75-.38-10.71-1.97-10.71-1.97,2.09-13.45,2.76-16.07,2.76-16.07,0,0,4.09.83,11.52,1.71s10.68,1.22,10.68,1.22Z"/><path class="cls-17" d="M245.54,142.93c4.58.64,7.09,1.44,7.7,2.98s-.51,12.74-.51,12.74c0,0-19.63-.26-22.19-2.93s.06-9.73,1.55-11.14c1.95-1.85,3.9-2.98,13.46-1.64Z"/><path class="cls-1" d="M218.08,266.42s4.62,7.48,8.29,11.17c1.22,1.23,2.34,2.04,3.14,2.01s1.84-.91,2.95-2.22c3.33-3.93,7.3-11.69,7.3-11.69"/><path class="cls-14" d="M232.45,277.37c-1.11,1.31-2.15,2.19-2.95,2.22s-1.92-.78-3.14-2.01c0,0,.87-1.13,3.04-.95s3.05.73,3.05.73Z"/><path class="cls-1" d="M233.21,268.34s7.74-67.24,10.18-82.08"/><line class="cls-1" x1="224.34" y1="258.24" x2="232.31" y2="176.51"/><polyline class="cls-1" points="224.04 268.6 228.77 266.86 233.64 268.65"/><path class="cls-1" d="M231.76,172.47s6.33,2.39,19.22.63"/><path class="cls-1" d="M240.69,165.25s8.67.64,13.04-.12"/><path class="cls-1" d="M232.33,157.08s6.27,2.09,17.29,1.52"/><path class="cls-2" d="M228.09,200.84l30.99-16.61c.99-.53,2.21.03,2.45,1.13l4.98,22.61,19.37,8.16c1.23.52,1.4,2.18.32,2.94l-28.92,20.31c-.49.34-1.12.4-1.66.16l-22.33-9.91-6.05-26.93c-.17-.74.18-1.5.85-1.86Z"/><line class="cls-1" x1="236.8" y1="227.16" x2="265" y2="209.46"/><line class="cls-1" x1="242.1" y1="230.03" x2="269.26" y2="212.25"/><line class="cls-1" x1="247.43" y1="232.61" x2="274.99" y2="213.87"/><polygon class="cls-9" points="230.32 203.05 235.04 223.53 263.53 206.62 259.15 187.89 230.32 203.05"/><path class="cls-14" d="M265.39,230.65c-1.04-.66-5.8-3.36-5.8-3.36l10.49-7.1,5.63,3.2-10.33,7.26Z"/><path class="cls-11" d="M152.41,154.03s-22.11,41.61-22.37,49.67,29.64,52.46,31.72,54.8l11.83-4.31-1.2-29.44-6.81-18.23,6.81-12.22-.48-17.4-19.51-22.89Z"/><path class="cls-11" d="M168.09,171.43l3.64,4.94s.52,73.86,2.34,84.52l23.35-1.43s9.34-90.9,9.9-102.34c0,0-24.41,7.02-55.09-3.64l15.86,17.94Z"/><path class="cls-14" d="M159.48,156.35s17.59,8.98,29.57,8.61c11.98-.37,18.71-7.86,18.71-7.86l-48.28-.75Z"/><path class="cls-12" d="M217.19,149.33c-1.13.41-3.9,2.26-4.83,1.54s-.92-2.36,1.54-3.9,7.19-4.72,7.81-4.42-4.52,6.78-4.52,6.78Z"/><path class="cls-16" d="M146.63,71.99s15.66,2.92,34.3,9.03l14.43,2.14s24.47,3.68,31.73,11.87c0,0,9.84,10.91,12.07,18.17l-19.54,10.42-5.77-9.68-6.51,43.17s-25.41,9.94-63.6-5.11l9.82-52.76s-12.1-2.23-14.33-4.84c0,0,3.11-14.88,7.41-22.42Z"/><path class="cls-12" d="M151.92,24.84c-1.48-.74-3.4,1.89-4.91,4.25s-4.72,7.75-4.72,7.75c0,0-11.43,8.22-20.6,18.99-5.58,6.55-10.39,12.38-13.32,20.51,0,0,12.66,12.19,31.37,16.16l6.9-20.51-9.56-3s15.8-19.4,17.78-21.1c0,0,1.23.28,5.86-.47s6.61-1.51,6.61-2.36-.38-2.08-5.86-1.8l-1.13-1.42s8.5-8.6,9.07-9.73-.57-1.61-3.97-.57-5.1,2.65-5.1,2.65c0,0,2.27-3.31,3.87-5.67s.76-3.02-.09-3.02-6.93,4.84-8.54,7.2c0,0,5.14-8.43,4-9.18s-6.42,4.11-9.16,7.89c0,0,2.83-5.91,1.51-6.57Z"/><path class="cls-1" d="M108.36,76.34s12.66,12.19,31.37,16.16"/><path class="cls-12" d="M222.77,169.44c-1.75.89-5.15-5.02-5.94-7.66-.79-2.64-.65-9.79-.13-12.47.42-2.19,1.42-4.25,4.56-7.15,1.44-1.33,3.5-3.06,5.87-4.68,0,0-5.81-10.3-7.92-14.39l10.32-5.33,9.35-4.83s13.07,22.84,11.49,25.35c-1.58,2.51-18.48,11.09-18.48,11.09l.92,5.28s5.54,6.47,4.88,7.53-5.02-1.06-7.13-3.7c0,0,3.96,6.73,2.64,7.66s-4.88-1.72-7.13-4.88c0,0,2.9,5.81,1.85,7.13s-4.75-2.24-6.34-6.2c0,0,.3,2.1.74,4.1.32,1.43.97,2.89.44,3.16Z"/><polyline class="cls-1" points="219.21 123.1 229.53 117.76 238.88 112.93"/><path class="cls-1" d="M250.37,138.28c-1.58,2.51-18.48,11.09-18.48,11.09l.92,5.28s5.54,6.47,4.88,7.53c0,0-1.67,1.76-6.7-3.41"/><path class="cls-1" d="M216.7,149.31c.42-2.19,1.42-4.25,4.56-7.15"/><path class="cls-12" d="M181.61,54.7c-6.62,18.24-1.32,22.97-1.32,22.97l.63,3.35s-.09,5.58,4.97,6.63c6.23,1.29,9.46-4.48,9.46-4.48l1.36-3.13s6.71-3.23,6.83-20.85c0,0-2.34-4-10.53-5.36s-11.41.88-11.41.88Z"/><path class="cls-14" d="M195.84,55.07l7.7,4.12-1.87,8.9,1.46.11,3.02-8.74s5.36-4.6-.68-8.81c-4.16-2.9-6.41.52-6.41.52l-3.22,3.91Z"/><path class="cls-14" d="M186.56,47.24c-1.96-.72-9.61.41-7.34,8.58,0,0-.72,4.98-.72,7.33,0,2.56,1.77,2.21,1.77.79,0-.11,1.79-8.51,1.79-8.51l4.7-1.16-.21-7.03Z"/><path class="cls-14" d="M189.8,42.71c-3.91,1.52-4.61,11.48-4.61,11.48l11.8,1.07s4.81-5.14,3.25-8.36-5.17-6.24-10.43-4.19Z"/><path class="cls-12" d="M180.11,63.43c-.21-1.77-1.75-3.16-2.58-2.23s-1.71,6.5.97,7.02c0,0,2.02-1.38,1.6-4.79Z"/><path class="cls-12" d="M201.41,72.96c1.96.74,4.45-2.29,4.04-4.67s-2.27-2.79-3-.93-1.04,5.59-1.04,5.59Z"/><path class="cls-1" d="M227.13,137.49s5.49-5.24,10.21-5.61"/><path class="cls-1" d="M153.03,41.76s3.71-4.51,8.43,1.5"/><path class="cls-1" d="M129.39,66.13s4.47-.79,7.68,2.87"/><path class="cls-1" d="M153.54,99.25s1.83-10.12,5.11-15.63"/><path class="cls-1" d="M230.56,158.48s4,6.55,2.64,7.66c0,0-3.07,1.76-7.13-4.88,0,0,3.78,6.5,1.85,7.13s-6.34-6.2-6.34-6.2c0,0,2.32,5.41,1.19,7.26s-5.94-7.66-5.94-7.66"/><path class="cls-14" d="M179.46,61.66l-.96,6.55s-2.65,8.1,1.79,9.46c4.96,1.53,11.95,3.54,15.62,3.2,2.69-.25,5.4-1.44,5.5-7.91l1.64-6.44s-.58-.12-1.74,1.5c-1.65,2.31-3.93,7.93-7.21,7.81-2.8-.1-8.29-1.08-10.93-3.72-1.13-1.13-2.27-6.65-2.64-9.01-.26-1.64-1.08-1.44-1.08-1.44Z"/><path class="cls-1" d="M152.23,153.49s-22.11,41.61-22.37,49.67,29.64,52.46,31.72,54.8l11.83-4.31"/><path class="cls-1" d="M168.09,171.43l3.64,4.94s.1,8.17.2,17.17c.26,22.2.84,59.76,2.14,67.35l23.35-1.43s9.34-90.9,9.9-102.34"/><polyline class="cls-1" points="172.62 224.62 165.41 205.99 171.65 194.17"/><path class="cls-5" d="M164.76,256.92l.99,6.17-3.59,2.45s-6.43,3.3-3.79,5.54,15.63.4,15.63.4l-.59-17.82-8.65,3.26Z"/><path class="cls-14" d="M174.21,272.09l29.8.48c1.95-.09,2.68-2.56,1.13-3.74-.43-.33-.92-.65-1.45-.94-2.86-1.54-11.18-3.24-12.14-3.13.75-2.07.45-3.55.63-5.29l-18.11,1.43.14,11.19Z"/><path class="cls-1" d="M177.44,80.75c0,2.6.17,8.18,7.59,9.78,7.39,1.6,10.98-2,12.78-5.19"/><line class="cls-1" x1="213.84" y1="113.95" x2="212.42" y2="99.92"/><path class="cls-1" d="M160.66,202.64c1.65.72,3.3,1.78,4.75,3.35"/><path class="cls-14" d="M171.94,193.54c-.11-9-.2-17.17-.2-17.17l-3.64-4.94"/><path class="cls-14" d="M222.93,129.97c2.12,3.83,4.2,7.51,4.2,7.51,1.16-.85,1.8-1.69,3.27-2.96,0,0-1.98-.3-3.64-1.53-2.4-1.78-4.66-4.54-3.82-3.01Z"/><path class="cls-6" d="M191.55,264.76s-3.85-2.89-8.82-.21"/><path class="cls-6" d="M167.25,263.4s3.63-1.91,6.69,0"/><line class="cls-6" x1="174.13" y1="262.45" x2="174.52" y2="269.71"/><polyline class="cls-1" points="191.13 63.19 189.16 67.53 192.32 68.05"/><path class="cls-14" d="M183.79,75.45s2.15-4.56,3.42-5.06,5.7.25,6.58,1.01,1.65,5.95,1.65,5.95l-2.28.25-1.01-4.43-4.31-1.01-1.65,3.67-2.41-.38Z"/><path class="cls-1" d="M184.54,61.71s1.03-1.72,2.75-.17"/><path class="cls-1" d="M196.67,63.5s1.51-1.04,2.33.97"/><rect class="cls-16" x="282.99" y="54.64" width="42.54" height="10.53" rx="1.61" ry="1.61"/><line class="cls-1" x1="304.1" y1="61.06" x2="322.22" y2="61.06"/><line class="cls-1" x1="304.1" y1="58.98" x2="322.22" y2="58.98"/><rect class="cls-11" x="286.84" y="58.6" width="15.25" height="2.81" rx="1.41" ry="1.41"/><line class="cls-1" x1="127.89" y1="272.32" x2="214.75" y2="272.32"/><path class="cls-3" d="M208.38,36.42l-.45-3.86h-6.33c-2.05,0-3.71-1.66-3.71-3.71v-13.09c0-2.05,1.66-3.71,3.71-3.71h18.16c2.05,0,3.71,1.66,3.71,3.71v13.04c0,2.05-1.66,3.71-3.71,3.71h-7.16l-4.23,3.9Z"/><polyline class="cls-18" points="206.88 27.53 203.43 27.53 203.43 19.72 206.72 19.72"/><path class="cls-1" d="M208.17,14.79h0c.73,0,1.33.59,1.33,1.33v2.92h4.55c1.12,0,2.03.91,2.03,2.03v4.43c0,1.12-.91,2.03-2.03,2.03h-7.16l-.03-11.41c0-.73.59-1.33,1.33-1.33Z"/><path class="cls-17" d="M90.65,57.38h-36.1v-.05c0-1.48,1.2-2.68,2.68-2.68h30.75c1.5,0,2.7,1.23,2.67,2.72h0Z"/><path class="cls-3" d="M90.65,57.38h-36.1v28.31c0,.85.69,1.53,1.53,1.53h33.08c.85,0,1.54-.69,1.53-1.54l-.04-28.3Z"/><rect class="cls-14" x="58.25" y="61.6" width="17.01" height="2.2"/><line class="cls-1" x1="58.65" y1="66.2" x2="86.03" y2="66.2"/><line class="cls-1" x1="64.75" y1="70.77" x2="84.94" y2="70.77"/><line class="cls-1" x1="64.75" y1="75.57" x2="84.94" y2="75.57"/><line class="cls-1" x1="64.75" y1="80.19" x2="84.94" y2="80.19"/><circle class="cls-17" cx="61.09" cy="71.11" r="1.2"/><circle class="cls-17" cx="61.09" cy="75.8" r="1.2"/><circle class="cls-17" cx="61.09" cy="80.31" r="1.2"/><polyline class="cls-1" points="254.93 91.2 257.92 91.76 257.86 94.73 261.24 95.12 261.18 98.5"/><polyline class="cls-1" points="48.94 188 50.95 190.73 53.63 189.06 55.56 191.96"/><polyline class="cls-1" points="377.24 17.6 379.25 20.33 381.93 18.67 383.85 21.56"/><polyline class="cls-1" points="57.89 32.1 59.9 34.83 62.58 33.16 64.51 36.06"/><polyline class="cls-1" points="318.79 228.35 321.06 230.87 323.56 228.95 325.76 231.64"/><polyline class="cls-1" points="111.57 63.59 108.34 64.62 109.05 67.69 105.69 68.58"/><rect class="cls-18" x="87.03" y="142.27" width="54.99" height="13.62" rx="2.08" ry="2.08"/><line class="cls-1" x1="114.32" y1="150.57" x2="137.73" y2="150.57"/><line class="cls-1" x1="114.32" y1="147.88" x2="137.73" y2="147.88"/><rect class="cls-11" x="92" y="147.38" width="19.71" height="3.64" rx="1.82" ry="1.82"/><rect class="cls-13" x="288.35" y="170.02" width="21.39" height="13.15" rx="1.19" ry="1.19"/><polyline class="cls-1" points="291.18 172.35 299.13 178.08 307.68 172.35"/><line class="cls-3" x1="290.53" y1="180.97" x2="296" y2="175.99"/><line class="cls-3" x1="303.07" y1="175.64" x2="307.98" y2="181.57"/><rect class="cls-3" x="33.33" y="150.35" width="13.76" height="8.46" rx=".77" ry=".77" transform="translate(-4.52 1.25) rotate(-1.68)"/><polyline class="cls-1" points="35.08 152 40.3 155.53 45.7 151.68"/><line class="cls-3" x1="34.82" y1="157.56" x2="38.25" y2="154.25"/><line class="cls-3" x1="42.79" y1="153.89" x2="46.06" y2="157.61"/><path class="cls-8" d="M127.69,272.36c-6.91,0-10.57-15.69-5.76-15.37s10.25,15.37,5.76,15.37Z"/><path class="cls-1" d="M134.27,272.18s.46-12.26-8.39-18.04c-12.06-7.88-15.1-11.75-7.13-14.26,7.97-2.52,17.46,2.25,20.56,13.01,1.91,6.65-1.26,19.3-1.26,19.3"/><path class="cls-1" d="M118.75,239.87s10.14,4.44,13.57,10.22c5.93,10.01,4.26,22.06,4.26,22.06"/><line class="cls-1" x1="132.79" y1="250.92" x2="133.3" y2="243.76"/><line class="cls-1" x1="134.32" y1="253.22" x2="135.35" y2="246.18"/><line class="cls-1" x1="114.38" y1="243.5" x2="124.61" y2="243.5"/><line class="cls-1" x1="131.51" y1="259.48" x2="136.37" y2="262.29"/><path class="cls-1" d="M140.39,272.12s.52-3.79,3.51-5.14"/><line class="cls-1" x1="122.34" y1="259.18" x2="127.75" y2="272.07"/><path class="cls-4" d="M227.25,75.08s1.81-2.32,2.68-3.18c2.86-2.84,6.34-3.39,7.86-6.6s-.7-10.96-8.48-10.15c-6.64.69-6.88,7.61-6.8,10.64s-1.5,5.4-1.5,5.4c0,0,1.31-.49,3.62,1.24s2.62,2.65,2.62,2.65Z"/><path class="cls-1" d="M227.25,75.08s-2.07,3.51-5.58,1.44-.66-5.34-.66-5.34c0,0,1.37-.3,3.62,1.24s2.62,2.65,2.62,2.65Z"/><line class="cls-1" x1="222.92" y1="71.48" x2="225.68" y2="64.75"/><line class="cls-1" x1="225.9" y1="72.96" x2="231.11" y2="67.55"/><path class="cls-1" d="M225.61,65.45s1.33.96,3.28-.3c0,0-.44,3.17,1.42,3.16"/><path class="cls-1" d="M220.24,73.4s3.77-.5,5.56,3.34"/><path class="cls-6" d="M233.93,58.34s3.09,2.08,2.37,5.72"/><circle class="cls-1" cx="241.47" cy="106.17" r="1.74"/><circle class="cls-1" cx="120.79" cy="219.11" r="1.74"/><circle class="cls-1" cx="253.04" cy="254.48" r="1.74"/><circle class="cls-14" cx="253.34" cy="16.38" r="1.08"/><circle class="cls-14" cx="354.13" cy="149.35" r="1.08"/><circle class="cls-1" cx="373.63" cy="245.86" r="1.74"/><circle class="cls-1" cx="75.31" cy="167.76" r="1.74"/><circle class="cls-1" cx="29.39" cy="68.75" r="1.74"/><circle class="cls-1" cx="163.54" cy="64.09" r="1.74"/><polygon class="cls-1" points="292.4 186.44 300.37 181.03 299.71 190.91 296.93 187.05 292.4 186.44"/><path class="cls-9" d="M94.01,16.23h17.74c1.04,0,1.89.84,1.89,1.89h-21.51c0-1.04.84-1.89,1.89-1.89Z"/><path class="cls-3" d="M92.13,18.11h21.51v18.84c0,.67-.54,1.21-1.21,1.21h-19.09c-.67,0-1.21-.54-1.21-1.21v-18.84h0Z"/><rect class="cls-9" x="94.62" y="20.9" width="16.8" height="7.5" rx=".7" ry=".7"/><line class="cls-1" x1="111.01" y1="34.64" x2="95.02" y2="34.64"/><line class="cls-1" x1="111.01" y1="31.06" x2="95.02" y2="31.06"/><rect class="cls-1" x="253.4" y="63.7" width="7.42" height="7.42"/><rect class="cls-18" x="260.82" y="56.65" width="7.42" height="7.42"/><polygon class="cls-1" points="95.62 195.46 100.79 195.46 100.79 200.67 95.62 200.66 95.62 195.46"/><rect class="cls-17" x="90.42" y="200.4" width="5.21" height="5.21" transform="translate(186.04 406.01) rotate(180)"/><polygon class="cls-1" points="365.32 31.62 370.49 31.62 370.49 36.83 365.32 36.82 365.32 31.62"/><rect class="cls-17" x="360.11" y="36.56" width="5.21" height="5.21" transform="translate(725.43 78.33) rotate(180)"/><rect class="cls-9" x="297.11" y="11.56" width="17.01" height="17.01" rx="8.5" ry="8.5"/><path class="cls-11" d="M301.19,21.64l2.53,2.53c.41.41,1.12.41,1.53,0l5.69-5.69c.99-.99-.54-2.52-1.53-1.53l-5.69,5.69h1.53l-2.53-2.53c-.99-.99-2.52.54-1.53,1.53h0Z"/><line class="cls-1" x1="293.15" y1="82.97" x2="302.45" y2="82.97"/><line class="cls-1" x1="85.12" y1="256.7" x2="94.42" y2="256.7"/><line class="cls-1" x1="303.77" y1="205.88" x2="310.44" y2="205.88"/><path class="cls-3" d="M320.36,154.8h-49.35c-1.76,0-3.18-1.42-3.18-3.18v-16.27l-7.53-4.82,7.53-4.02v-16.26c0-1.76,1.42-3.18,3.18-3.18h49.35c1.76,0,3.18,1.42,3.18,3.18v41.37c0,1.76-1.42,3.18-3.18,3.18Z"/><rect class="cls-18" x="275.17" y="114.06" width="41.38" height="33.34" rx="1.76" ry="1.76"/><path class="cls-17" d="M301.06,139.77s11.98,1.31,13.72,7.64h-37.85s6.9-7.64,15.48-7.64h8.65Z"/><path class="cls-10" d="M291.87,117.74c-1.5,1.25-5.51,9.35-5.13,13.57s6.19,5.29,6.19,5.29l-.86,3.02-.08,2.11c-.05,1.41,1.34,2.43,2.67,1.95l6.26-2.26,2.63-8.16s5.17-11.49,3.06-13.6-10.15-5.75-14.75-1.92Z"/><path class="cls-14" d="M290.14,120.09c-2.88-1-5.9-4.03-2.52-8.14,2.08-2.53,8.31-1.05,10.47.9,2.84,2.56,4.54,4.79,8.8,4.26,2.27-.28,4.06,1.19,3.41,3.69-.69,2.63-5.36,15.21-7.85,15.4-1.14.09-.69.28-1.42-.18-.86-.54,1.16-4.71,1.16-4.71l2.4-6.31-14.44-4.91Z"/><path class="cls-10" d="M303.05,127.98s1.89-1.01,2.41,1.03c.64,2.54-2.97,4.04-3.79,3.44s1.38-4.47,1.38-4.47Z"/><path class="cls-14" d="M293.74,120.56c-1.78.18-2.87,2.03-.74,2.38s6.56.38,6.56.38l-5.82-2.76Z"/><path class="cls-1" d="M296.72,127.59s1.5-.96,2.05.55"/><path class="cls-1" d="M288.81,125.54s1.36-1.64,1.64.27"/><polyline class="cls-1" points="292.22 126.23 290.17 128.95 291.54 129.36"/><path class="cls-1" d="M291.84,131.58s1.84,1.44,3.55,0"/><path class="cls-13" d="M317.71,111.71l-4.31,4.46-15.36,14.59s-2.19,6.2-1.85,7.12,7.42.24,7.42.24c0,0,5.72-5.07,18.05-17.23,3.82-3.77-3.99,5.24-1.6,2.59,3.88-4.3,4.57-5.22,4.57-5.22l-6.92-6.55Z"/><path class="cls-10" d="M298.04,130.75s-2.19,6.2-1.85,7.12,7.42.24,7.42.24l-1.74-.75c-.28-.12-.49-.35-.58-.63l-.69-2.03-1.68-1.07c-.25-.16-.42-.41-.47-.7l-.4-2.17Z"/><path class="cls-15" d="M317.71,111.71l-4.31,4.46s1.12,2.13,3.14,4.3c1.67,1.8,3.52,3.01,3.52,3.01,3.88-4.3,4.57-5.22,4.57-5.22,0,0-1.37-1.13-3.65-3.35s-3.27-3.2-3.27-3.2Z"/><path class="cls-17" d="M324.83,109.87c-1.44-1.34-2.38-1.96-3.05-1.75s-4.07,3.59-4.07,3.59c0,0,5.35,6.42,6.92,6.55s3.2-2.63,3.27-3.5c.09-1.14-.06-2.09-3.07-4.89Z"/><path class="cls-1" d="M303.62,138.11s-3.71.48-5.91.26c-.73-.07-1.3-.22-1.51-.5s-.19-.85-.06-1.57c.4-2.16,1.9-5.55,1.9-5.55"/><path class="cls-14" d="M296.14,136.3c-.13.72-.15,1.3.06,1.57s.77.42,1.51.5c0,0,.14-.59-.5-1.26s-1.06-.81-1.06-.81Z"/><path class="cls-1" d="M298.92,133.63s7.92-6.64,12.17-11.42"/><line class="cls-1" x1="304.64" y1="133.85" x2="317.28" y2="123.25"/><polyline class="cls-1" points="301.29 136.73 300.6 134.7 298.7 133.57"/><path class="cls-1" d="M318.77,122.35s-2.49-1.45-5.36-6.18"/><path class="cls-1" d="M318.76,117.46s-2.54-2.69-3.46-4.34"/><path class="cls-1" d="M323.7,118.03s-2.37-1.51-5.14-5.3"/><circle class="cls-14" cx="54.99" cy="114.77" r="2.25"/><circle class="cls-14" cx="129.28" cy="112.73" r="2.25"/><circle class="cls-14" cx="113.33" cy="183.92" r="2.25"/><circle class="cls-14" cx="360.28" cy="94.19" r="2.25"/><circle class="cls-14" cx="366.45" cy="195.66" r="2.25"/><line class="cls-1" x1="52.09" y1="96.03" x2="58.68" y2="134.82"/><polygon class="cls-14" points="36.52 123.67 44.49 118.26 43.83 128.14 41.04 124.29 36.52 123.67"/><polyline class="cls-18" points="345.02 231.61 341.19 231.61 341.19 223.85 344.84 223.85"/><path class="cls-1" d="M346.45,218.94h0c.81,0,1.47.59,1.47,1.32v2.91h5.04c1.24,0,2.25.9,2.25,2.02v4.41c0,1.11-1.01,2.02-2.25,2.02h-7.94l-.04-11.35c0-.73.66-1.32,1.47-1.32Z"/><polyline class="cls-18" points="2.67 65.37 0 65.37 0 59.32 2.55 59.32"/><path class="cls-1" d="M3.67,55.5h0c.57,0,1.03.46,1.03,1.03v2.26h3.52c.87,0,1.57.7,1.57,1.57v3.44c0,.87-.7,1.57-1.57,1.57H2.67l-.03-8.84c0-.57.46-1.03,1.03-1.03Z"/></svg>