<svg id="Layer_1" data-name="Layer 1" xmlns="http://www.w3.org/2000/svg" viewBox="0 0 631.89653 457.03516"><defs><style>.cls-1{fill:#fdfdfd;}.cls-2{fill:#f7c521;}</style></defs><path class="cls-1" d="M631.89653,51.5257q-177.61989,174.81044-355.977,350.34657L0,129.8474c18.01067,11.79945,36.11313,23.459,54.11334,35.27439,75.80725,49.76009,157.67715,79.22746,249.62415,70.41274,31.14388-2.98567,61.78153-11.25152,94.22935-17.40375-48.76637-49.628-94.86323-96.53933-140.96013-143.45069,53.55226,32.73168,108.52948,60.16428,173.47086,60.23148,76.74595.07944,140.62914-36.288,201.226-83.6026Z"/><circle class="cls-2" cx="432.67717" cy="64.5" r="64.5"/><path class="cls-1" d="M62.35784,425.20508v.84863a5.05611,5.05611,0,0,0-2.50147,1.05567,9.51935,9.51935,0,0,0-2.15722,3.44238l-10.855,26.4834h-.84912L34.33684,430.207a14.76142,14.76142,0,0,0-1.2622-2.52344,4.023,4.023,0,0,0-1.41114-1.11328,6.55642,6.55642,0,0,0-2.26074-.5166v-.84863H42.11663v.84863a5.78183,5.78183,0,0,0-2.79981.73438,1.67477,1.67477,0,0,0-.64258,1.35449,10.36477,10.36477,0,0,0,1.05567,3.58008l7.91748,18.24414,7.34375-18.01563a12.12557,12.12557,0,0,0,1.07861-3.69433,1.74436,1.74436,0,0,0-.66553-1.27442,4.3847,4.3847,0,0,0-2.249-.85937c-.07666-.01563-.20654-.03907-.39014-.06934v-.84863Z"/><path class="cls-1" d="M72.75383,426.90234v12.30078H79.5927q2.66163,0,3.55713-.80273a5.16931,5.16931,0,0,0,1.33106-3.71777H85.33v10.832h-.84912a11.89059,11.89059,0,0,0-.64258-2.915,2.87805,2.87805,0,0,0-1.354-1.26172,6.91951,6.91951,0,0,0-2.8916-.459H72.75383v10.25781a9.53053,9.53053,0,0,0,.1836,2.51367,1.43751,1.43751,0,0,0,.64258.71094,3.9041,3.9041,0,0,0,1.74414.26367h5.27832a14.24833,14.24833,0,0,0,3.83252-.36719,5.71221,5.71221,0,0,0,2.29492-1.44531,17.66886,17.66886,0,0,0,2.91455-4.291h.918l-2.68506,7.80274H63.89544v-.84961H64.997a4.369,4.369,0,0,0,2.08838-.52734,1.9352,1.9352,0,0,0,.99853-1.10157,10.83685,10.83685,0,0,0,.26367-3.00683V430.62109q0-2.96191-.59668-3.64941a3.55361,3.55361,0,0,0-2.7539-.918H63.89544v-.84863H87.87737l.34424,6.81543h-.895a10.78684,10.78684,0,0,0-1.0669-3.374,3.672,3.672,0,0,0-1.73291-1.39941,10.39389,10.39389,0,0,0-3.23584-.34473Z"/><path class="cls-1" d="M118.58342,447.71777l.75733.16114-2.66211,8.44531H92.582v-.84961h1.17041a3.12839,3.12839,0,0,0,2.82275-1.28516,7.40537,7.40537,0,0,0,.48194-3.39648V430.71289q0-2.915-.64258-3.64941a3.37306,3.37306,0,0,0-2.66211-1.00977H92.582v-.84863h14.09082v.84863a8.61224,8.61224,0,0,0-3.47705.459,2.81308,2.81308,0,0,0-1.36524,1.21582,10.01007,10.01007,0,0,0-.36718,3.51171V450.793a6.35479,6.35479,0,0,0,.36718,2.61621,1.64108,1.64108,0,0,0,.84913.71191,14.95713,14.95713,0,0,0,3.58007.22852h2.272a16.47569,16.47569,0,0,0,5.02588-.52734,6.53154,6.53154,0,0,0,2.63916-1.8711A15.327,15.327,0,0,0,118.58342,447.71777Z"/><path class="cls-1" d="M141.85393,445.9043H129.80559l-2.11133,4.91211a7.77149,7.77149,0,0,0-.78027,2.707,1.57461,1.57461,0,0,0,.67676,1.252,5.92241,5.92241,0,0,0,2.92627.69922v.84961H120.7177v-.84961a5.28355,5.28355,0,0,0,2.52442-.89453,14.065,14.065,0,0,0,2.59326-4.47559l10.94677-25.61133h.80323l10.832,25.88672a11.77779,11.77779,0,0,0,2.37549,4.04981,4.829,4.829,0,0,0,2.97168,1.04492v.84961H141.48674v-.84961a4.60318,4.60318,0,0,0,2.51319-.61914,1.59993,1.59993,0,0,0,.65381-1.28516,9.521,9.521,0,0,0-.918-3.19043Zm-.64258-1.69727L135.933,431.63086,130.517,444.207Z"/><path class="cls-1" d="M173.52385,456.32422l-12.02539-26.18555v20.792q0,2.86964.61963,3.58008a3.40141,3.40141,0,0,0,2.68506.96387h1.10156v.84961h-10.832v-.84961h1.10156a3.16109,3.16109,0,0,0,2.79981-1.19336,6.965,6.965,0,0,0,.50488-3.35059v-20.333a7.11723,7.11723,0,0,0-.459-2.9834,2.54237,2.54237,0,0,0-1.18164-1.11231,6.33366,6.33366,0,0,0-2.76563-.44824v-.84863h8.8125l11.291,24.34863,11.10742-24.34863h8.8125v.84863h-1.07861a3.18713,3.18713,0,0,0-2.82276,1.19336,6.95883,6.95883,0,0,0-.50488,3.35059v20.333q0,2.86964.64258,3.58008a3.40141,3.40141,0,0,0,2.68506.96387h1.07861v.84961H181.87737v-.84961h1.10156a3.12552,3.12552,0,0,0,2.79981-1.19336,6.965,6.965,0,0,0,.50488-3.35059v-20.792l-12.00244,26.18555Z"/><path class="cls-1" d="M215.31438,456.32422,203.289,430.13867v20.792q0,2.86964.61963,3.58008a3.40141,3.40141,0,0,0,2.68506.96387h1.10156v.84961h-10.832v-.84961h1.10156a3.16106,3.16106,0,0,0,2.79981-1.19336,6.965,6.965,0,0,0,.50488-3.35059v-20.333a7.117,7.117,0,0,0-.459-2.9834,2.54227,2.54227,0,0,0-1.18164-1.11231,6.33358,6.33358,0,0,0-2.76562-.44824v-.84863h8.8125l11.291,24.34863,11.10743-24.34863h8.8125v.84863H235.808a3.18712,3.18712,0,0,0-2.82275,1.19336,6.95883,6.95883,0,0,0-.50488,3.35059v20.333q0,2.86964.64257,3.58008a3.40141,3.40141,0,0,0,2.68506.96387h1.07862v.84961H223.6679v-.84961h1.10156a3.1255,3.1255,0,0,0,2.7998-1.19336,6.96488,6.96488,0,0,0,.50489-3.35059v-20.792l-12.00244,26.18555Z"/><path class="cls-1" d="M259.37688,445.9043H247.32854l-2.11133,4.91211a7.77149,7.77149,0,0,0-.78027,2.707,1.57461,1.57461,0,0,0,.67676,1.252,5.92241,5.92241,0,0,0,2.92627.69922v.84961h-9.79932v-.84961a5.28345,5.28345,0,0,0,2.52441-.89453,14.0648,14.0648,0,0,0,2.59327-4.47559l10.94677-25.61133h.80323l10.832,25.88672a11.77779,11.77779,0,0,0,2.37549,4.04981,4.829,4.829,0,0,0,2.97168,1.04492v.84961H259.00969v-.84961a4.60318,4.60318,0,0,0,2.51319-.61914,1.59993,1.59993,0,0,0,.65381-1.28516,9.521,9.521,0,0,0-.918-3.19043Zm-.64258-1.69727L253.456,431.63086,248.04,444.207Z"/><path class="cls-1" d="M298.75774,447.71777l.75732.16114-2.6621,8.44531H272.75628v-.84961h1.17041a3.1284,3.1284,0,0,0,2.82275-1.28516,7.40541,7.40541,0,0,0,.48193-3.39648V430.71289q0-2.915-.64257-3.64941a3.37306,3.37306,0,0,0-2.66211-1.00977h-1.17041v-.84863H286.8471v.84863a8.61221,8.61221,0,0,0-3.47705.459,2.81308,2.81308,0,0,0-1.36524,1.21582,10.00973,10.00973,0,0,0-.36719,3.51171V450.793a6.35458,6.35458,0,0,0,.36719,2.61621,1.64106,1.64106,0,0,0,.84912.71191,14.9573,14.9573,0,0,0,3.58008.22852h2.272a16.47569,16.47569,0,0,0,5.02588-.52734,6.53147,6.53147,0,0,0,2.63916-1.8711A15.32727,15.32727,0,0,0,298.75774,447.71777Z"/><path class="cls-1" d="M343.04827,425.20508v.84863a5.05217,5.05217,0,0,0-2.501,1.05567,9.52653,9.52653,0,0,0-2.1582,3.44238l-10.85449,26.4834H326.686L315.02776,430.207a14.86318,14.86318,0,0,0-1.2627-2.52344,4.02727,4.02727,0,0,0-1.41113-1.11328,6.55362,6.55362,0,0,0-2.26074-.5166v-.84863h12.71387v.84863a5.78,5.78,0,0,0-2.79981.73438,1.67479,1.67479,0,0,0-.6426,1.35449,10.36492,10.36492,0,0,0,1.05569,3.58008l7.918,18.24414,7.34375-18.01563a12.12,12.12,0,0,0,1.07812-3.69433,1.74167,1.74167,0,0,0-.666-1.27442,4.38265,4.38265,0,0,0-2.24805-.85937c-.07715-.01563-.207-.03907-.39063-.06934v-.84863Z"/><path class="cls-1" d="M358.12542,455.47461v.84961h-13.334v-.84961H345.893a3.32508,3.32508,0,0,0,2.80079-1.125q.55077-.73242.55078-3.5332V430.71289a10.31524,10.31524,0,0,0-.29883-3.12109,2.06842,2.06842,0,0,0-.94141-.98731,4.34864,4.34864,0,0,0-2.11133-.55078h-1.10156v-.84863h13.334v.84863h-1.125a3.29546,3.29546,0,0,0-2.77637,1.124q-.57421.73536-.57324,3.53516v20.10352a10.30139,10.30139,0,0,0,.29785,3.12109,2.04673,2.04673,0,0,0,.96387.98633,4.21769,4.21769,0,0,0,2.08789.55078Z"/><path class="cls-1" d="M360.07659,456.32422v-.84961h1.1709a3.09058,3.09058,0,0,0,2.7998-1.26172,7.20334,7.20334,0,0,0,.50488-3.39648V430.71289q0-2.915-.64257-3.64941a3.37306,3.37306,0,0,0-2.66211-1.00977h-1.1709v-.84863h12.668q6.977,0,10.61425,1.583a12.63236,12.63236,0,0,1,5.85254,5.27832,16.28863,16.28863,0,0,1,2.21485,8.53711,15.575,15.575,0,0,1-3.94727,10.85546q-4.42968,4.86476-13.49414,4.86524Zm8.88183-2.25a23.34421,23.34421,0,0,0,4.8877.64258,11.604,11.604,0,0,0,8.83594-3.74024q3.51123-3.74121,3.51172-10.14355,0-6.44824-3.51172-10.167a11.85433,11.85433,0,0,0-9.01953-3.7168,19.49307,19.49307,0,0,0-4.70411.665Z"/><path class="cls-1" d="M415.6137,425.20508h10.85547v.84863h-.59766a4.69662,4.69662,0,0,0-1.74414.52832,6.81157,6.81157,0,0,0-2.08789,1.51367,20.64442,20.64442,0,0,0-2.31836,3.21289l-7.50391,11.81934v7.80273q0,2.86964.64258,3.58008a3.541,3.541,0,0,0,2.75391.96387h1.00976v.84961H403.40471v-.84961h1.10157a3.161,3.161,0,0,0,2.7998-1.19336,6.97115,6.97115,0,0,0,.50488-3.35059v-7.36621l-8.53711-13.03515a27.56015,27.56015,0,0,0-2.05371-2.86914,8.06237,8.06237,0,0,0-2.2373-1.377,3.074,3.074,0,0,0-1.332-.22949v-.84863h13.31054v.84863h-.6875a4.01518,4.01518,0,0,0-1.98535.50488,1.63278,1.63278,0,0,0-.90722,1.51465,7.25639,7.25639,0,0,0,1.40039,2.9834l6.49414,10.0293,6.10547-9.59375a7.08868,7.08868,0,0,0,1.377-3.21289,2.03638,2.03638,0,0,0-.333-1.14649,2.24463,2.24463,0,0,0-.95215-.793,4.64424,4.64424,0,0,0-1.85937-.28613Z"/><path class="cls-1" d="M443.45159,445.9043H431.40276l-2.11133,4.91211a7.77127,7.77127,0,0,0-.78027,2.707,1.57458,1.57458,0,0,0,.67676,1.252,5.92169,5.92169,0,0,0,2.92578.69922v.84961h-9.79883v-.84961a5.28568,5.28568,0,0,0,2.52441-.89453,14.05681,14.05681,0,0,0,2.59278-4.47559l10.94726-25.61133h.80274l10.832,25.88672a11.7928,11.7928,0,0,0,2.376,4.04981,4.82792,4.82792,0,0,0,2.97168,1.04492v.84961H443.0844v-.84961a4.60386,4.60386,0,0,0,2.5127-.61914,1.59941,1.59941,0,0,0,.65332-1.28516,9.50905,9.50905,0,0,0-.918-3.19043ZM442.809,444.207l-5.2793-12.57617-5.416,12.57617Z"/><path class="cls-1" d="M482.83147,447.71777l.75684.16114-2.66211,8.44531H456.83049v-.84961h1.16993a3.12641,3.12641,0,0,0,2.82226-1.28516,7.38946,7.38946,0,0,0,.48242-3.39648V430.71289q0-2.915-.64257-3.64941a3.37306,3.37306,0,0,0-2.66211-1.00977h-1.16993v-.84863h14.08985v.84863a8.60945,8.60945,0,0,0-3.47656.459,2.81088,2.81088,0,0,0-1.36524,1.21582,10.00973,10.00973,0,0,0-.36719,3.51171V450.793a6.35458,6.35458,0,0,0,.36719,2.61621,1.64225,1.64225,0,0,0,.84961.71191,14.95138,14.95138,0,0,0,3.58008.22852h2.27148a16.4676,16.4676,0,0,0,5.02539-.52734,6.52637,6.52637,0,0,0,2.63965-1.8711A15.33986,15.33986,0,0,0,482.83147,447.71777Z"/><path class="cls-1" d="M506.102,445.9043H494.05315l-2.11133,4.91211a7.77127,7.77127,0,0,0-.78027,2.707,1.57461,1.57461,0,0,0,.67676,1.252,5.92169,5.92169,0,0,0,2.92578.69922v.84961h-9.79883v-.84961a5.28568,5.28568,0,0,0,2.52441-.89453,14.05662,14.05662,0,0,0,2.59278-4.47559l10.94726-25.61133h.80274l10.832,25.88672a11.79262,11.79262,0,0,0,2.376,4.04981,4.82787,4.82787,0,0,0,2.97168,1.04492v.84961H505.73479v-.84961a4.60386,4.60386,0,0,0,2.5127-.61914,1.59941,1.59941,0,0,0,.65332-1.28516,9.50905,9.50905,0,0,0-.918-3.19043Zm-.64258-1.69727-5.2793-12.57617-5.416,12.57617Z"/><path class="cls-1" d="M536.62346,425.20508h10.85547v.84863h-.59765a4.69656,4.69656,0,0,0-1.74414.52832,6.81173,6.81173,0,0,0-2.0879,1.51367,20.64383,20.64383,0,0,0-2.31835,3.21289L533.227,443.12793v7.80273q0,2.86964.64258,3.58008a3.541,3.541,0,0,0,2.7539.96387h1.00977v.84961H524.41448v-.84961H525.516a3.16107,3.16107,0,0,0,2.79981-1.19336,6.97128,6.97128,0,0,0,.50488-3.35059v-7.36621l-8.53711-13.03515a27.56332,27.56332,0,0,0-2.05371-2.86914,8.0623,8.0623,0,0,0-2.23731-1.377,3.074,3.074,0,0,0-1.332-.22949v-.84863h13.31055v.84863h-.6875a4.01513,4.01513,0,0,0-1.98535.50488,1.63278,1.63278,0,0,0-.90723,1.51465,7.25653,7.25653,0,0,0,1.40039,2.9834l6.49414,10.0293,6.10547-9.59375a7.08856,7.08856,0,0,0,1.377-3.21289,2.03637,2.03637,0,0,0-.333-1.14649,2.24463,2.24463,0,0,0-.95215-.793,4.64427,4.64427,0,0,0-1.85938-.28613Z"/><path class="cls-1" d="M564.46135,445.9043H552.41253l-2.11133,4.91211a7.77134,7.77134,0,0,0-.78028,2.707,1.57461,1.57461,0,0,0,.67676,1.252,5.92172,5.92172,0,0,0,2.92578.69922v.84961h-9.79882v-.84961a5.28568,5.28568,0,0,0,2.52441-.89453,14.05683,14.05683,0,0,0,2.59277-4.47559l10.94727-25.61133h.80273l10.832,25.88672a11.79278,11.79278,0,0,0,2.376,4.04981,4.8279,4.8279,0,0,0,2.97168,1.04492v.84961H564.09417v-.84961a4.60379,4.60379,0,0,0,2.51269-.61914,1.59938,1.59938,0,0,0,.65332-1.28516,9.50881,9.50881,0,0,0-.918-3.19043Zm-.64257-1.69727-5.2793-12.57617-5.416,12.57617Z"/></svg>