<svg id="OBJECTS" xmlns="http://www.w3.org/2000/svg" viewBox="0 0 1745.5325 1008.9216"><defs><style>.cls-1,.cls-19{fill:#fff;}.cls-2{fill:#a0c6f4;}.cls-13,.cls-20,.cls-22,.cls-23,.cls-24,.cls-3,.cls-4{fill:none;}.cls-19,.cls-20,.cls-3{stroke:#f5f5f5;}.cls-13,.cls-19,.cls-20,.cls-22,.cls-24,.cls-3,.cls-4{stroke-linecap:round;stroke-linejoin:round;}.cls-4{stroke:#2a1e17;}.cls-5{fill:#2a1e17;}.cls-6{fill:#f9865f;}.cls-7{fill:#91ba83;}.cls-8{fill:#f5f5f5;}.cls-9{fill:#7595ec;}.cls-10{fill:#ff8a66;}.cls-11{fill:#fff7c9;}.cls-12{fill:#2a1e33;}.cls-13{stroke:#2a1e33;}.cls-14{fill:#ff6d66;}.cls-15{fill:#fad8b0;}.cls-16{fill:#c6cbcb;}.cls-17{fill:#fff7dc;}.cls-18{fill:#ffe1c0;}.cls-20{stroke-width:0.67069px;}.cls-21{fill:#96bd89;}.cls-22{stroke:#ff6d66;}.cls-23{stroke:#fad8b0;stroke-miterlimit:10;}.cls-24{stroke:#a0c6f4;}</style></defs><path class="cls-1" d="M875.15054,280.65142c-52.396-50.042-110.15283-77.189-149.55127-91.1792-36.07715-12.81054-63.751-17.21631-72.0249-18.334,19.2041-51.978,50.45556-133.09961,56.06982-138.82764a96.825,96.825,0,0,1,15.57324-1.02978c46.90869,0,98.6084,20.11279,125.25049,32.10205,53.69531,24.16308,83.48828,50.23486,99.02637,67.85156,14.24511,16.15137,19.42773,28.32764,20.70019,31.74365Z"/><path class="cls-2" d="M725.21755,33.28077c19.97434,0,62.70038,4.14766,124.42969,31.92586,53.17566,23.929,82.70636,49.69125,98.11579,67.08939,13.0014,14.67926,18.39434,26.01731,20.1474,30.32706L874.95669,277.70872a409.80475,409.80475,0,0,0-75.61053-56.33194,437.064,437.064,0,0,0-73.07752-33.7891c-33.62033-11.93821-59.44563-16.5607-69.94879-18.096,3.85454-10.38391,13.57622-36.44419,23.82126-62.89642,22.19137-57.29735,28.76666-69.75462,30.61487-72.436a101.62033,101.62033,0,0,1,14.46157-.87848m0-4c-10.80423,0-16.35711,1.13971-16.35711,1.13971C702.54888,32.52433,650.825,172.811,650.825,172.811s122.7763,12.52525,224.51205,110.7927l97.11136-120.23315s-16.205-54.582-121.15976-101.81166C789.78512,33.88233,746.91723,29.28077,725.21755,29.28077Z"/><path class="cls-3" d="M668.85012,183.70758S789.57526,195.902,863.96146,264.191"/><polygon class="cls-2" points="773.098 177.82 818.135 90.247 864.424 181.573 773.098 177.82"/><polygon class="cls-4" points="781.855 176.569 826.893 88.996 873.181 180.322 781.855 176.569"/><path class="cls-3" d="M739.578,23.96017s135.3585,12.19446,219.50026,112.189"/><path class="cls-5" d="M808.73781,412.03383c-7.43063-5.4653-12.31163-9.131-12.31163-9.131,2.06032-2.74711,34.63587-37.45013,53.49448-65.41288C849.92066,337.48992,811.77826,414.27012,808.73781,412.03383Z"/><path class="cls-4" d="M347.18864,159.08945c3.62762,6.046,5.23989,3.62762,15.71968,2.82148s25.39332,6.85217,30.63322,19.75037,3.62761,14.91354.80613,16.52581-22.97491,4.03069-23.781,8.06138"/><polygon class="cls-6" points="618.728 815.122 609.338 799.252 576.023 854.777 584.768 861.504 618.728 815.122"/><path class="cls-6" d="M397.5177,677.42689s-17.26233-28.06624-9.85694-41.81911l55.07131,5.89144Z"/><path class="cls-7" d="M397.5177,677.42689l3.29938,7.5812-10.17333,39.676a13.58375,13.58375,0,0,0,4.281,13.65566h0l50.36519-74.45288a17.3144,17.3144,0,0,0-2.55786-22.38764l-11.25453-10.45354Z"/><path class="cls-8" d="M370.56662,206.24849c15.772-.3748,35.75793-1.3741,31.76074-13.36569s-18.98668-41.97056-52.96285-32.97687c0,0-11.99159,9.993,2.9979,27.98037S370.56662,206.24849,370.56662,206.24849Z"/><path class="cls-9" d="M450.39431,642.16424s-26.923-79.487-4.14162-114.38685c18.80179-28.8033,80.22712,18.04707,88.64337,24.35926l43.95029-79.375s-10.14592-14.22531-35.05585-28.15328-127.81445-55.636-176.17428,20.66307c-17.87317,28.19915-18.14687,149.20765,16.13056,195.583Z"/><path class="cls-4" d="M450.39431,642.16424s-26.923-79.487-4.14162-114.38685c18.80179-28.8033,80.22712,18.04707,88.64337,24.35926"/><path class="cls-9" d="M578.84635,472.76169c-19.98859,21.04063-79.25248,123.54255-92.57876,172.53314-17.82515,65.52954-11.122,119.87769,86.85139,226.29561l47.35874-68.979s-33.2985-50.56446-27.08161-98.22733c8.99394-68.95351,58.06321-135.811,82.89194-178.21766Z"/><polygon class="cls-5" points="586.369 481.669 665.15 543.498 688.691 507.703 586.369 481.669"/><path class="cls-10" d="M1038.8457,416.6618q18.42724,3.9487,28.0796,14.0398c6.43491,6.72741,3.50995,10.23736,1.17,12.28483s-11.40733-.2925-19.30472-7.3124S1038.8457,416.6618,1038.8457,416.6618Z"/><path class="cls-6" d="M796.42618,402.9028c2.06032-2.74711,34.63587-37.45013,53.49448-65.41288,0,0,57.00242,63.87018,63.1834,65.93051,2.298.766,16.27166.58271,33.62777.40305,29.3281-.30359,68.31421-.59688,76.94319,3.7176,13.73552,6.86776,21.97683,10.30164,25.41071,19.91651s4.78649,15.89546-3.43388,16.48263c-9.61486.68677-15.79585-11.6752-15.79585-11.6752s-7.856,4.74535-28.15782,12.362c0,0-73.04447,28.35853-121.87086,14.64355C866.49441,455.52542,796.42618,402.9028,796.42618,402.9028Z"/><path class="cls-6" d="M353.63774,147.80353c-6.26892,2.38816-10.07672,5.23989-6.4491,11.28592s5.23989,3.62762,15.71968,2.82148,25.39332,6.85217,30.63322,19.75037,3.62761,14.91354.80613,16.52581-22.97491,4.03069-23.781,8.06138,8.16633,15.92779,26.70749,15.12165l4.43376-.80613s38.9927,38.0834,44.63566,43.72636,47.11406,33.73867,69.95861,39.44981c17.36425,4.34106,52.5402-1.25839,73.681-5.38284,10.26608-2.00285,17.22252-3.65788,17.22252-3.65788s-15.86412-28.576-19.08867-72.51052c0,0-37.95214,6.09709-63.17148,11.63035,0,0-58.85165-32.8107-87.46953-47.32117,0,0-24.99026-30.63322-36.67925-34.6639S362.10218,144.579,353.63774,147.80353Z"/><path class="cls-5" d="M589.98318,298.35734c10.26608-2.00285,17.22252-3.65788,17.22252-3.65788s-19.18939-24.189-22.41394-68.12346c0,0-8.67481,9.3494-5.977,34.2321C582.2053,292.0808,589.98318,298.35734,589.98318,298.35734Z"/><path class="cls-11" d="M583.86292,221.65718s.53151,53.6897,14.91527,76.08536l5.15945-2.06378s-67.78541,79.29875-89.70657,131.11242c-3.58781,8.48027,140.73443,100.6675,162.057,99.37523,0,0,70.316-107.32068,94.36681-139.13488l25.84551,20.03028s50.69657-51.33963,53.42029-69.57189c0,0-48.9673-59.58508-89.02784-77.0308s-75.85724-47.33264-118.88937-46.52192C604.75309,214.639,583.86292,221.65718,583.86292,221.65718Z"/><polygon class="cls-5" points="796.5 407.062 770.655 387.032 774.772 375.813 796.5 407.062"/><path class="cls-6" d="M835.81663,194.76745c-4.52413,14.07507-17.59384,54.79225-32.1716,59.81907s-29.75489-1.28474-29.75489-1.28474l-15.52873,7.94653c-1.73254,5.1976-13.98882,9.674-29.814,10.28264-11.71792.45068-18.85321-14.596-15.385-25.49,1.59208-5.00083,7.54022-29.65819,7.54022-29.65819s12.567-46.24668,24.1287-55.79762,22.42682-19.00912,53.28422-6.53486C845.36758,173.15215,835.81663,194.76745,835.81663,194.76745Z"/><path class="cls-12" d="M742.14068,196.77142c-2.07432,8.643-11.063,25.92894-16.94025,22.81746s-7.95154-11.063-3.80291-26.27466,7.60583-49.78356,19.36028-56.00651,16.94024,1.03716,16.94024,1.03716-5.18579-25.2375,10.02586-28.69469c0,0,5.18578-2.42,3.11147,14.86592,0,0,5.87723-15.90308,24.89178-13.82877s25.58322,28.6947,25.58322,28.6947,1.38288-7.26011,10.02586-7.26011,21.78031,12.79162,18.66884,26.9661c0,0,22.11977-6.92377,33.88048,10.7173,11.75445,17.63168,10.37157,36.992-17.9774,44.59777-29.641,7.95247-29.38613-26.62037-33.88048-31.11472s-9.33442-9.68014-25.92894-3.4572S772.21825,167.731,772.21825,167.731s-2.76576,22.126-5.53151,24.20035-8.29726,4.84007-6.91439-5.53151,3.11148-9.33442,2.07432-12.10017-5.7157-11.49171-15.55736-3.80291C735.22629,179.13974,742.14068,196.77142,742.14068,196.77142Z"/><path class="cls-13" d="M746.84682,200.6437c-6.59433-5.53924-11.16621-15.30115-5.3632-25.06077s15.29886-11.07848,18.20037-7.38565,4.02274,9.9196,1.29663,17.30306"/><path class="cls-7" d="M584.76826,861.50371l3.29938,7.58121-10.17333,39.676a13.58375,13.58375,0,0,0,4.281,13.65566l0,0,50.36519-74.45289a17.31438,17.31438,0,0,0-2.55786-22.38763L618.72811,815.1225Z"/><path class="cls-13" d="M757.698,138.34487S753.84159,125.8,742.28312,122.49762"/><line class="cls-4" x1="512.65126" y1="423.00484" x2="652.18264" y2="228.09468"/><path class="cls-4" d="M709.69416,241.73072c-5.02631,6.53641-7.3168,34.66408,15.81237,36.49007s37.91387-8.3347,37.91387-8.3347"/><path class="cls-4" d="M400.79677,151.83422s15.94891,21.11,18.45522,28.62894"/><path class="cls-4" d="M997.97862,434.845s10.6561,8.773,31.87738-2.58c7.69552-4.117,2.21619-13.858-7.52483-11.42273s-21.30848-1.21763-21.30848-1.21763"/><path class="cls-4" d="M1042.49858,417.87943s10.22526,11.92668,9.94486,19.01223"/><path class="cls-4" d="M892.045,416.58059s9.24213-12.31761,21.059-13.16016"/><path class="cls-4" d="M502.256,253.71909s5.39833-16.81061,22.6896-19.8998"/><path class="cls-4" d="M549.11205,508.8312l-20.62624,39.4593s-68.01351,115.10119-44.93664,189.46"/><path class="cls-4" d="M609.36833,640.8822l66.91972-114.71579s87.71-127.212,96.68438-145.16067l30.95295-57.263"/><path class="cls-4" d="M521.994,435.223s119.00394,86.76383,154.294,90.9434"/><path class="cls-4" d="M583.86292,221.65718s-.107,54.4493,14.57131,76.77329"/><path class="cls-4" d="M846.09885,328.8604c-3.73737,22.4427-53.42029,69.57188-53.42029,69.57188"/><circle class="cls-8" cx="475.42832" cy="601.29612" r="7.06673"/><polygon class="cls-3" points="1138.414 753.143 1134.508 726.113 1157.563 741.44 1145.498 744.071 1138.414 753.143"/><path class="cls-3" d="M373.84158,291.73148c-43.68526-38.54582-115.87461,57.57258,148.2845,363.51305C674.50913,831.72961,794.23869,847.556,810.457,786.15666c29.09711-110.15577-75.98666-138.00087-36.88677-94.85615,56.85658,62.73829,218.58314,75.99207,339.09439,17.447,118.91248-57.76833,45.82037-147.47873,38.43766-152.71253"/><circle class="cls-8" cx="1114.56884" cy="708.1976" r="7.06673"/><line class="cls-3" x1="1011.74295" y1="765.8731" x2="1221.2031" y2="647.81374"/><circle class="cls-8" cx="378.19995" cy="297.44403" r="7.06673"/><circle class="cls-14" cx="558.38022" cy="151.55386" r="15.16016"/><path class="cls-2" d="M283.28594,39.92311a2.66451,2.66451,0,1,1-2.6645,2.6645,2.66753,2.66753,0,0,1,2.6645-2.6645m0-4a6.66451,6.66451,0,1,0,6.66451,6.6645,6.6645,6.6645,0,0,0-6.66451-6.6645Z"/><circle class="cls-15" cx="1176.27361" cy="856.98725" r="6.6645"/><path class="cls-8" d="M1057.19756,556.00586,985.554,522.38528a7.43778,7.43778,0,0,1,.16427-13.54116l133.28819-58.64681a7.43778,7.43778,0,0,1,5.92919-.02684l91.55113,39.29684Z"/><path class="cls-16" d="M1052.75949,445.50968c.1828,29.64614,4.43807,110.49618,4.43807,110.49618l159.28925-66.53855-3.57165-112.507a9.67459,9.67459,0,0,0-13.68149-8.49663l-137.1511,62.49924A15.88465,15.88465,0,0,0,1052.75949,445.50968Z"/><path class="cls-3" d="M1057.19756,556.00586l159.28925-66.53855-3.57165-112.507s-1.06128-12.28374-13.68149-8.49663"/><line class="cls-3" x1="1134.29653" y1="475.14348" x2="1145.05111" y2="449.72355"/><line class="cls-3" x1="1145.05111" y1="475.14348" x2="1155.8057" y2="449.72355"/><circle class="cls-14" cx="312.01646" cy="745.7652" r="6.6645"/><circle class="cls-14" cx="873.92568" cy="778.78216" r="9.25966"/><path class="cls-17" d="M381.08266,844.57823c10.84465,5.19953,42.39339,18.31881,84.15325,18.04339a3.79049,3.79049,0,0,1,3.76469,4.27345l-5.8147,46.14871a3.79737,3.79737,0,0,1-3.07321,3.2617c-11.795,2.21448-59.33714,8.73868-94.89935-21.41855a3.78612,3.78612,0,0,1-1.18239-3.8622l11.75188-43.99355A3.79225,3.79225,0,0,1,381.08266,844.57823Z"/><path class="cls-3" d="M385.26138,858.14167s20.54587,28.86572,27.87063,33.00082S460.00762,871.703,460.00762,871.703"/><line class="cls-3" x1="432.50009" y1="887.11758" x2="454.08215" y2="909.30252"/><line class="cls-3" x1="402.5171" y1="882.84204" x2="377.27323" y2="889.70436"/><rect class="cls-18" x="1017.81256" y="298.65797" width="24.11169" height="24.11169"/><polygon class="cls-2" points="1021.08 623.893 1028.246 636.305 1035.413 648.718 1021.08 648.718 1006.747 648.718 1013.913 636.305 1021.08 623.893"/><path class="cls-3" d="M441.58693,73.98178l1.86761-56.35195c-.19691-5.26073,1.9455-6.93653,5.18668-7.65344,15.31039-3.38645,61.84279-13.7596,112.45485,1.20148,6.5393,1.933,6.33047,5.39483,6.22554,8.511l-1.809,53.72527c-.13283,3.94511-4.25408,6.80141-8.85466,6.12781-14.776-2.16345-34.87457-2.83215-55.2848-2.65987-21.08888.178-39.88034,1.74619-53.031,4.27747C443.32324,82.12555,441.441,78.38585,441.58693,73.98178Z"/><path class="cls-3" d="M458.61863,65.744l29.45706-34.48434,32.60966,32.18183C509.44283,59.77975,458.61863,65.744,458.61863,65.744Z"/><polyline class="cls-3" points="506.133 47.223 529.948 28.164 550.016 42.487 550.77 64.88 520.685 63.441"/><ellipse class="cls-3" cx="465.67597" cy="28.1368" rx="4.9188" ry="5.79984" transform="translate(390.84336 488.62118) rotate(-84.22733)"/><path class="cls-3" d="M1011.21332,806.10817l19.76187,36.48975c2.0807,3.26848,1.34278,5.12939-.44957,6.78966-8.46647,7.84257-34.16835,31.72964-71.8794,41.04062-4.87243,1.203-6.02666-1.07358-7.1184-3.092l-18.82265-34.79947c-1.38217-2.55537.1739-5.90175,3.34665-7.18409,10.19017-4.11857,23.2056-11.16521,36.1064-18.86191,13.32975-7.95263,24.68337-15.93428,32.09587-22.43079C1007.083,801.5806,1009.66887,803.25639,1011.21332,806.10817Z"/><path class="cls-3" d="M1003.45688,817.67228l-5.89234,32.85523-32.67731-8.32C973.38982,840.35415,1003.45688,817.67228,1003.45688,817.67228Z"/><polyline class="cls-3" points="980.16 847.1 972.118 868.06 954.046 866.421 945.242 852.477 964.887 842.207"/><ellipse class="cls-3" cx="1012.95401" cy="844.18433" rx="4.26864" ry="3.6202" transform="translate(-259.26242 497.5024) rotate(-24.56432)"/><path class="cls-19" d="M915.01586,183.16967,995.30178,244.619a3.96566,3.96566,0,0,0,5.60142-.79474l12.12165-16.42968a3.96567,3.96567,0,0,0-.71354-5.45083l-79.15278-63.33364a3.96566,3.96566,0,0,0-5.69014.77136l-13.25479,18.314A3.96565,3.96565,0,0,0,915.01586,183.16967Z"/><polygon class="cls-14" points="920.959 180.427 940.429 194.089 951.918 180.378 932.443 164.135 920.959 180.427"/><polygon class="cls-15" points="947.759 199.417 967.254 214.884 977.704 202.028 958.079 186.104 947.759 199.417"/><polygon class="cls-2" points="973.812 220.827 993.283 234.49 1002.556 222.573 984.114 207.139 973.812 220.827"/><path class="cls-19" d="M1075.21123,97.2594l18.29411,153.744a6.073,6.073,0,0,0,6.85422,5.29928l30.978-4.24127a6.073,6.073,0,0,0,5.22072-6.60426L1121.54243,90.94459a6.073,6.073,0,0,0-6.9233-5.42164l-34.25627,5.00983A6.073,6.073,0,0,0,1075.21123,97.2594Z"/><polygon class="cls-14" points="1084.568 100.853 1090.366 136.814 1117.684 134.78 1114.714 96.06 1084.568 100.853"/><polygon class="cls-7" points="1092.346 150.548 1096.188 188.464 1121.459 186.204 1117.979 147.658 1092.346 150.548"/><polygon class="cls-15" points="1096.669 202.009 1102.467 237.97 1125.45 235.422 1122.695 198.698 1096.669 202.009"/><path class="cls-19" d="M1035.2728,129.99291l50.66351,148.92a4.83083,4.83083,0,0,0,6.2097,2.98936l31.732-11.42353a4.83082,4.83082,0,0,0,2.96958-6.00222L1079.27415,114.083a4.83082,4.83082,0,0,0-6.28369-3.07314l-34.82207,12.89706A4.83083,4.83083,0,0,0,1035.2728,129.99291Z"/><polygon class="cls-2" points="1045.562 132.707 1058.711 166.676 1085.01 159.006 1074.052 121.75 1045.562 132.707"/><polygon class="cls-6" points="1063.504 179.698 1075.148 215.986 1099.396 208.52 1087.976 171.541 1063.504 179.698"/><polygon class="cls-15" points="1078.435 229.135 1091.584 263.104 1113.535 255.832 1103.203 220.484 1078.435 229.135"/><rect class="cls-9" x="382.83824" y="318.09604" width="285.39025" height="64.15737" rx="5.48391"/><line class="cls-3" x1="409.25067" y1="362.08935" x2="646.354" y2="362.08935"/><path class="cls-7" d="M284.93066,198.36288h8.86426a1.69683,1.69683,0,0,1,1.69683,1.69683v14.70656a1.69683,1.69683,0,0,1-1.69683,1.69683h-8.86426a0,0,0,0,1,0,0V198.36288a0,0,0,0,1,0,0Z" transform="translate(247.63206 -146.74758) rotate(47.59122)"/><rect class="cls-3" x="258.31074" y="179.87974" width="33.49201" height="23.08677" rx="0.97982" transform="translate(319.22163 523.61056) rotate(-132.40878)"/><rect class="cls-14" x="213.23642" y="283.4461" width="23.90501" height="21.82631"/><polyline class="cls-3" points="213.236 269.401 213.236 283.446 198.938 283.446"/><rect class="cls-15" x="1000.73433" y="36.97123" width="23.90501" height="21.82631"/><polyline class="cls-3" points="1000.734 22.926 1000.734 36.971 986.436 36.971"/><path class="cls-3" d="M353.79151,171.88139C105.98464,69.15721-84.78835,266.99587,382.33664,569.94219c36.78225,23.85452,93.19087,32.22488,93.19087,32.22488"/><circle class="cls-8" cx="125.87603" cy="178.78925" r="7.06673"/><polygon class="cls-3" points="80.91 140.006 88.643 132.582 106.421 142.754 115.356 170.325 88.068 158.904 80.91 140.006"/><polygon class="cls-3" points="88.643 132.582 80.91 140.006 76.579 134.748 84.003 127.633 88.643 132.582"/><line class="cls-3" x1="115.35632" y1="170.32468" x2="97.61169" y2="150.82921"/><path class="cls-19" d="M158.31022,665.00376l19.26149,99.25144a3.96567,3.96567,0,0,0,4.71706,3.12359l19.97171-4.24257a3.96566,3.96566,0,0,0,3.08438-4.55052l-17.16324-99.90864a3.96566,3.96566,0,0,0-4.7679-3.2l-22.07,4.89976A3.96567,3.96567,0,0,0,158.31022,665.00376Z"/><polygon class="cls-14" points="164.576 666.897 170.07 690.039 187.764 687.409 183.979 662.335 164.576 666.897"/><polygon class="cls-15" points="172.016 698.889 176.33 723.398 192.68 720.719 188.571 695.782 172.016 698.889"/><polygon class="cls-2" points="177.291 732.197 182.785 755.339 197.631 752.581 194.081 728.797 177.291 732.197"/><polygon class="cls-3" points="709.855 913.753 791.256 891.961 794.36 900.782 712.044 922.151 709.855 913.753"/><line class="cls-3" x1="698.5616" y1="902.36885" x2="700.90988" y2="909.75998"/><line class="cls-3" x1="696.26767" y1="907.18811" x2="703.13681" y2="904.82895"/><line class="cls-3" x1="694.61058" y1="930.59123" x2="699.04017" y2="944.53322"/><line class="cls-3" x1="690.83847" y1="939.43098" x2="703.0688" y2="935.54521"/><line class="cls-3" x1="676.009" y1="907.58165" x2="681.78662" y2="926.0459"/><line class="cls-3" x1="670.26684" y1="919.08048" x2="687.40826" y2="913.60903"/><polygon class="cls-20" points="116.336 29.486 64.823 6.233 66.957 0.335 118.765 24.196 116.336 29.486"/><line class="cls-20" x1="117.36436" y1="40.19111" x2="119.2838" y2="35.35688"/><line class="cls-20" x1="120.60167" y1="38.6633" x2="116.03381" y2="36.97117"/><line class="cls-20" x1="131.3997" y1="27.21735" x2="135.02036" y2="18.09848"/><line class="cls-20" x1="137.11163" y1="24.23001" x2="129.11229" y2="21.05386"/><line class="cls-20" x1="131.28596" y1="47.06152" x2="136.12709" y2="35.02253"/><line class="cls-20" x1="139.14977" y1="43.53028" x2="127.92753" y2="39.09192"/><path class="cls-15" d="M308.83352,464.50835C272.525,438.367,236.85208,397.743,252.50022,356.01458c0,0,25.037-16.69135,64.679,4.17284l39.642,20.86419Z"/><path class="cls-1" d="M293.53237,641.99664a242.55548,242.55548,0,0,1-45.13623-27.2002c-21.90039-16.73047-49.56982-44.49121-57.01757-81.73047-12.07569-60.37988,40.09814-143.60351,57.11962-168.707-9.68261,45.62793,37.61475,85.63916,59.459,101.3667,21.57422,15.53272,36.52832,22.49854,59.28222,30.9043Z"/><path class="cls-15" d="M245.98355,370.79494c-1.477,15.13833,2.74966,30.84688,12.64642,46.88694,13.19253,21.38164,33.62936,38.59009,48.45067,49.26109,21.06592,15.167,36.47061,22.45659,58.06064,30.50807L292.84513,640.03515a243.17311,243.17311,0,0,1-43.5973-26.475,181.1269,181.1269,0,0,1-34.53914-33.99444c-11.268-14.8663-18.62254-30.61-21.85931-46.79392-7.37351-36.86753,9.80926-82.36953,25.52227-114.049a466.924,466.924,0,0,1,27.6119-47.92789m6.51664-14.78037s-77.19745,104.32095-62.59254,177.34559S294.2286,643.94039,294.2286,643.94039l75.11105-148.13574c-23.47223-8.60649-38.721-15.61149-60.50614-31.29631C272.525,438.367,236.85206,397.74293,252.50019,356.01457Z"/><path class="cls-4" d="M232.19982,416.63835s4.49,41.90683,46.39685,64.35693"/><line class="cls-4" x1="301.04676" y1="495.962" x2="342.9536" y2="518.41209"/><path class="cls-4" d="M238.18651,476.50526s13.47005,29.93345,56.87356,49.3902"/><path class="cls-4" d="M203.763,480.99528s1.49668,31.43012,22.4501,41.90683"/><path class="cls-3" d="M251.65656,371.73816s-3.88323,40.36312,57.177,92.77019"/><path class="cls-3" d="M274.10665,379.22153s19.45675-1.49668,47.89353,19.45674"/><path class="cls-3" d="M182.60824,508.094c-1.251,20.0166,1.251,92.57678,106.33819,138.86516"/><path class="cls-7" d="M853.64725,467.72571l-44.57393,89.33288s30.23248,11.12574,6.59875,45.7828c0,0,55.87871,23.172,92.442-37.01486S853.64725,467.72571,853.64725,467.72571Z"/><path class="cls-1" d="M751.631,743.27593c-23.686,0-48.6333-9.84863-74.167-29.27832l85.91114-142.31543,51.605,32.4961.11767.04883a73.8673,73.8673,0,0,0,26.10889,4.5c15.18848,0,35.36865-4.46289,53.55713-23.03321L826.19448,703.00445c-.22363.334-27.14013,40.26855-74.55859,40.27148Z"/><path class="cls-21" d="M763.86917,573.766l50.20434,31.614.21491.13538.23465.09729a75.50168,75.50168,0,0,0,26.68347,4.61407A73.87736,73.87736,0,0,0,888.497,593.4428L824.94647,702.16647a98.68992,98.68992,0,0,1-19.10486,19.88421c-11.332,8.99888-29.935,19.72586-54.20578,19.72586-23.02258,0-47.29868-9.47232-72.18906-28.16049L763.86917,573.766m144.24487-7.9394c-20.65833,34.00571-47.47946,41.40015-66.90747,41.40015a72.9648,72.9648,0,0,1-25.53449-4.38532l-52.79129-33.24307L675.48611,714.37213c29.26593,22.55957,54.79123,30.40441,76.14972,30.40441,48.8255,0,75.85336-41.01532,75.85336-41.01532L908.114,565.82656Z"/><path class="cls-3" d="M809.07332,557.05859s33.246,11.73849,6.59875,45.7828"/><path class="cls-3" d="M761.84637,566.49505s45.28519,41.48024,70.35521,41.201S886.666,601.448,904.0095,571.54314"/><path class="cls-4" d="M767.40208,620.158s31.083,27.603,65.84232,18.7369"/><path class="cls-4" d="M800.05022,661.40415s16.309,12.22279,39.10494.66357"/><path class="cls-4" d="M725.02793,678.41264s37.63014,37.42226,96.86512,12.7387"/><path class="cls-4" d="M745.50482,641.91335s15.353,10.97729,24.97018,14.48159"/><path class="cls-3" d="M861.30313,493.65449s34.35514,11.23669,38.47148,56.56912"/><path class="cls-3" d="M878.571,549.67469S894.38845,574.15037,867.654,598.629"/><path class="cls-3" d="M678.67077,721.204s86.26653,73.883,148.87346-12.51037"/><line class="cls-22" x1="55.98475" y1="439.84152" x2="76.09545" y2="439.84152"/><line class="cls-22" x1="1176.27361" y1="197.95587" x2="1196.3843" y2="197.95587"/><line class="cls-23" x1="636.96038" y1="59.97284" x2="657.07107" y2="59.97284"/><line class="cls-23" x1="1214.66918" y1="302.26498" x2="1234.46303" y2="305.82075"/><line class="cls-24" x1="424.68082" y1="804.06854" x2="444.79152" y2="804.06854"/><circle class="cls-7" cx="1257.99644" cy="553.37307" r="6.6645"/><circle class="cls-7" cx="6.6645" cy="233.72616" r="6.6645"/><circle class="cls-8" cx="1335.49623" cy="982.4469" r="7.06673"/><circle class="cls-8" cx="1738.1387" cy="743.87067" r="7.06673"/><path class="cls-3" d="M1739.73177,741.30135s55.48546-165.21112-192.57378-67.74358C1289.263,774.89,1186.265,987.36453,1228.51626,1004.13408s105.18111-21.06316,105.18111-21.06316"/><circle class="cls-5" cx="813.64105" cy="204.68762" r="5.11976"/><path class="cls-4" d="M782.76706,232.98154a19.8286,19.8286,0,0,0,12.41586,3.955,18.94558,18.94558,0,0,0,7.40713-1.8518"/><path class="cls-8" d="M415.14858,359.7525l.01465-21.34131h3.14209v13.042l6.28369-7.70654h3.94239l-6.63965,8.00293,7.32129,8.00293h-4.209l-6.69873-7.70655v7.70655Z"/><path class="cls-8" d="M435.215,360.19732a6.12473,6.12473,0,0,1-2.979-.65967,4.52057,4.52057,0,0,1-1.81543-1.749,4.78257,4.78257,0,0,1-.61524-2.39355,4.98708,4.98708,0,0,1,.42969-2.13379,4.16882,4.16882,0,0,1,1.2749-1.56348,6.90146,6.90146,0,0,1,2.07471-1.04492,22.77942,22.77942,0,0,1,2.41553-.54834q1.34838-.23731,2.83838-.44483,1.489-.20727,2.95654-.415l-1.12647.62256a3.96821,3.96821,0,0,0-.793-2.79345,3.66619,3.66619,0,0,0-2.82325-.91163,4.67743,4.67743,0,0,0-2.312.58545,3.15555,3.15555,0,0,0-1.4668,1.93409l-2.89013-.88916a5.97281,5.97281,0,0,1,2.26025-3.27539,7.37238,7.37238,0,0,1,4.43848-1.21534,8.87,8.87,0,0,1,3.74219.73389,4.64253,4.64253,0,0,1,2.334,2.31934,4.85912,4.85912,0,0,1,.47461,1.65966,18.71759,18.71759,0,0,1,.08887,1.88233v9.85547h-2.7417v-3.66065l.5332.47412a6.80256,6.80256,0,0,1-2.52685,2.73438A7.36305,7.36305,0,0,1,435.215,360.19732Zm.54834-2.53467a5.0865,5.0865,0,0,0,2.26758-.46679,4.38662,4.38662,0,0,0,1.52637-1.19287,3.75763,3.75763,0,0,0,.75586-1.51172,5.46849,5.46849,0,0,0,.28906-1.60059q.03662-.88915.03711-1.42285l1.00732.3706q-1.467.22266-2.66748.39991-1.20044.178-2.1709.34863a13.80307,13.80307,0,0,0-1.72656.40723,5.59044,5.59044,0,0,0-1.13379.53369,2.49646,2.49646,0,0,0-.78564.75586,1.94164,1.94164,0,0,0-.28907,1.082,2.21839,2.21839,0,0,0,.311,1.14844,2.16694,2.16694,0,0,0,.94873.8374A3.71686,3.71686,0,0,0,435.76333,357.66265Z"/><path class="cls-8" d="M447.57485,359.7525V343.74664h2.75684v3.88281l-.38525-.50391a6.01579,6.01579,0,0,1,.7705-1.41552,4.3677,4.3677,0,0,1,1.09668-1.05957,4.80356,4.80356,0,0,1,1.356-.689,6.24645,6.24645,0,0,1,1.53418-.29639,6.11168,6.11168,0,0,1,1.51172.08155v2.90478a4.99687,4.99687,0,0,0-1.7417-.11865,3.97142,3.97142,0,0,0-2.94922,1.79346,4.93469,4.93469,0,0,0-.62988,1.54834,8.15086,8.15086,0,0,0-.19238,1.80078v8.07715Z"/><path class="cls-8" d="M457.2521,346.23638v-2.48974h10.9375v2.48974Zm10.9375,13.51612a13.24692,13.24692,0,0,1-2.96436.252,6.711,6.711,0,0,1-2.59326-.563,3.5337,3.5337,0,0,1-1.71924-1.63037,4.68865,4.68865,0,0,1-.55566-2.02295q-.03735-1.02978-.03711-2.33447V339.30035h3.11231v14.00537q0,.96314.022,1.6748a2.53525,2.53525,0,0,0,.3042,1.2002,2.0976,2.0976,0,0,0,1.69678,1.04492,11.20443,11.20443,0,0,0,2.73437-.09619Z"/><path class="cls-8" d="M471.53872,359.7525V338.41119h2.77149v11.51562h.3706v9.82569Zm11.24854,0v-7.86963a12.27122,12.27122,0,0,0-.15577-1.91944,5.97583,5.97583,0,0,0-.59277-1.83007,3.55693,3.55693,0,0,0-1.23-1.36328,3.71844,3.71844,0,0,0-2.06738-.519,4.49239,4.49239,0,0,0-1.5708.27442,3.28015,3.28015,0,0,0-1.29688.88183,4.26633,4.26633,0,0,0-.87451,1.60059,7.97725,7.97725,0,0,0-.31836,2.41553l-1.92676-.72608a8.64921,8.64921,0,0,1,.81494-3.8457,6.131,6.131,0,0,1,2.3418-2.60108,6.939,6.939,0,0,1,3.68994-.93359,6.49377,6.49377,0,0,1,2.78662.5332,5.16266,5.16266,0,0,1,1.83008,1.40039,6.49372,6.49372,0,0,1,1.07471,1.88965,9.76529,9.76529,0,0,1,.50391,2.001,12.92154,12.92154,0,0,1,.1333,1.71924v8.89209Z"/><path class="cls-8" d="M490.07827,341.1231v-3.0083h3.09766v3.0083Zm0,18.6294V343.74664h3.09766V359.7525Z"/><path class="cls-8" d="M504.4689,360.19732a7.61293,7.61293,0,0,1-4.1792-1.09668,7.12233,7.12233,0,0,1-2.63086-3.00879,10.11619,10.11619,0,0,1-.92627-4.34228,9.96248,9.96248,0,0,1,.94873-4.3794,7.14427,7.14427,0,0,1,2.66748-2.98633,7.71119,7.71119,0,0,1,4.16455-1.082,7.613,7.613,0,0,1,4.4834,1.3042,6.1049,6.1049,0,0,1,2.45264,3.57178l-3.08252.88916a4.13929,4.13929,0,0,0-1.5044-2.09717,4.00977,4.00977,0,0,0-2.39355-.748,4.12068,4.12068,0,0,0-2.50489.71875,4.24093,4.24093,0,0,0-1.45214,1.96337,8.16445,8.16445,0,0,0-.48926,2.84571,6.67733,6.67733,0,0,0,1.13379,4.00146,3.84547,3.84547,0,0,0,3.3125,1.52637,3.95872,3.95872,0,0,0,2.42334-.689,4.281,4.281,0,0,0,1.415-1.97851l3.14209.74072a6.87345,6.87345,0,0,1-2.59375,3.59424A7.5169,7.5169,0,0,1,504.4689,360.19732Z"/><path class="cls-8" d="M514.45767,359.7525l.01465-21.34131h3.14208v13.042l6.2837-7.70654h3.94238l-6.63965,8.00293,7.32129,8.00293h-4.209L517.6144,352.046v7.70655Z"/><path class="cls-8" d="M528.818,351.64556v-2.48974h8.89258v2.48974Z"/><path class="cls-8" d="M541.549,359.7525l.01464-21.34131h3.14209v13.042l6.28369-7.70654h3.94239l-6.63965,8.00293,7.32129,8.00293h-4.209l-6.69873-7.70655v7.70655Z"/><path class="cls-8" d="M557.39126,341.1231v-3.0083h3.09766v3.0083Zm0,18.6294V343.74664h3.09766V359.7525Z"/><path class="cls-8" d="M571.05581,360.18218a8.10389,8.10389,0,0,1-4.75732-1.28906,5.39339,5.39339,0,0,1-2.25293-3.63135l3.17187-.48877a3.169,3.169,0,0,0,1.37061,1.96338,4.7048,4.7048,0,0,0,2.67529.71875,3.82852,3.82852,0,0,0,2.2749-.59277,1.89968,1.89968,0,0,0,.82227-1.62988,1.57764,1.57764,0,0,0-.28906-.98584,2.7428,2.7428,0,0,0-1.20752-.71875q-.9192-.34058-2.80127-.84473a16.5,16.5,0,0,1-3.26807-1.14844,4.18691,4.18691,0,0,1-1.71875-1.4375,3.7041,3.7041,0,0,1-.51172-1.99365,4.25159,4.25159,0,0,1,.771-2.53418,4.962,4.962,0,0,1,2.1709-1.6748,8.38015,8.38015,0,0,1,3.28271-.59278,8.72466,8.72466,0,0,1,3.27539.57813,5.7858,5.7858,0,0,1,2.32666,1.63769,4.67709,4.67709,0,0,1,1.06738,2.48243l-3.17187.57812a2.60977,2.60977,0,0,0-1.08154-1.82324,4.27457,4.27457,0,0,0-2.38623-.72608,4.04423,4.04423,0,0,0-2.28223.4668,1.61689,1.61689,0,0,0-.87451,1.44483,1.30387,1.30387,0,0,0,.33349.90429,3.253,3.253,0,0,0,1.29688.71143q.96313.34057,2.84521.81494a14.94342,14.94342,0,0,1,3.20118,1.14844,4.16091,4.16091,0,0,1,1.69726,1.49707,4.05971,4.05971,0,0,1,.51123,2.09717,4.45872,4.45872,0,0,1-1.72656,3.71972A7.55706,7.55706,0,0,1,571.05581,360.18218Z"/><path class="cls-8" d="M580.80728,359.7525V338.41119h2.77148v11.51562h.37061v9.82569Zm11.24853,0v-7.86963a12.27239,12.27239,0,0,0-.15576-1.91944,5.97637,5.97637,0,0,0-.59277-1.83007,3.557,3.557,0,0,0-1.23-1.36328,3.71848,3.71848,0,0,0-2.06739-.519,4.49239,4.49239,0,0,0-1.5708.27442,3.28,3.28,0,0,0-1.29687.88183,4.26619,4.26619,0,0,0-.87451,1.60059,7.97694,7.97694,0,0,0-.31836,2.41553l-1.92676-.72608a8.64907,8.64907,0,0,1,.81494-3.8457,6.131,6.131,0,0,1,2.3418-2.60108,6.9389,6.9389,0,0,1,3.68994-.93359,6.49383,6.49383,0,0,1,2.78662.5332,5.16266,5.16266,0,0,1,1.83008,1.40039,6.49369,6.49369,0,0,1,1.0747,1.88965,9.76464,9.76464,0,0,1,.50391,2.001,12.91985,12.91985,0,0,1,.1333,1.71924v8.89209Z"/><path class="cls-8" d="M606.00161,360.19732a7.807,7.807,0,0,1-4.16455-1.082,7.22906,7.22906,0,0,1-2.71924-2.98633,9.6699,9.6699,0,0,1-.95605-4.394,9.52266,9.52266,0,0,1,.978-4.40918,7.2308,7.2308,0,0,1,2.74218-2.96436,8.54691,8.54691,0,0,1,8.28418.02246,7.2906,7.2906,0,0,1,2.727,2.979,10.44971,10.44971,0,0,1-.00732,8.78076,7.27985,7.27985,0,0,1-2.73438,2.979A7.81945,7.81945,0,0,1,606.00161,360.19732Zm0-2.91992a3.97358,3.97358,0,0,0,3.43115-1.54883,6.59223,6.59223,0,0,0,1.13379-3.99365,6.44383,6.44383,0,0,0-1.14843-4.00928,4.03158,4.03158,0,0,0-3.41651-1.5039,4.3741,4.3741,0,0,0-2.56347.70361,4.17123,4.17123,0,0,0-1.49707,1.9414,7.76753,7.76753,0,0,0-.48926,2.86817,6.46491,6.46491,0,0,0,1.15625,4.03076A4.0085,4.0085,0,0,0,606.00161,357.2774Z"/><path class="cls-8" d="M617.11685,359.7525V343.74664h2.75683v3.88281l-.38525-.50391a6.01546,6.01546,0,0,1,.77051-1.41552,4.36753,4.36753,0,0,1,1.09668-1.05957,4.80337,4.80337,0,0,1,1.356-.689,6.24663,6.24663,0,0,1,1.53418-.29639,6.11165,6.11165,0,0,1,1.51172.08155v2.90478a4.99685,4.99685,0,0,0-1.7417-.11865,3.97142,3.97142,0,0,0-2.94922,1.79346,4.93469,4.93469,0,0,0-.62988,1.54834,8.15086,8.15086,0,0,0-.19238,1.80078v8.07715Z"/><path class="cls-8" d="M635.37564,360.19732a8.19557,8.19557,0,0,1-4.187-1.04492,7.25119,7.25119,0,0,1-2.80078-2.91992,9.09892,9.09892,0,0,1-1.00049-4.34961,9.86841,9.86841,0,0,1,.98584-4.54981,7.198,7.198,0,0,1,2.749-2.979,7.86123,7.86123,0,0,1,4.105-1.05225,7.39506,7.39506,0,0,1,4.16455,1.13379,6.82875,6.82875,0,0,1,2.57129,3.22364,11.235,11.235,0,0,1,.67431,4.96484h-3.09716v-1.12647a6.85025,6.85025,0,0,0-1.05957-4.12011,3.71336,3.71336,0,0,0-3.13477-1.334,4.20519,4.20519,0,0,0-3.49756,1.46729,6.66305,6.66305,0,0,0-1.1709,4.23877,6.32827,6.32827,0,0,0,1.1709,4.083,4.09544,4.09544,0,0,0,3.37891,1.44482,4.65982,4.65982,0,0,0,2.5122-.65918,4.42277,4.42277,0,0,0,1.65235-1.88965l3.03857.96338a7.17313,7.17313,0,0,1-2.83105,3.32715A7.84783,7.84783,0,0,1,635.37564,360.19732Zm-5.70606-7.57324v-2.416h11.42676v2.416Z"/></svg>